G04 (created by PCBNEW (2013-05-31 BZR 4019)-stable) date 7/17/2013 12:30:07 AM*
%MOIN*%
G04 Gerber Fmt 3.4, Leading zero omitted, Abs format*
%FSLAX34Y34*%
G01*
G70*
G90*
G04 APERTURE LIST*
%ADD10C,0.000787402*%
%ADD11C,0.115748*%
%ADD12R,0.115748X0.115748*%
%ADD13C,0.13189*%
%ADD14C,0.175748*%
%ADD15C,0.045748*%
%ADD16C,0.050748*%
%ADD17C,0.041748*%
G04 APERTURE END LIST*
G54D10*
G54D11*
X65746Y-67462D03*
X67400Y-67462D03*
G54D12*
X69053Y-67462D03*
G54D13*
X65746Y-70337D03*
X69053Y-70337D03*
G54D12*
X87717Y-65200D03*
G54D11*
X89882Y-65200D03*
G54D12*
X62550Y-55232D03*
G54D11*
X62550Y-53067D03*
G54D12*
X87767Y-59350D03*
G54D11*
X89932Y-59350D03*
G54D12*
X87717Y-67900D03*
G54D11*
X89882Y-67900D03*
G54D12*
X65250Y-55232D03*
G54D11*
X65250Y-53067D03*
G54D12*
X67950Y-55232D03*
G54D11*
X67950Y-53067D03*
G54D12*
X70650Y-55232D03*
G54D11*
X70650Y-53067D03*
G54D12*
X87767Y-56550D03*
G54D11*
X89932Y-56550D03*
G54D12*
X87767Y-51150D03*
G54D11*
X89932Y-51150D03*
G54D12*
X87767Y-53850D03*
G54D11*
X89932Y-53850D03*
G54D14*
X94150Y-48750D03*
X60150Y-48750D03*
X60150Y-71550D03*
X94150Y-71550D03*
G54D15*
X68650Y-62950D03*
X76890Y-62300D03*
X86830Y-52700D03*
X86830Y-50000D03*
G54D16*
X65750Y-59301D03*
X65514Y-61827D03*
X63301Y-60781D03*
X62123Y-60603D03*
X63932Y-58500D03*
X60900Y-58440D03*
X81678Y-63780D03*
X80400Y-67450D03*
X80750Y-63400D03*
X72600Y-56850D03*
X82250Y-62150D03*
X80450Y-66250D03*
X80450Y-65500D03*
X80450Y-64750D03*
X74900Y-69600D03*
X76400Y-69600D03*
X75800Y-53900D03*
X74600Y-53900D03*
X77900Y-55650D03*
X77900Y-54350D03*
X86200Y-53900D03*
X85000Y-53900D03*
X82900Y-54350D03*
X82900Y-55650D03*
X80400Y-55275D03*
X79525Y-49800D03*
X83600Y-49425D03*
X83100Y-51700D03*
X81050Y-52000D03*
X80400Y-52000D03*
X79700Y-52000D03*
X81050Y-51400D03*
X80400Y-51400D03*
X79700Y-51400D03*
X85850Y-62150D03*
X77950Y-62650D03*
X75600Y-65450D03*
X62700Y-65300D03*
X67100Y-66450D03*
X64900Y-63450D03*
X68150Y-60200D03*
X69800Y-57150D03*
X69150Y-57000D03*
X65150Y-57000D03*
X73450Y-49300D03*
X80800Y-48250D03*
X79700Y-48250D03*
X93350Y-62150D03*
X93100Y-70700D03*
X83950Y-69250D03*
X71100Y-66700D03*
X60900Y-68100D03*
X60600Y-55900D03*
G54D15*
X79095Y-65301D03*
X78051Y-64776D03*
X83450Y-63700D03*
X82400Y-65175D03*
X81200Y-67450D03*
X76900Y-63900D03*
X78048Y-66342D03*
X78765Y-65622D03*
X78759Y-63707D03*
X82160Y-67370D03*
X81350Y-59500D03*
X80750Y-53350D03*
X80025Y-53350D03*
X79375Y-59500D03*
G54D16*
X78650Y-52300D03*
X78450Y-56850D03*
G54D17*
X81694Y-51338D03*
X79150Y-51150D03*
G54D15*
X80400Y-52450D03*
G54D16*
X82250Y-52250D03*
X82450Y-56950D03*
G54D17*
X81784Y-49384D03*
X81564Y-50148D03*
G54D16*
X86350Y-51750D03*
X83120Y-53490D03*
M02*
