G04 (created by PCBNEW (2013-05-31 BZR 4019)-stable) date 7/17/2013 12:30:07 AM*
%MOIN*%
G04 Gerber Fmt 3.4, Leading zero omitted, Abs format*
%FSLAX34Y34*%
G01*
G70*
G90*
G04 APERTURE LIST*
%ADD10C,0.000787402*%
%ADD11C,0.011811*%
G04 APERTURE END LIST*
G54D10*
G54D11*
X71988Y-48739D02*
X71988Y-48148D01*
X71988Y-48429D02*
X71650Y-48429D01*
X71650Y-48739D02*
X71650Y-48148D01*
X71369Y-48429D02*
X71172Y-48429D01*
X71088Y-48739D02*
X71369Y-48739D01*
X71369Y-48148D01*
X71088Y-48148D01*
X70863Y-48570D02*
X70582Y-48570D01*
X70919Y-48739D02*
X70722Y-48148D01*
X70526Y-48739D01*
X70329Y-48739D02*
X70329Y-48148D01*
X70188Y-48148D01*
X70104Y-48176D01*
X70048Y-48232D01*
X70019Y-48289D01*
X69991Y-48401D01*
X69991Y-48485D01*
X70019Y-48598D01*
X70048Y-48654D01*
X70104Y-48710D01*
X70188Y-48739D01*
X70329Y-48739D01*
X69766Y-48710D02*
X69682Y-48739D01*
X69541Y-48739D01*
X69485Y-48710D01*
X69457Y-48682D01*
X69429Y-48626D01*
X69429Y-48570D01*
X69457Y-48514D01*
X69485Y-48485D01*
X69541Y-48457D01*
X69654Y-48429D01*
X69710Y-48401D01*
X69738Y-48373D01*
X69766Y-48317D01*
X69766Y-48260D01*
X69738Y-48204D01*
X69710Y-48176D01*
X69654Y-48148D01*
X69513Y-48148D01*
X69429Y-48176D01*
X68726Y-48148D02*
X68726Y-48626D01*
X68698Y-48682D01*
X68670Y-48710D01*
X68613Y-48739D01*
X68501Y-48739D01*
X68445Y-48710D01*
X68416Y-48682D01*
X68388Y-48626D01*
X68388Y-48148D01*
X68107Y-48739D02*
X68107Y-48148D01*
X67882Y-48148D01*
X67826Y-48176D01*
X67798Y-48204D01*
X67770Y-48260D01*
X67770Y-48345D01*
X67798Y-48401D01*
X67826Y-48429D01*
X67882Y-48457D01*
X68107Y-48457D01*
X67067Y-48739D02*
X67067Y-48148D01*
X66926Y-48148D01*
X66842Y-48176D01*
X66785Y-48232D01*
X66757Y-48289D01*
X66729Y-48401D01*
X66729Y-48485D01*
X66757Y-48598D01*
X66785Y-48654D01*
X66842Y-48710D01*
X66926Y-48739D01*
X67067Y-48739D01*
X66476Y-48739D02*
X66476Y-48148D01*
X66223Y-48710D02*
X66139Y-48739D01*
X65998Y-48739D01*
X65942Y-48710D01*
X65914Y-48682D01*
X65886Y-48626D01*
X65886Y-48570D01*
X65914Y-48514D01*
X65942Y-48485D01*
X65998Y-48457D01*
X66111Y-48429D01*
X66167Y-48401D01*
X66195Y-48373D01*
X66223Y-48317D01*
X66223Y-48260D01*
X66195Y-48204D01*
X66167Y-48176D01*
X66111Y-48148D01*
X65970Y-48148D01*
X65886Y-48176D01*
X65632Y-48739D02*
X65632Y-48148D01*
X65407Y-48148D01*
X65351Y-48176D01*
X65323Y-48204D01*
X65295Y-48260D01*
X65295Y-48345D01*
X65323Y-48401D01*
X65351Y-48429D01*
X65407Y-48457D01*
X65632Y-48457D01*
X64761Y-48739D02*
X65042Y-48739D01*
X65042Y-48148D01*
X64592Y-48570D02*
X64311Y-48570D01*
X64648Y-48739D02*
X64451Y-48148D01*
X64255Y-48739D01*
X63945Y-48457D02*
X63945Y-48739D01*
X64142Y-48148D02*
X63945Y-48457D01*
X63748Y-48148D01*
X63102Y-48739D02*
X63102Y-48148D01*
X62877Y-48148D01*
X62820Y-48176D01*
X62792Y-48204D01*
X62764Y-48260D01*
X62764Y-48345D01*
X62792Y-48401D01*
X62820Y-48429D01*
X62877Y-48457D01*
X63102Y-48457D01*
X62539Y-48710D02*
X62455Y-48739D01*
X62314Y-48739D01*
X62258Y-48710D01*
X62230Y-48682D01*
X62202Y-48626D01*
X62202Y-48570D01*
X62230Y-48514D01*
X62258Y-48485D01*
X62314Y-48457D01*
X62427Y-48429D01*
X62483Y-48401D01*
X62511Y-48373D01*
X62539Y-48317D01*
X62539Y-48260D01*
X62511Y-48204D01*
X62483Y-48176D01*
X62427Y-48148D01*
X62286Y-48148D01*
X62202Y-48176D01*
X61949Y-48148D02*
X61949Y-48626D01*
X61920Y-48682D01*
X61892Y-48710D01*
X61836Y-48739D01*
X61724Y-48739D01*
X61667Y-48710D01*
X61639Y-48682D01*
X61611Y-48626D01*
X61611Y-48148D01*
X69373Y-49515D02*
X69091Y-49515D01*
X69429Y-49683D02*
X69232Y-49093D01*
X69035Y-49683D01*
X68866Y-49515D02*
X68585Y-49515D01*
X68923Y-49683D02*
X68726Y-49093D01*
X68529Y-49683D01*
X67995Y-49683D02*
X68192Y-49402D01*
X68332Y-49683D02*
X68332Y-49093D01*
X68107Y-49093D01*
X68051Y-49121D01*
X68023Y-49149D01*
X67995Y-49205D01*
X67995Y-49290D01*
X68023Y-49346D01*
X68051Y-49374D01*
X68107Y-49402D01*
X68332Y-49402D01*
X67629Y-49093D02*
X67517Y-49093D01*
X67460Y-49121D01*
X67404Y-49177D01*
X67376Y-49290D01*
X67376Y-49487D01*
X67404Y-49599D01*
X67460Y-49655D01*
X67517Y-49683D01*
X67629Y-49683D01*
X67685Y-49655D01*
X67742Y-49599D01*
X67770Y-49487D01*
X67770Y-49290D01*
X67742Y-49177D01*
X67685Y-49121D01*
X67629Y-49093D01*
X67123Y-49683D02*
X67123Y-49093D01*
X66785Y-49683D01*
X66785Y-49093D01*
X66054Y-49683D02*
X66054Y-49093D01*
X66054Y-49374D02*
X65717Y-49374D01*
X65717Y-49683D02*
X65717Y-49093D01*
X65464Y-49515D02*
X65183Y-49515D01*
X65520Y-49683D02*
X65323Y-49093D01*
X65126Y-49683D01*
X64648Y-49683D02*
X64929Y-49683D01*
X64929Y-49093D01*
X64170Y-49683D02*
X64451Y-49683D01*
X64451Y-49093D01*
X67699Y-50038D02*
X67503Y-50628D01*
X67306Y-50038D01*
X66800Y-50628D02*
X67137Y-50628D01*
X66968Y-50628D02*
X66968Y-50038D01*
X67024Y-50122D01*
X67081Y-50178D01*
X67137Y-50206D01*
X66546Y-50572D02*
X66518Y-50600D01*
X66546Y-50628D01*
X66575Y-50600D01*
X66546Y-50572D01*
X66546Y-50628D01*
X66153Y-50038D02*
X66096Y-50038D01*
X66040Y-50066D01*
X66012Y-50094D01*
X65984Y-50150D01*
X65956Y-50263D01*
X65956Y-50403D01*
X65984Y-50516D01*
X66012Y-50572D01*
X66040Y-50600D01*
X66096Y-50628D01*
X66153Y-50628D01*
X66209Y-50600D01*
X66237Y-50572D01*
X66265Y-50516D01*
X66293Y-50403D01*
X66293Y-50263D01*
X66265Y-50150D01*
X66237Y-50094D01*
X66209Y-50066D01*
X66153Y-50038D01*
M02*
