G04 (created by PCBNEW (2013-05-31 BZR 4019)-stable) date 7/17/2013 12:30:07 AM*
%MOIN*%
G04 Gerber Fmt 3.4, Leading zero omitted, Abs format*
%FSLAX34Y34*%
G01*
G70*
G90*
G04 APERTURE LIST*
%ADD10C,0.000787402*%
%ADD11C,0.1*%
%ADD12R,0.1X0.1*%
%ADD13C,0.16*%
%ADD14C,0.03*%
%ADD15C,0.035*%
%ADD16C,0.026*%
%ADD17C,0.02*%
%ADD18C,0.01*%
G04 APERTURE END LIST*
G54D10*
G54D11*
X65746Y-67462D03*
X67400Y-67462D03*
G54D12*
X69053Y-67462D03*
X87717Y-65200D03*
G54D11*
X89882Y-65200D03*
G54D12*
X62550Y-55232D03*
G54D11*
X62550Y-53067D03*
G54D12*
X87767Y-59350D03*
G54D11*
X89932Y-59350D03*
G54D12*
X87717Y-67900D03*
G54D11*
X89882Y-67900D03*
G54D12*
X65250Y-55232D03*
G54D11*
X65250Y-53067D03*
G54D12*
X67950Y-55232D03*
G54D11*
X67950Y-53067D03*
G54D12*
X70650Y-55232D03*
G54D11*
X70650Y-53067D03*
G54D12*
X87767Y-56550D03*
G54D11*
X89932Y-56550D03*
G54D12*
X87767Y-51150D03*
G54D11*
X89932Y-51150D03*
G54D12*
X87767Y-53850D03*
G54D11*
X89932Y-53850D03*
G54D13*
X94150Y-48750D03*
X60150Y-48750D03*
X60150Y-71550D03*
X94150Y-71550D03*
G54D14*
X68650Y-62950D03*
X76890Y-62300D03*
X86830Y-52700D03*
X86830Y-50000D03*
G54D15*
X65750Y-59301D03*
X65514Y-61827D03*
X63301Y-60781D03*
X62123Y-60603D03*
X63932Y-58500D03*
X60900Y-58440D03*
X81678Y-63780D03*
X80400Y-67450D03*
X80750Y-63400D03*
X72600Y-56850D03*
X82250Y-62150D03*
X80450Y-66250D03*
X80450Y-65500D03*
X80450Y-64750D03*
X74900Y-69600D03*
X76400Y-69600D03*
X75800Y-53900D03*
X74600Y-53900D03*
X77900Y-55650D03*
X77900Y-54350D03*
X86200Y-53900D03*
X85000Y-53900D03*
X82900Y-54350D03*
X82900Y-55650D03*
X80400Y-55275D03*
X79525Y-49800D03*
X83600Y-49425D03*
X83100Y-51700D03*
X81050Y-52000D03*
X80400Y-52000D03*
X79700Y-52000D03*
X81050Y-51400D03*
X80400Y-51400D03*
X79700Y-51400D03*
X85850Y-62150D03*
X77950Y-62650D03*
X75600Y-65450D03*
X62700Y-65300D03*
X67100Y-66450D03*
X64900Y-63450D03*
X68150Y-60200D03*
X69800Y-57150D03*
X69150Y-57000D03*
X65150Y-57000D03*
X73450Y-49300D03*
X80800Y-48250D03*
X79700Y-48250D03*
X93350Y-62150D03*
X93100Y-70700D03*
X83950Y-69250D03*
X71100Y-66700D03*
X60900Y-68100D03*
X60600Y-55900D03*
G54D14*
X79095Y-65301D03*
X78051Y-64776D03*
X83450Y-63700D03*
X82400Y-65175D03*
X81200Y-67450D03*
X76900Y-63900D03*
X78048Y-66342D03*
X78765Y-65622D03*
X78759Y-63707D03*
X82160Y-67370D03*
X81350Y-59500D03*
X80750Y-53350D03*
X80025Y-53350D03*
X79375Y-59500D03*
G54D15*
X78650Y-52300D03*
X78450Y-56850D03*
G54D16*
X81694Y-51338D03*
X79150Y-51150D03*
G54D14*
X80400Y-52450D03*
G54D15*
X82250Y-52250D03*
X82450Y-56950D03*
G54D16*
X81784Y-49384D03*
X81564Y-50148D03*
G54D15*
X86350Y-51750D03*
X83120Y-53490D03*
G54D17*
X62151Y-60621D02*
X62141Y-60621D01*
X62141Y-60621D02*
X62123Y-60603D01*
X86339Y-51735D02*
X86350Y-51746D01*
X86350Y-51746D02*
X86350Y-51750D01*
X86339Y-51735D02*
X86337Y-51737D01*
X86340Y-51735D02*
X86339Y-51735D01*
X86340Y-52950D02*
X86340Y-51735D01*
X85800Y-53490D02*
X86340Y-52950D01*
X83120Y-53490D02*
X85800Y-53490D01*
G54D10*
G36*
X68200Y-68679D02*
X68153Y-68725D01*
X68153Y-67592D01*
X68145Y-67294D01*
X68046Y-67054D01*
X67930Y-67003D01*
X67859Y-67073D01*
X67859Y-66932D01*
X67808Y-66816D01*
X67529Y-66709D01*
X67439Y-66711D01*
X67460Y-66691D01*
X67524Y-66534D01*
X67525Y-66365D01*
X67460Y-66209D01*
X67341Y-66089D01*
X67184Y-66025D01*
X67015Y-66024D01*
X66859Y-66089D01*
X66739Y-66208D01*
X66675Y-66365D01*
X66674Y-66534D01*
X66739Y-66690D01*
X66858Y-66810D01*
X66973Y-66857D01*
X66940Y-66932D01*
X67400Y-67392D01*
X67859Y-66932D01*
X67859Y-67073D01*
X67470Y-67462D01*
X67930Y-67922D01*
X68046Y-67871D01*
X68153Y-67592D01*
X68153Y-68725D01*
X67879Y-69000D01*
X67859Y-69000D01*
X67859Y-67993D01*
X67400Y-67533D01*
X67329Y-67604D01*
X67329Y-67462D01*
X66869Y-67003D01*
X66753Y-67054D01*
X66646Y-67333D01*
X66654Y-67631D01*
X66753Y-67871D01*
X66869Y-67922D01*
X67329Y-67462D01*
X67329Y-67604D01*
X66940Y-67993D01*
X66991Y-68109D01*
X67270Y-68216D01*
X67568Y-68208D01*
X67808Y-68109D01*
X67859Y-67993D01*
X67859Y-69000D01*
X66820Y-69000D01*
X66500Y-68679D01*
X66500Y-66779D01*
X66070Y-66350D01*
X65325Y-66350D01*
X65325Y-63365D01*
X65260Y-63209D01*
X65141Y-63089D01*
X64984Y-63025D01*
X64815Y-63024D01*
X64659Y-63089D01*
X64539Y-63208D01*
X64475Y-63365D01*
X64474Y-63534D01*
X64539Y-63690D01*
X64658Y-63810D01*
X64815Y-63874D01*
X64984Y-63875D01*
X65140Y-63810D01*
X65260Y-63691D01*
X65324Y-63534D01*
X65325Y-63365D01*
X65325Y-66350D01*
X64720Y-66350D01*
X64250Y-65879D01*
X64250Y-61579D01*
X63820Y-61150D01*
X60320Y-61150D01*
X59900Y-60729D01*
X59900Y-58370D01*
X60220Y-58050D01*
X64079Y-58050D01*
X64979Y-58950D01*
X66379Y-58950D01*
X67733Y-60303D01*
X67789Y-60440D01*
X67908Y-60560D01*
X68046Y-60617D01*
X68200Y-60770D01*
X68200Y-64500D01*
X68200Y-68679D01*
X68200Y-68679D01*
G37*
G54D18*
X68200Y-68679D02*
X68153Y-68725D01*
X68153Y-67592D01*
X68145Y-67294D01*
X68046Y-67054D01*
X67930Y-67003D01*
X67859Y-67073D01*
X67859Y-66932D01*
X67808Y-66816D01*
X67529Y-66709D01*
X67439Y-66711D01*
X67460Y-66691D01*
X67524Y-66534D01*
X67525Y-66365D01*
X67460Y-66209D01*
X67341Y-66089D01*
X67184Y-66025D01*
X67015Y-66024D01*
X66859Y-66089D01*
X66739Y-66208D01*
X66675Y-66365D01*
X66674Y-66534D01*
X66739Y-66690D01*
X66858Y-66810D01*
X66973Y-66857D01*
X66940Y-66932D01*
X67400Y-67392D01*
X67859Y-66932D01*
X67859Y-67073D01*
X67470Y-67462D01*
X67930Y-67922D01*
X68046Y-67871D01*
X68153Y-67592D01*
X68153Y-68725D01*
X67879Y-69000D01*
X67859Y-69000D01*
X67859Y-67993D01*
X67400Y-67533D01*
X67329Y-67604D01*
X67329Y-67462D01*
X66869Y-67003D01*
X66753Y-67054D01*
X66646Y-67333D01*
X66654Y-67631D01*
X66753Y-67871D01*
X66869Y-67922D01*
X67329Y-67462D01*
X67329Y-67604D01*
X66940Y-67993D01*
X66991Y-68109D01*
X67270Y-68216D01*
X67568Y-68208D01*
X67808Y-68109D01*
X67859Y-67993D01*
X67859Y-69000D01*
X66820Y-69000D01*
X66500Y-68679D01*
X66500Y-66779D01*
X66070Y-66350D01*
X65325Y-66350D01*
X65325Y-63365D01*
X65260Y-63209D01*
X65141Y-63089D01*
X64984Y-63025D01*
X64815Y-63024D01*
X64659Y-63089D01*
X64539Y-63208D01*
X64475Y-63365D01*
X64474Y-63534D01*
X64539Y-63690D01*
X64658Y-63810D01*
X64815Y-63874D01*
X64984Y-63875D01*
X65140Y-63810D01*
X65260Y-63691D01*
X65324Y-63534D01*
X65325Y-63365D01*
X65325Y-66350D01*
X64720Y-66350D01*
X64250Y-65879D01*
X64250Y-61579D01*
X63820Y-61150D01*
X60320Y-61150D01*
X59900Y-60729D01*
X59900Y-58370D01*
X60220Y-58050D01*
X64079Y-58050D01*
X64979Y-58950D01*
X66379Y-58950D01*
X67733Y-60303D01*
X67789Y-60440D01*
X67908Y-60560D01*
X68046Y-60617D01*
X68200Y-60770D01*
X68200Y-64500D01*
X68200Y-68679D01*
G54D10*
G36*
X95120Y-71149D02*
X95040Y-70956D01*
X94745Y-70660D01*
X94359Y-70500D01*
X93942Y-70499D01*
X93556Y-70659D01*
X93260Y-70954D01*
X93100Y-71340D01*
X93099Y-71757D01*
X93259Y-72144D01*
X93554Y-72439D01*
X93749Y-72520D01*
X90686Y-72520D01*
X90686Y-59479D01*
X90686Y-56679D01*
X90686Y-53979D01*
X90686Y-51279D01*
X90678Y-50981D01*
X90579Y-50741D01*
X90463Y-50690D01*
X90392Y-50760D01*
X90392Y-50619D01*
X90340Y-50503D01*
X90062Y-50396D01*
X89763Y-50404D01*
X89524Y-50503D01*
X89472Y-50619D01*
X89932Y-51079D01*
X90392Y-50619D01*
X90392Y-50760D01*
X90003Y-51150D01*
X90463Y-51609D01*
X90579Y-51558D01*
X90686Y-51279D01*
X90686Y-53979D01*
X90678Y-53681D01*
X90579Y-53441D01*
X90463Y-53390D01*
X90392Y-53460D01*
X90392Y-53319D01*
X90392Y-51680D01*
X89932Y-51220D01*
X89861Y-51291D01*
X89861Y-51150D01*
X89402Y-50690D01*
X89285Y-50741D01*
X89179Y-51020D01*
X89186Y-51318D01*
X89285Y-51558D01*
X89402Y-51609D01*
X89861Y-51150D01*
X89861Y-51291D01*
X89472Y-51680D01*
X89524Y-51796D01*
X89803Y-51903D01*
X90101Y-51895D01*
X90340Y-51796D01*
X90392Y-51680D01*
X90392Y-53319D01*
X90340Y-53203D01*
X90062Y-53096D01*
X89763Y-53104D01*
X89524Y-53203D01*
X89472Y-53319D01*
X89932Y-53779D01*
X90392Y-53319D01*
X90392Y-53460D01*
X90003Y-53850D01*
X90463Y-54309D01*
X90579Y-54258D01*
X90686Y-53979D01*
X90686Y-56679D01*
X90678Y-56381D01*
X90579Y-56141D01*
X90463Y-56090D01*
X90392Y-56160D01*
X90392Y-56019D01*
X90392Y-54380D01*
X89932Y-53920D01*
X89861Y-53991D01*
X89861Y-53850D01*
X89402Y-53390D01*
X89285Y-53441D01*
X89179Y-53720D01*
X89186Y-54018D01*
X89285Y-54258D01*
X89402Y-54309D01*
X89861Y-53850D01*
X89861Y-53991D01*
X89472Y-54380D01*
X89524Y-54496D01*
X89803Y-54603D01*
X90101Y-54595D01*
X90340Y-54496D01*
X90392Y-54380D01*
X90392Y-56019D01*
X90340Y-55903D01*
X90062Y-55796D01*
X89763Y-55804D01*
X89524Y-55903D01*
X89472Y-56019D01*
X89932Y-56479D01*
X90392Y-56019D01*
X90392Y-56160D01*
X90003Y-56550D01*
X90463Y-57009D01*
X90579Y-56958D01*
X90686Y-56679D01*
X90686Y-59479D01*
X90678Y-59181D01*
X90579Y-58941D01*
X90463Y-58890D01*
X90392Y-58960D01*
X90392Y-58819D01*
X90392Y-57080D01*
X89932Y-56620D01*
X89861Y-56691D01*
X89861Y-56550D01*
X89402Y-56090D01*
X89285Y-56141D01*
X89179Y-56420D01*
X89186Y-56718D01*
X89285Y-56958D01*
X89402Y-57009D01*
X89861Y-56550D01*
X89861Y-56691D01*
X89472Y-57080D01*
X89524Y-57196D01*
X89803Y-57303D01*
X90101Y-57295D01*
X90340Y-57196D01*
X90392Y-57080D01*
X90392Y-58819D01*
X90340Y-58703D01*
X90062Y-58596D01*
X89763Y-58604D01*
X89524Y-58703D01*
X89472Y-58819D01*
X89932Y-59279D01*
X90392Y-58819D01*
X90392Y-58960D01*
X90003Y-59350D01*
X90463Y-59809D01*
X90579Y-59758D01*
X90686Y-59479D01*
X90686Y-72520D01*
X90636Y-72520D01*
X90636Y-68029D01*
X90636Y-65329D01*
X90628Y-65031D01*
X90529Y-64791D01*
X90413Y-64740D01*
X90392Y-64760D01*
X90392Y-59880D01*
X89932Y-59420D01*
X89861Y-59491D01*
X89861Y-59350D01*
X89402Y-58890D01*
X89285Y-58941D01*
X89179Y-59220D01*
X89186Y-59518D01*
X89285Y-59758D01*
X89402Y-59809D01*
X89861Y-59350D01*
X89861Y-59491D01*
X89472Y-59880D01*
X89524Y-59996D01*
X89803Y-60103D01*
X90101Y-60095D01*
X90340Y-59996D01*
X90392Y-59880D01*
X90392Y-64760D01*
X90342Y-64810D01*
X90342Y-64669D01*
X90290Y-64553D01*
X90012Y-64446D01*
X89713Y-64454D01*
X89474Y-64553D01*
X89422Y-64669D01*
X89882Y-65129D01*
X90342Y-64669D01*
X90342Y-64810D01*
X89953Y-65200D01*
X90413Y-65659D01*
X90529Y-65608D01*
X90636Y-65329D01*
X90636Y-68029D01*
X90628Y-67731D01*
X90529Y-67491D01*
X90413Y-67440D01*
X90342Y-67510D01*
X90342Y-67369D01*
X90342Y-65730D01*
X89882Y-65270D01*
X89811Y-65341D01*
X89811Y-65200D01*
X89352Y-64740D01*
X89235Y-64791D01*
X89129Y-65070D01*
X89136Y-65368D01*
X89235Y-65608D01*
X89352Y-65659D01*
X89811Y-65200D01*
X89811Y-65341D01*
X89422Y-65730D01*
X89474Y-65846D01*
X89753Y-65953D01*
X90051Y-65945D01*
X90290Y-65846D01*
X90342Y-65730D01*
X90342Y-67369D01*
X90290Y-67253D01*
X90012Y-67146D01*
X89713Y-67154D01*
X89474Y-67253D01*
X89422Y-67369D01*
X89882Y-67829D01*
X90342Y-67369D01*
X90342Y-67510D01*
X89953Y-67900D01*
X90413Y-68359D01*
X90529Y-68308D01*
X90636Y-68029D01*
X90636Y-72520D01*
X90342Y-72520D01*
X90342Y-68430D01*
X89882Y-67970D01*
X89811Y-68041D01*
X89811Y-67900D01*
X89352Y-67440D01*
X89235Y-67491D01*
X89129Y-67770D01*
X89136Y-68068D01*
X89235Y-68308D01*
X89352Y-68359D01*
X89811Y-67900D01*
X89811Y-68041D01*
X89422Y-68430D01*
X89474Y-68546D01*
X89753Y-68653D01*
X90051Y-68645D01*
X90290Y-68546D01*
X90342Y-68430D01*
X90342Y-72520D01*
X88517Y-72520D01*
X88517Y-59800D01*
X88517Y-58800D01*
X88517Y-57000D01*
X88517Y-56000D01*
X88517Y-54300D01*
X88517Y-53300D01*
X88517Y-51600D01*
X88517Y-50600D01*
X88479Y-50508D01*
X88409Y-50438D01*
X88317Y-50400D01*
X88217Y-50399D01*
X87230Y-50399D01*
X87230Y-49920D01*
X87169Y-49773D01*
X87056Y-49661D01*
X86909Y-49600D01*
X86750Y-49599D01*
X86603Y-49660D01*
X86491Y-49773D01*
X86430Y-49920D01*
X86429Y-50079D01*
X86490Y-50226D01*
X86603Y-50338D01*
X86750Y-50399D01*
X86909Y-50400D01*
X87056Y-50339D01*
X87168Y-50226D01*
X87229Y-50079D01*
X87230Y-49920D01*
X87230Y-50399D01*
X87217Y-50399D01*
X87125Y-50437D01*
X87055Y-50508D01*
X87017Y-50600D01*
X87017Y-50699D01*
X87017Y-51699D01*
X87055Y-51791D01*
X87125Y-51861D01*
X87217Y-51899D01*
X87316Y-51900D01*
X88316Y-51900D01*
X88408Y-51862D01*
X88479Y-51791D01*
X88517Y-51699D01*
X88517Y-51600D01*
X88517Y-53300D01*
X88479Y-53208D01*
X88409Y-53138D01*
X88317Y-53100D01*
X88217Y-53099D01*
X87230Y-53099D01*
X87230Y-52620D01*
X87169Y-52473D01*
X87056Y-52361D01*
X86909Y-52300D01*
X86750Y-52299D01*
X86690Y-52325D01*
X86690Y-52011D01*
X86710Y-51991D01*
X86774Y-51834D01*
X86775Y-51665D01*
X86710Y-51509D01*
X86591Y-51389D01*
X86434Y-51325D01*
X86265Y-51324D01*
X86109Y-51389D01*
X85989Y-51508D01*
X85925Y-51665D01*
X85924Y-51834D01*
X85989Y-51990D01*
X85990Y-51990D01*
X85990Y-52805D01*
X85655Y-53140D01*
X83371Y-53140D01*
X83361Y-53129D01*
X83204Y-53065D01*
X83035Y-53064D01*
X82879Y-53129D01*
X82759Y-53248D01*
X82695Y-53405D01*
X82694Y-53574D01*
X82759Y-53730D01*
X82878Y-53850D01*
X83035Y-53914D01*
X83204Y-53915D01*
X83360Y-53850D01*
X83370Y-53840D01*
X85800Y-53840D01*
X85933Y-53813D01*
X85933Y-53813D01*
X86047Y-53737D01*
X86587Y-53197D01*
X86663Y-53083D01*
X86667Y-53065D01*
X86750Y-53099D01*
X86909Y-53100D01*
X87056Y-53039D01*
X87168Y-52926D01*
X87229Y-52779D01*
X87230Y-52620D01*
X87230Y-53099D01*
X87217Y-53099D01*
X87125Y-53137D01*
X87055Y-53208D01*
X87017Y-53300D01*
X87017Y-53399D01*
X87017Y-54399D01*
X87055Y-54491D01*
X87125Y-54561D01*
X87217Y-54599D01*
X87316Y-54600D01*
X88316Y-54600D01*
X88408Y-54562D01*
X88479Y-54491D01*
X88517Y-54399D01*
X88517Y-54300D01*
X88517Y-56000D01*
X88479Y-55908D01*
X88409Y-55838D01*
X88317Y-55800D01*
X88217Y-55799D01*
X87217Y-55799D01*
X87125Y-55837D01*
X87055Y-55908D01*
X87017Y-56000D01*
X87017Y-56099D01*
X87017Y-57099D01*
X87055Y-57191D01*
X87125Y-57261D01*
X87217Y-57299D01*
X87316Y-57300D01*
X88316Y-57300D01*
X88408Y-57262D01*
X88479Y-57191D01*
X88517Y-57099D01*
X88517Y-57000D01*
X88517Y-58800D01*
X88479Y-58708D01*
X88409Y-58638D01*
X88317Y-58600D01*
X88217Y-58599D01*
X87217Y-58599D01*
X87125Y-58637D01*
X87055Y-58708D01*
X87017Y-58800D01*
X87017Y-58899D01*
X87017Y-59899D01*
X87055Y-59991D01*
X87125Y-60061D01*
X87217Y-60099D01*
X87316Y-60100D01*
X88316Y-60100D01*
X88408Y-60062D01*
X88479Y-59991D01*
X88517Y-59899D01*
X88517Y-59800D01*
X88517Y-72520D01*
X88467Y-72520D01*
X88467Y-68350D01*
X88467Y-67350D01*
X88467Y-65650D01*
X88467Y-64650D01*
X88429Y-64558D01*
X88359Y-64488D01*
X88267Y-64450D01*
X88167Y-64449D01*
X87167Y-64449D01*
X87075Y-64487D01*
X87005Y-64558D01*
X86967Y-64650D01*
X86967Y-64749D01*
X86967Y-65749D01*
X87005Y-65841D01*
X87075Y-65911D01*
X87167Y-65949D01*
X87266Y-65950D01*
X88266Y-65950D01*
X88358Y-65912D01*
X88429Y-65841D01*
X88467Y-65749D01*
X88467Y-65650D01*
X88467Y-67350D01*
X88429Y-67258D01*
X88359Y-67188D01*
X88267Y-67150D01*
X88167Y-67149D01*
X87167Y-67149D01*
X87075Y-67187D01*
X87005Y-67258D01*
X86967Y-67350D01*
X86967Y-67449D01*
X86967Y-68449D01*
X87005Y-68541D01*
X87075Y-68611D01*
X87167Y-68649D01*
X87266Y-68650D01*
X88266Y-68650D01*
X88358Y-68612D01*
X88429Y-68541D01*
X88467Y-68449D01*
X88467Y-68350D01*
X88467Y-72520D01*
X83850Y-72520D01*
X83850Y-63620D01*
X83789Y-63473D01*
X83676Y-63361D01*
X83529Y-63300D01*
X83370Y-63299D01*
X83223Y-63360D01*
X83111Y-63473D01*
X83050Y-63620D01*
X83049Y-63779D01*
X83110Y-63926D01*
X83223Y-64038D01*
X83370Y-64099D01*
X83529Y-64100D01*
X83676Y-64039D01*
X83788Y-63926D01*
X83849Y-63779D01*
X83850Y-63620D01*
X83850Y-72520D01*
X82875Y-72520D01*
X82875Y-56865D01*
X82810Y-56709D01*
X82691Y-56589D01*
X82675Y-56583D01*
X82675Y-52165D01*
X82610Y-52009D01*
X82491Y-51889D01*
X82334Y-51825D01*
X82165Y-51824D01*
X82164Y-51825D01*
X82164Y-49309D01*
X82106Y-49169D01*
X82000Y-49062D01*
X81860Y-49004D01*
X81709Y-49004D01*
X81569Y-49062D01*
X81462Y-49168D01*
X81404Y-49308D01*
X81404Y-49459D01*
X81462Y-49599D01*
X81568Y-49706D01*
X81708Y-49764D01*
X81859Y-49764D01*
X81999Y-49706D01*
X82106Y-49600D01*
X82164Y-49460D01*
X82164Y-49309D01*
X82164Y-51825D01*
X82074Y-51862D01*
X82074Y-51262D01*
X82016Y-51123D01*
X81944Y-51050D01*
X81944Y-50072D01*
X81886Y-49933D01*
X81779Y-49826D01*
X81639Y-49768D01*
X81488Y-49767D01*
X81349Y-49825D01*
X81242Y-49932D01*
X81184Y-50072D01*
X81183Y-50223D01*
X81241Y-50362D01*
X81348Y-50469D01*
X81488Y-50527D01*
X81639Y-50528D01*
X81778Y-50470D01*
X81885Y-50363D01*
X81943Y-50223D01*
X81944Y-50072D01*
X81944Y-51050D01*
X81909Y-51016D01*
X81769Y-50958D01*
X81618Y-50957D01*
X81479Y-51015D01*
X81372Y-51122D01*
X81314Y-51262D01*
X81313Y-51413D01*
X81371Y-51552D01*
X81478Y-51659D01*
X81618Y-51717D01*
X81769Y-51718D01*
X81908Y-51660D01*
X82015Y-51553D01*
X82073Y-51413D01*
X82074Y-51262D01*
X82074Y-51862D01*
X82009Y-51889D01*
X81889Y-52008D01*
X81825Y-52165D01*
X81824Y-52334D01*
X81889Y-52490D01*
X82008Y-52610D01*
X82165Y-52674D01*
X82334Y-52675D01*
X82490Y-52610D01*
X82610Y-52491D01*
X82674Y-52334D01*
X82675Y-52165D01*
X82675Y-56583D01*
X82534Y-56525D01*
X82365Y-56524D01*
X82209Y-56589D01*
X82089Y-56708D01*
X82025Y-56865D01*
X82024Y-57034D01*
X82089Y-57190D01*
X82208Y-57310D01*
X82365Y-57374D01*
X82534Y-57375D01*
X82690Y-57310D01*
X82810Y-57191D01*
X82874Y-57034D01*
X82875Y-56865D01*
X82875Y-72520D01*
X82800Y-72520D01*
X82800Y-65095D01*
X82739Y-64948D01*
X82626Y-64836D01*
X82479Y-64775D01*
X82320Y-64774D01*
X82173Y-64835D01*
X82061Y-64948D01*
X82000Y-65095D01*
X81999Y-65254D01*
X82060Y-65401D01*
X82173Y-65513D01*
X82320Y-65574D01*
X82479Y-65575D01*
X82626Y-65514D01*
X82738Y-65401D01*
X82799Y-65254D01*
X82800Y-65095D01*
X82800Y-72520D01*
X82560Y-72520D01*
X82560Y-67290D01*
X82499Y-67143D01*
X82386Y-67031D01*
X82239Y-66970D01*
X82080Y-66969D01*
X81933Y-67030D01*
X81821Y-67143D01*
X81760Y-67290D01*
X81759Y-67449D01*
X81820Y-67596D01*
X81933Y-67708D01*
X82080Y-67769D01*
X82239Y-67770D01*
X82386Y-67709D01*
X82498Y-67596D01*
X82559Y-67449D01*
X82560Y-67290D01*
X82560Y-72520D01*
X81750Y-72520D01*
X81750Y-59420D01*
X81689Y-59273D01*
X81576Y-59161D01*
X81429Y-59100D01*
X81270Y-59099D01*
X81150Y-59149D01*
X81150Y-53270D01*
X81089Y-53123D01*
X80976Y-53011D01*
X80829Y-52950D01*
X80800Y-52950D01*
X80800Y-52370D01*
X80739Y-52223D01*
X80626Y-52111D01*
X80479Y-52050D01*
X80320Y-52049D01*
X80173Y-52110D01*
X80061Y-52223D01*
X80000Y-52370D01*
X79999Y-52529D01*
X80060Y-52676D01*
X80173Y-52788D01*
X80320Y-52849D01*
X80479Y-52850D01*
X80626Y-52789D01*
X80738Y-52676D01*
X80799Y-52529D01*
X80800Y-52370D01*
X80800Y-52950D01*
X80670Y-52949D01*
X80523Y-53010D01*
X80411Y-53123D01*
X80387Y-53179D01*
X80364Y-53123D01*
X80251Y-53011D01*
X80104Y-52950D01*
X79945Y-52949D01*
X79798Y-53010D01*
X79686Y-53123D01*
X79625Y-53270D01*
X79624Y-53429D01*
X79685Y-53576D01*
X79798Y-53688D01*
X79945Y-53749D01*
X80104Y-53750D01*
X80251Y-53689D01*
X80363Y-53576D01*
X80387Y-53520D01*
X80410Y-53576D01*
X80523Y-53688D01*
X80670Y-53749D01*
X80829Y-53750D01*
X80976Y-53689D01*
X81088Y-53576D01*
X81149Y-53429D01*
X81150Y-53270D01*
X81150Y-59149D01*
X81123Y-59160D01*
X81011Y-59273D01*
X80950Y-59420D01*
X80949Y-59579D01*
X81010Y-59726D01*
X81123Y-59838D01*
X81270Y-59899D01*
X81429Y-59900D01*
X81576Y-59839D01*
X81688Y-59726D01*
X81749Y-59579D01*
X81750Y-59420D01*
X81750Y-72520D01*
X81600Y-72520D01*
X81600Y-67370D01*
X81539Y-67223D01*
X81426Y-67111D01*
X81279Y-67050D01*
X81120Y-67049D01*
X80973Y-67110D01*
X80861Y-67223D01*
X80800Y-67370D01*
X80799Y-67529D01*
X80860Y-67676D01*
X80973Y-67788D01*
X81120Y-67849D01*
X81279Y-67850D01*
X81426Y-67789D01*
X81538Y-67676D01*
X81599Y-67529D01*
X81600Y-67370D01*
X81600Y-72520D01*
X79775Y-72520D01*
X79775Y-59420D01*
X79714Y-59273D01*
X79601Y-59161D01*
X79530Y-59131D01*
X79530Y-51074D01*
X79472Y-50935D01*
X79365Y-50828D01*
X79225Y-50770D01*
X79074Y-50769D01*
X78935Y-50827D01*
X78828Y-50934D01*
X78770Y-51074D01*
X78769Y-51225D01*
X78827Y-51364D01*
X78934Y-51471D01*
X79074Y-51529D01*
X79225Y-51530D01*
X79364Y-51472D01*
X79471Y-51365D01*
X79529Y-51225D01*
X79530Y-51074D01*
X79530Y-59131D01*
X79454Y-59100D01*
X79295Y-59099D01*
X79148Y-59160D01*
X79075Y-59234D01*
X79075Y-52215D01*
X79010Y-52059D01*
X78891Y-51939D01*
X78734Y-51875D01*
X78565Y-51874D01*
X78409Y-51939D01*
X78289Y-52058D01*
X78225Y-52215D01*
X78224Y-52384D01*
X78289Y-52540D01*
X78408Y-52660D01*
X78565Y-52724D01*
X78734Y-52725D01*
X78890Y-52660D01*
X79010Y-52541D01*
X79074Y-52384D01*
X79075Y-52215D01*
X79075Y-59234D01*
X79036Y-59273D01*
X78975Y-59420D01*
X78974Y-59579D01*
X79035Y-59726D01*
X79148Y-59838D01*
X79295Y-59899D01*
X79454Y-59900D01*
X79601Y-59839D01*
X79713Y-59726D01*
X79774Y-59579D01*
X79775Y-59420D01*
X79775Y-72520D01*
X79495Y-72520D01*
X79495Y-65221D01*
X79434Y-65074D01*
X79321Y-64962D01*
X79174Y-64901D01*
X79159Y-64901D01*
X79159Y-63627D01*
X79098Y-63480D01*
X78985Y-63368D01*
X78875Y-63322D01*
X78875Y-56765D01*
X78810Y-56609D01*
X78691Y-56489D01*
X78534Y-56425D01*
X78365Y-56424D01*
X78209Y-56489D01*
X78089Y-56608D01*
X78025Y-56765D01*
X78024Y-56934D01*
X78089Y-57090D01*
X78208Y-57210D01*
X78365Y-57274D01*
X78534Y-57275D01*
X78690Y-57210D01*
X78810Y-57091D01*
X78874Y-56934D01*
X78875Y-56765D01*
X78875Y-63322D01*
X78838Y-63307D01*
X78679Y-63306D01*
X78532Y-63367D01*
X78420Y-63480D01*
X78359Y-63627D01*
X78358Y-63786D01*
X78419Y-63933D01*
X78532Y-64045D01*
X78679Y-64106D01*
X78838Y-64107D01*
X78985Y-64046D01*
X79097Y-63933D01*
X79158Y-63786D01*
X79159Y-63627D01*
X79159Y-64901D01*
X79015Y-64900D01*
X78868Y-64961D01*
X78756Y-65074D01*
X78695Y-65221D01*
X78695Y-65221D01*
X78685Y-65221D01*
X78538Y-65282D01*
X78451Y-65370D01*
X78451Y-64696D01*
X78390Y-64549D01*
X78277Y-64437D01*
X78130Y-64376D01*
X77971Y-64375D01*
X77824Y-64436D01*
X77712Y-64549D01*
X77651Y-64696D01*
X77650Y-64855D01*
X77711Y-65002D01*
X77824Y-65114D01*
X77971Y-65175D01*
X78130Y-65176D01*
X78277Y-65115D01*
X78389Y-65002D01*
X78450Y-64855D01*
X78451Y-64696D01*
X78451Y-65370D01*
X78426Y-65395D01*
X78365Y-65542D01*
X78364Y-65701D01*
X78425Y-65848D01*
X78538Y-65960D01*
X78685Y-66021D01*
X78844Y-66022D01*
X78991Y-65961D01*
X79103Y-65848D01*
X79164Y-65701D01*
X79164Y-65701D01*
X79174Y-65701D01*
X79321Y-65640D01*
X79433Y-65527D01*
X79494Y-65380D01*
X79495Y-65221D01*
X79495Y-72520D01*
X78448Y-72520D01*
X78448Y-66262D01*
X78387Y-66115D01*
X78274Y-66003D01*
X78127Y-65942D01*
X77968Y-65941D01*
X77821Y-66002D01*
X77709Y-66115D01*
X77648Y-66262D01*
X77647Y-66421D01*
X77708Y-66568D01*
X77821Y-66680D01*
X77968Y-66741D01*
X78127Y-66742D01*
X78274Y-66681D01*
X78386Y-66568D01*
X78447Y-66421D01*
X78448Y-66262D01*
X78448Y-72520D01*
X77300Y-72520D01*
X77300Y-63820D01*
X77290Y-63796D01*
X77290Y-62220D01*
X77229Y-62073D01*
X77116Y-61961D01*
X76969Y-61900D01*
X76810Y-61899D01*
X76663Y-61960D01*
X76551Y-62073D01*
X76490Y-62220D01*
X76489Y-62379D01*
X76550Y-62526D01*
X76663Y-62638D01*
X76810Y-62699D01*
X76969Y-62700D01*
X77116Y-62639D01*
X77228Y-62526D01*
X77289Y-62379D01*
X77290Y-62220D01*
X77290Y-63796D01*
X77239Y-63673D01*
X77126Y-63561D01*
X76979Y-63500D01*
X76820Y-63499D01*
X76673Y-63560D01*
X76561Y-63673D01*
X76500Y-63820D01*
X76499Y-63979D01*
X76560Y-64126D01*
X76673Y-64238D01*
X76820Y-64299D01*
X76979Y-64300D01*
X77126Y-64239D01*
X77238Y-64126D01*
X77299Y-63979D01*
X77300Y-63820D01*
X77300Y-72520D01*
X71403Y-72520D01*
X71403Y-53196D01*
X71395Y-52898D01*
X71296Y-52659D01*
X71180Y-52607D01*
X71109Y-52678D01*
X71109Y-52536D01*
X71058Y-52420D01*
X70779Y-52313D01*
X70481Y-52321D01*
X70241Y-52420D01*
X70190Y-52536D01*
X70650Y-52996D01*
X71109Y-52536D01*
X71109Y-52678D01*
X70720Y-53067D01*
X71180Y-53527D01*
X71296Y-53475D01*
X71403Y-53196D01*
X71403Y-72520D01*
X71400Y-72520D01*
X71400Y-55683D01*
X71400Y-54683D01*
X71362Y-54591D01*
X71291Y-54520D01*
X71199Y-54482D01*
X71109Y-54482D01*
X71109Y-53597D01*
X70650Y-53138D01*
X70579Y-53208D01*
X70579Y-53067D01*
X70119Y-52607D01*
X70003Y-52659D01*
X69896Y-52937D01*
X69904Y-53236D01*
X70003Y-53475D01*
X70119Y-53527D01*
X70579Y-53067D01*
X70579Y-53208D01*
X70190Y-53597D01*
X70241Y-53714D01*
X70520Y-53820D01*
X70818Y-53813D01*
X71058Y-53714D01*
X71109Y-53597D01*
X71109Y-54482D01*
X71100Y-54482D01*
X70100Y-54482D01*
X70008Y-54520D01*
X69938Y-54590D01*
X69900Y-54682D01*
X69899Y-54782D01*
X69899Y-55782D01*
X69937Y-55874D01*
X70008Y-55944D01*
X70100Y-55982D01*
X70199Y-55982D01*
X71199Y-55982D01*
X71291Y-55944D01*
X71361Y-55874D01*
X71399Y-55782D01*
X71400Y-55683D01*
X71400Y-72520D01*
X69884Y-72520D01*
X69884Y-70172D01*
X69803Y-69976D01*
X69803Y-67913D01*
X69803Y-67012D01*
X69803Y-66913D01*
X69765Y-66821D01*
X69694Y-66750D01*
X69603Y-66712D01*
X69166Y-66712D01*
X69103Y-66775D01*
X69103Y-67412D01*
X69741Y-67412D01*
X69803Y-67350D01*
X69803Y-67012D01*
X69803Y-67913D01*
X69803Y-67575D01*
X69741Y-67512D01*
X69103Y-67512D01*
X69103Y-68150D01*
X69166Y-68212D01*
X69603Y-68213D01*
X69694Y-68175D01*
X69765Y-68104D01*
X69803Y-68012D01*
X69803Y-67913D01*
X69803Y-69976D01*
X69758Y-69867D01*
X69524Y-69633D01*
X69219Y-69506D01*
X69050Y-69506D01*
X69050Y-62870D01*
X68989Y-62723D01*
X68876Y-62611D01*
X68729Y-62550D01*
X68703Y-62550D01*
X68703Y-53196D01*
X68695Y-52898D01*
X68596Y-52659D01*
X68480Y-52607D01*
X68409Y-52678D01*
X68409Y-52536D01*
X68358Y-52420D01*
X68079Y-52313D01*
X67781Y-52321D01*
X67541Y-52420D01*
X67490Y-52536D01*
X67950Y-52996D01*
X68409Y-52536D01*
X68409Y-52678D01*
X68020Y-53067D01*
X68480Y-53527D01*
X68596Y-53475D01*
X68703Y-53196D01*
X68703Y-62550D01*
X68700Y-62550D01*
X68700Y-55683D01*
X68700Y-54683D01*
X68662Y-54591D01*
X68591Y-54520D01*
X68499Y-54482D01*
X68409Y-54482D01*
X68409Y-53597D01*
X67950Y-53138D01*
X67879Y-53208D01*
X67879Y-53067D01*
X67419Y-52607D01*
X67303Y-52659D01*
X67196Y-52937D01*
X67204Y-53236D01*
X67303Y-53475D01*
X67419Y-53527D01*
X67879Y-53067D01*
X67879Y-53208D01*
X67490Y-53597D01*
X67541Y-53714D01*
X67820Y-53820D01*
X68118Y-53813D01*
X68358Y-53714D01*
X68409Y-53597D01*
X68409Y-54482D01*
X68400Y-54482D01*
X67400Y-54482D01*
X67308Y-54520D01*
X67238Y-54590D01*
X67200Y-54682D01*
X67199Y-54782D01*
X67199Y-55782D01*
X67237Y-55874D01*
X67308Y-55944D01*
X67400Y-55982D01*
X67499Y-55982D01*
X68499Y-55982D01*
X68591Y-55944D01*
X68661Y-55874D01*
X68699Y-55782D01*
X68700Y-55683D01*
X68700Y-62550D01*
X68570Y-62549D01*
X68500Y-62579D01*
X68500Y-60529D01*
X66620Y-58650D01*
X66003Y-58650D01*
X66003Y-53196D01*
X65995Y-52898D01*
X65896Y-52659D01*
X65780Y-52607D01*
X65709Y-52678D01*
X65709Y-52536D01*
X65658Y-52420D01*
X65379Y-52313D01*
X65081Y-52321D01*
X64841Y-52420D01*
X64790Y-52536D01*
X65250Y-52996D01*
X65709Y-52536D01*
X65709Y-52678D01*
X65320Y-53067D01*
X65780Y-53527D01*
X65896Y-53475D01*
X66003Y-53196D01*
X66003Y-58650D01*
X66000Y-58650D01*
X66000Y-55683D01*
X66000Y-54683D01*
X65962Y-54591D01*
X65891Y-54520D01*
X65799Y-54482D01*
X65709Y-54482D01*
X65709Y-53597D01*
X65250Y-53138D01*
X65179Y-53208D01*
X65179Y-53067D01*
X64719Y-52607D01*
X64603Y-52659D01*
X64496Y-52937D01*
X64504Y-53236D01*
X64603Y-53475D01*
X64719Y-53527D01*
X65179Y-53067D01*
X65179Y-53208D01*
X64790Y-53597D01*
X64841Y-53714D01*
X65120Y-53820D01*
X65418Y-53813D01*
X65658Y-53714D01*
X65709Y-53597D01*
X65709Y-54482D01*
X65700Y-54482D01*
X64700Y-54482D01*
X64608Y-54520D01*
X64538Y-54590D01*
X64500Y-54682D01*
X64499Y-54782D01*
X64499Y-55782D01*
X64537Y-55874D01*
X64608Y-55944D01*
X64700Y-55982D01*
X64799Y-55982D01*
X65799Y-55982D01*
X65891Y-55944D01*
X65961Y-55874D01*
X65999Y-55782D01*
X66000Y-55683D01*
X66000Y-58650D01*
X65120Y-58650D01*
X64220Y-57750D01*
X63303Y-57750D01*
X63303Y-53196D01*
X63295Y-52898D01*
X63196Y-52659D01*
X63080Y-52607D01*
X63009Y-52678D01*
X63009Y-52536D01*
X62958Y-52420D01*
X62679Y-52313D01*
X62381Y-52321D01*
X62141Y-52420D01*
X62090Y-52536D01*
X62550Y-52996D01*
X63009Y-52536D01*
X63009Y-52678D01*
X62620Y-53067D01*
X63080Y-53527D01*
X63196Y-53475D01*
X63303Y-53196D01*
X63303Y-57750D01*
X63300Y-57750D01*
X63300Y-55683D01*
X63300Y-54683D01*
X63262Y-54591D01*
X63191Y-54520D01*
X63099Y-54482D01*
X63009Y-54482D01*
X63009Y-53597D01*
X62550Y-53138D01*
X62479Y-53208D01*
X62479Y-53067D01*
X62019Y-52607D01*
X61903Y-52659D01*
X61796Y-52937D01*
X61804Y-53236D01*
X61903Y-53475D01*
X62019Y-53527D01*
X62479Y-53067D01*
X62479Y-53208D01*
X62090Y-53597D01*
X62141Y-53714D01*
X62420Y-53820D01*
X62718Y-53813D01*
X62958Y-53714D01*
X63009Y-53597D01*
X63009Y-54482D01*
X63000Y-54482D01*
X62000Y-54482D01*
X61908Y-54520D01*
X61838Y-54590D01*
X61800Y-54682D01*
X61799Y-54782D01*
X61799Y-55782D01*
X61837Y-55874D01*
X61908Y-55944D01*
X62000Y-55982D01*
X62099Y-55982D01*
X63099Y-55982D01*
X63191Y-55944D01*
X63261Y-55874D01*
X63299Y-55782D01*
X63300Y-55683D01*
X63300Y-57750D01*
X60029Y-57750D01*
X59550Y-58229D01*
X59550Y-60920D01*
X60129Y-61500D01*
X63679Y-61500D01*
X63950Y-61770D01*
X63950Y-66020D01*
X64579Y-66650D01*
X65929Y-66650D01*
X66060Y-66781D01*
X65896Y-66713D01*
X65597Y-66712D01*
X65322Y-66826D01*
X65111Y-67037D01*
X64996Y-67313D01*
X64996Y-67611D01*
X65110Y-67887D01*
X65321Y-68098D01*
X65596Y-68212D01*
X65894Y-68213D01*
X66170Y-68099D01*
X66200Y-68069D01*
X66200Y-68920D01*
X66579Y-69300D01*
X68120Y-69300D01*
X68500Y-68920D01*
X68500Y-68211D01*
X68504Y-68213D01*
X68941Y-68212D01*
X69003Y-68150D01*
X69003Y-67512D01*
X68995Y-67512D01*
X68995Y-67412D01*
X69003Y-67412D01*
X69003Y-66775D01*
X68941Y-66712D01*
X68504Y-66712D01*
X68500Y-66714D01*
X68500Y-63320D01*
X68570Y-63349D01*
X68729Y-63350D01*
X68876Y-63289D01*
X68988Y-63176D01*
X69049Y-63029D01*
X69050Y-62870D01*
X69050Y-69506D01*
X68889Y-69506D01*
X68583Y-69632D01*
X68500Y-69715D01*
X68349Y-69865D01*
X68222Y-70171D01*
X68222Y-70501D01*
X68348Y-70806D01*
X68500Y-70958D01*
X68582Y-71040D01*
X68887Y-71167D01*
X69218Y-71167D01*
X69523Y-71041D01*
X69757Y-70808D01*
X69884Y-70502D01*
X69884Y-70172D01*
X69884Y-72520D01*
X68500Y-72520D01*
X66577Y-72520D01*
X66577Y-70172D01*
X66451Y-69867D01*
X66217Y-69633D01*
X65912Y-69506D01*
X65581Y-69506D01*
X65276Y-69632D01*
X65042Y-69865D01*
X64915Y-70171D01*
X64915Y-70501D01*
X65041Y-70806D01*
X65275Y-71040D01*
X65580Y-71167D01*
X65910Y-71167D01*
X66216Y-71041D01*
X66450Y-70808D01*
X66577Y-70502D01*
X66577Y-70172D01*
X66577Y-72520D01*
X60550Y-72520D01*
X60744Y-72440D01*
X61039Y-72145D01*
X61199Y-71759D01*
X61200Y-71342D01*
X61040Y-70956D01*
X60745Y-70660D01*
X60359Y-70500D01*
X59942Y-70499D01*
X59556Y-70659D01*
X59260Y-70954D01*
X59179Y-71149D01*
X59179Y-49150D01*
X59259Y-49344D01*
X59554Y-49639D01*
X59940Y-49799D01*
X60357Y-49800D01*
X60744Y-49640D01*
X61039Y-49345D01*
X61199Y-48959D01*
X61200Y-48542D01*
X61040Y-48156D01*
X60745Y-47860D01*
X60550Y-47779D01*
X93749Y-47779D01*
X93556Y-47859D01*
X93260Y-48154D01*
X93100Y-48540D01*
X93099Y-48957D01*
X93259Y-49344D01*
X93554Y-49639D01*
X93940Y-49799D01*
X94357Y-49800D01*
X94744Y-49640D01*
X95039Y-49345D01*
X95120Y-49150D01*
X95120Y-71149D01*
X95120Y-71149D01*
G37*
G54D18*
X95120Y-71149D02*
X95040Y-70956D01*
X94745Y-70660D01*
X94359Y-70500D01*
X93942Y-70499D01*
X93556Y-70659D01*
X93260Y-70954D01*
X93100Y-71340D01*
X93099Y-71757D01*
X93259Y-72144D01*
X93554Y-72439D01*
X93749Y-72520D01*
X90686Y-72520D01*
X90686Y-59479D01*
X90686Y-56679D01*
X90686Y-53979D01*
X90686Y-51279D01*
X90678Y-50981D01*
X90579Y-50741D01*
X90463Y-50690D01*
X90392Y-50760D01*
X90392Y-50619D01*
X90340Y-50503D01*
X90062Y-50396D01*
X89763Y-50404D01*
X89524Y-50503D01*
X89472Y-50619D01*
X89932Y-51079D01*
X90392Y-50619D01*
X90392Y-50760D01*
X90003Y-51150D01*
X90463Y-51609D01*
X90579Y-51558D01*
X90686Y-51279D01*
X90686Y-53979D01*
X90678Y-53681D01*
X90579Y-53441D01*
X90463Y-53390D01*
X90392Y-53460D01*
X90392Y-53319D01*
X90392Y-51680D01*
X89932Y-51220D01*
X89861Y-51291D01*
X89861Y-51150D01*
X89402Y-50690D01*
X89285Y-50741D01*
X89179Y-51020D01*
X89186Y-51318D01*
X89285Y-51558D01*
X89402Y-51609D01*
X89861Y-51150D01*
X89861Y-51291D01*
X89472Y-51680D01*
X89524Y-51796D01*
X89803Y-51903D01*
X90101Y-51895D01*
X90340Y-51796D01*
X90392Y-51680D01*
X90392Y-53319D01*
X90340Y-53203D01*
X90062Y-53096D01*
X89763Y-53104D01*
X89524Y-53203D01*
X89472Y-53319D01*
X89932Y-53779D01*
X90392Y-53319D01*
X90392Y-53460D01*
X90003Y-53850D01*
X90463Y-54309D01*
X90579Y-54258D01*
X90686Y-53979D01*
X90686Y-56679D01*
X90678Y-56381D01*
X90579Y-56141D01*
X90463Y-56090D01*
X90392Y-56160D01*
X90392Y-56019D01*
X90392Y-54380D01*
X89932Y-53920D01*
X89861Y-53991D01*
X89861Y-53850D01*
X89402Y-53390D01*
X89285Y-53441D01*
X89179Y-53720D01*
X89186Y-54018D01*
X89285Y-54258D01*
X89402Y-54309D01*
X89861Y-53850D01*
X89861Y-53991D01*
X89472Y-54380D01*
X89524Y-54496D01*
X89803Y-54603D01*
X90101Y-54595D01*
X90340Y-54496D01*
X90392Y-54380D01*
X90392Y-56019D01*
X90340Y-55903D01*
X90062Y-55796D01*
X89763Y-55804D01*
X89524Y-55903D01*
X89472Y-56019D01*
X89932Y-56479D01*
X90392Y-56019D01*
X90392Y-56160D01*
X90003Y-56550D01*
X90463Y-57009D01*
X90579Y-56958D01*
X90686Y-56679D01*
X90686Y-59479D01*
X90678Y-59181D01*
X90579Y-58941D01*
X90463Y-58890D01*
X90392Y-58960D01*
X90392Y-58819D01*
X90392Y-57080D01*
X89932Y-56620D01*
X89861Y-56691D01*
X89861Y-56550D01*
X89402Y-56090D01*
X89285Y-56141D01*
X89179Y-56420D01*
X89186Y-56718D01*
X89285Y-56958D01*
X89402Y-57009D01*
X89861Y-56550D01*
X89861Y-56691D01*
X89472Y-57080D01*
X89524Y-57196D01*
X89803Y-57303D01*
X90101Y-57295D01*
X90340Y-57196D01*
X90392Y-57080D01*
X90392Y-58819D01*
X90340Y-58703D01*
X90062Y-58596D01*
X89763Y-58604D01*
X89524Y-58703D01*
X89472Y-58819D01*
X89932Y-59279D01*
X90392Y-58819D01*
X90392Y-58960D01*
X90003Y-59350D01*
X90463Y-59809D01*
X90579Y-59758D01*
X90686Y-59479D01*
X90686Y-72520D01*
X90636Y-72520D01*
X90636Y-68029D01*
X90636Y-65329D01*
X90628Y-65031D01*
X90529Y-64791D01*
X90413Y-64740D01*
X90392Y-64760D01*
X90392Y-59880D01*
X89932Y-59420D01*
X89861Y-59491D01*
X89861Y-59350D01*
X89402Y-58890D01*
X89285Y-58941D01*
X89179Y-59220D01*
X89186Y-59518D01*
X89285Y-59758D01*
X89402Y-59809D01*
X89861Y-59350D01*
X89861Y-59491D01*
X89472Y-59880D01*
X89524Y-59996D01*
X89803Y-60103D01*
X90101Y-60095D01*
X90340Y-59996D01*
X90392Y-59880D01*
X90392Y-64760D01*
X90342Y-64810D01*
X90342Y-64669D01*
X90290Y-64553D01*
X90012Y-64446D01*
X89713Y-64454D01*
X89474Y-64553D01*
X89422Y-64669D01*
X89882Y-65129D01*
X90342Y-64669D01*
X90342Y-64810D01*
X89953Y-65200D01*
X90413Y-65659D01*
X90529Y-65608D01*
X90636Y-65329D01*
X90636Y-68029D01*
X90628Y-67731D01*
X90529Y-67491D01*
X90413Y-67440D01*
X90342Y-67510D01*
X90342Y-67369D01*
X90342Y-65730D01*
X89882Y-65270D01*
X89811Y-65341D01*
X89811Y-65200D01*
X89352Y-64740D01*
X89235Y-64791D01*
X89129Y-65070D01*
X89136Y-65368D01*
X89235Y-65608D01*
X89352Y-65659D01*
X89811Y-65200D01*
X89811Y-65341D01*
X89422Y-65730D01*
X89474Y-65846D01*
X89753Y-65953D01*
X90051Y-65945D01*
X90290Y-65846D01*
X90342Y-65730D01*
X90342Y-67369D01*
X90290Y-67253D01*
X90012Y-67146D01*
X89713Y-67154D01*
X89474Y-67253D01*
X89422Y-67369D01*
X89882Y-67829D01*
X90342Y-67369D01*
X90342Y-67510D01*
X89953Y-67900D01*
X90413Y-68359D01*
X90529Y-68308D01*
X90636Y-68029D01*
X90636Y-72520D01*
X90342Y-72520D01*
X90342Y-68430D01*
X89882Y-67970D01*
X89811Y-68041D01*
X89811Y-67900D01*
X89352Y-67440D01*
X89235Y-67491D01*
X89129Y-67770D01*
X89136Y-68068D01*
X89235Y-68308D01*
X89352Y-68359D01*
X89811Y-67900D01*
X89811Y-68041D01*
X89422Y-68430D01*
X89474Y-68546D01*
X89753Y-68653D01*
X90051Y-68645D01*
X90290Y-68546D01*
X90342Y-68430D01*
X90342Y-72520D01*
X88517Y-72520D01*
X88517Y-59800D01*
X88517Y-58800D01*
X88517Y-57000D01*
X88517Y-56000D01*
X88517Y-54300D01*
X88517Y-53300D01*
X88517Y-51600D01*
X88517Y-50600D01*
X88479Y-50508D01*
X88409Y-50438D01*
X88317Y-50400D01*
X88217Y-50399D01*
X87230Y-50399D01*
X87230Y-49920D01*
X87169Y-49773D01*
X87056Y-49661D01*
X86909Y-49600D01*
X86750Y-49599D01*
X86603Y-49660D01*
X86491Y-49773D01*
X86430Y-49920D01*
X86429Y-50079D01*
X86490Y-50226D01*
X86603Y-50338D01*
X86750Y-50399D01*
X86909Y-50400D01*
X87056Y-50339D01*
X87168Y-50226D01*
X87229Y-50079D01*
X87230Y-49920D01*
X87230Y-50399D01*
X87217Y-50399D01*
X87125Y-50437D01*
X87055Y-50508D01*
X87017Y-50600D01*
X87017Y-50699D01*
X87017Y-51699D01*
X87055Y-51791D01*
X87125Y-51861D01*
X87217Y-51899D01*
X87316Y-51900D01*
X88316Y-51900D01*
X88408Y-51862D01*
X88479Y-51791D01*
X88517Y-51699D01*
X88517Y-51600D01*
X88517Y-53300D01*
X88479Y-53208D01*
X88409Y-53138D01*
X88317Y-53100D01*
X88217Y-53099D01*
X87230Y-53099D01*
X87230Y-52620D01*
X87169Y-52473D01*
X87056Y-52361D01*
X86909Y-52300D01*
X86750Y-52299D01*
X86690Y-52325D01*
X86690Y-52011D01*
X86710Y-51991D01*
X86774Y-51834D01*
X86775Y-51665D01*
X86710Y-51509D01*
X86591Y-51389D01*
X86434Y-51325D01*
X86265Y-51324D01*
X86109Y-51389D01*
X85989Y-51508D01*
X85925Y-51665D01*
X85924Y-51834D01*
X85989Y-51990D01*
X85990Y-51990D01*
X85990Y-52805D01*
X85655Y-53140D01*
X83371Y-53140D01*
X83361Y-53129D01*
X83204Y-53065D01*
X83035Y-53064D01*
X82879Y-53129D01*
X82759Y-53248D01*
X82695Y-53405D01*
X82694Y-53574D01*
X82759Y-53730D01*
X82878Y-53850D01*
X83035Y-53914D01*
X83204Y-53915D01*
X83360Y-53850D01*
X83370Y-53840D01*
X85800Y-53840D01*
X85933Y-53813D01*
X85933Y-53813D01*
X86047Y-53737D01*
X86587Y-53197D01*
X86663Y-53083D01*
X86667Y-53065D01*
X86750Y-53099D01*
X86909Y-53100D01*
X87056Y-53039D01*
X87168Y-52926D01*
X87229Y-52779D01*
X87230Y-52620D01*
X87230Y-53099D01*
X87217Y-53099D01*
X87125Y-53137D01*
X87055Y-53208D01*
X87017Y-53300D01*
X87017Y-53399D01*
X87017Y-54399D01*
X87055Y-54491D01*
X87125Y-54561D01*
X87217Y-54599D01*
X87316Y-54600D01*
X88316Y-54600D01*
X88408Y-54562D01*
X88479Y-54491D01*
X88517Y-54399D01*
X88517Y-54300D01*
X88517Y-56000D01*
X88479Y-55908D01*
X88409Y-55838D01*
X88317Y-55800D01*
X88217Y-55799D01*
X87217Y-55799D01*
X87125Y-55837D01*
X87055Y-55908D01*
X87017Y-56000D01*
X87017Y-56099D01*
X87017Y-57099D01*
X87055Y-57191D01*
X87125Y-57261D01*
X87217Y-57299D01*
X87316Y-57300D01*
X88316Y-57300D01*
X88408Y-57262D01*
X88479Y-57191D01*
X88517Y-57099D01*
X88517Y-57000D01*
X88517Y-58800D01*
X88479Y-58708D01*
X88409Y-58638D01*
X88317Y-58600D01*
X88217Y-58599D01*
X87217Y-58599D01*
X87125Y-58637D01*
X87055Y-58708D01*
X87017Y-58800D01*
X87017Y-58899D01*
X87017Y-59899D01*
X87055Y-59991D01*
X87125Y-60061D01*
X87217Y-60099D01*
X87316Y-60100D01*
X88316Y-60100D01*
X88408Y-60062D01*
X88479Y-59991D01*
X88517Y-59899D01*
X88517Y-59800D01*
X88517Y-72520D01*
X88467Y-72520D01*
X88467Y-68350D01*
X88467Y-67350D01*
X88467Y-65650D01*
X88467Y-64650D01*
X88429Y-64558D01*
X88359Y-64488D01*
X88267Y-64450D01*
X88167Y-64449D01*
X87167Y-64449D01*
X87075Y-64487D01*
X87005Y-64558D01*
X86967Y-64650D01*
X86967Y-64749D01*
X86967Y-65749D01*
X87005Y-65841D01*
X87075Y-65911D01*
X87167Y-65949D01*
X87266Y-65950D01*
X88266Y-65950D01*
X88358Y-65912D01*
X88429Y-65841D01*
X88467Y-65749D01*
X88467Y-65650D01*
X88467Y-67350D01*
X88429Y-67258D01*
X88359Y-67188D01*
X88267Y-67150D01*
X88167Y-67149D01*
X87167Y-67149D01*
X87075Y-67187D01*
X87005Y-67258D01*
X86967Y-67350D01*
X86967Y-67449D01*
X86967Y-68449D01*
X87005Y-68541D01*
X87075Y-68611D01*
X87167Y-68649D01*
X87266Y-68650D01*
X88266Y-68650D01*
X88358Y-68612D01*
X88429Y-68541D01*
X88467Y-68449D01*
X88467Y-68350D01*
X88467Y-72520D01*
X83850Y-72520D01*
X83850Y-63620D01*
X83789Y-63473D01*
X83676Y-63361D01*
X83529Y-63300D01*
X83370Y-63299D01*
X83223Y-63360D01*
X83111Y-63473D01*
X83050Y-63620D01*
X83049Y-63779D01*
X83110Y-63926D01*
X83223Y-64038D01*
X83370Y-64099D01*
X83529Y-64100D01*
X83676Y-64039D01*
X83788Y-63926D01*
X83849Y-63779D01*
X83850Y-63620D01*
X83850Y-72520D01*
X82875Y-72520D01*
X82875Y-56865D01*
X82810Y-56709D01*
X82691Y-56589D01*
X82675Y-56583D01*
X82675Y-52165D01*
X82610Y-52009D01*
X82491Y-51889D01*
X82334Y-51825D01*
X82165Y-51824D01*
X82164Y-51825D01*
X82164Y-49309D01*
X82106Y-49169D01*
X82000Y-49062D01*
X81860Y-49004D01*
X81709Y-49004D01*
X81569Y-49062D01*
X81462Y-49168D01*
X81404Y-49308D01*
X81404Y-49459D01*
X81462Y-49599D01*
X81568Y-49706D01*
X81708Y-49764D01*
X81859Y-49764D01*
X81999Y-49706D01*
X82106Y-49600D01*
X82164Y-49460D01*
X82164Y-49309D01*
X82164Y-51825D01*
X82074Y-51862D01*
X82074Y-51262D01*
X82016Y-51123D01*
X81944Y-51050D01*
X81944Y-50072D01*
X81886Y-49933D01*
X81779Y-49826D01*
X81639Y-49768D01*
X81488Y-49767D01*
X81349Y-49825D01*
X81242Y-49932D01*
X81184Y-50072D01*
X81183Y-50223D01*
X81241Y-50362D01*
X81348Y-50469D01*
X81488Y-50527D01*
X81639Y-50528D01*
X81778Y-50470D01*
X81885Y-50363D01*
X81943Y-50223D01*
X81944Y-50072D01*
X81944Y-51050D01*
X81909Y-51016D01*
X81769Y-50958D01*
X81618Y-50957D01*
X81479Y-51015D01*
X81372Y-51122D01*
X81314Y-51262D01*
X81313Y-51413D01*
X81371Y-51552D01*
X81478Y-51659D01*
X81618Y-51717D01*
X81769Y-51718D01*
X81908Y-51660D01*
X82015Y-51553D01*
X82073Y-51413D01*
X82074Y-51262D01*
X82074Y-51862D01*
X82009Y-51889D01*
X81889Y-52008D01*
X81825Y-52165D01*
X81824Y-52334D01*
X81889Y-52490D01*
X82008Y-52610D01*
X82165Y-52674D01*
X82334Y-52675D01*
X82490Y-52610D01*
X82610Y-52491D01*
X82674Y-52334D01*
X82675Y-52165D01*
X82675Y-56583D01*
X82534Y-56525D01*
X82365Y-56524D01*
X82209Y-56589D01*
X82089Y-56708D01*
X82025Y-56865D01*
X82024Y-57034D01*
X82089Y-57190D01*
X82208Y-57310D01*
X82365Y-57374D01*
X82534Y-57375D01*
X82690Y-57310D01*
X82810Y-57191D01*
X82874Y-57034D01*
X82875Y-56865D01*
X82875Y-72520D01*
X82800Y-72520D01*
X82800Y-65095D01*
X82739Y-64948D01*
X82626Y-64836D01*
X82479Y-64775D01*
X82320Y-64774D01*
X82173Y-64835D01*
X82061Y-64948D01*
X82000Y-65095D01*
X81999Y-65254D01*
X82060Y-65401D01*
X82173Y-65513D01*
X82320Y-65574D01*
X82479Y-65575D01*
X82626Y-65514D01*
X82738Y-65401D01*
X82799Y-65254D01*
X82800Y-65095D01*
X82800Y-72520D01*
X82560Y-72520D01*
X82560Y-67290D01*
X82499Y-67143D01*
X82386Y-67031D01*
X82239Y-66970D01*
X82080Y-66969D01*
X81933Y-67030D01*
X81821Y-67143D01*
X81760Y-67290D01*
X81759Y-67449D01*
X81820Y-67596D01*
X81933Y-67708D01*
X82080Y-67769D01*
X82239Y-67770D01*
X82386Y-67709D01*
X82498Y-67596D01*
X82559Y-67449D01*
X82560Y-67290D01*
X82560Y-72520D01*
X81750Y-72520D01*
X81750Y-59420D01*
X81689Y-59273D01*
X81576Y-59161D01*
X81429Y-59100D01*
X81270Y-59099D01*
X81150Y-59149D01*
X81150Y-53270D01*
X81089Y-53123D01*
X80976Y-53011D01*
X80829Y-52950D01*
X80800Y-52950D01*
X80800Y-52370D01*
X80739Y-52223D01*
X80626Y-52111D01*
X80479Y-52050D01*
X80320Y-52049D01*
X80173Y-52110D01*
X80061Y-52223D01*
X80000Y-52370D01*
X79999Y-52529D01*
X80060Y-52676D01*
X80173Y-52788D01*
X80320Y-52849D01*
X80479Y-52850D01*
X80626Y-52789D01*
X80738Y-52676D01*
X80799Y-52529D01*
X80800Y-52370D01*
X80800Y-52950D01*
X80670Y-52949D01*
X80523Y-53010D01*
X80411Y-53123D01*
X80387Y-53179D01*
X80364Y-53123D01*
X80251Y-53011D01*
X80104Y-52950D01*
X79945Y-52949D01*
X79798Y-53010D01*
X79686Y-53123D01*
X79625Y-53270D01*
X79624Y-53429D01*
X79685Y-53576D01*
X79798Y-53688D01*
X79945Y-53749D01*
X80104Y-53750D01*
X80251Y-53689D01*
X80363Y-53576D01*
X80387Y-53520D01*
X80410Y-53576D01*
X80523Y-53688D01*
X80670Y-53749D01*
X80829Y-53750D01*
X80976Y-53689D01*
X81088Y-53576D01*
X81149Y-53429D01*
X81150Y-53270D01*
X81150Y-59149D01*
X81123Y-59160D01*
X81011Y-59273D01*
X80950Y-59420D01*
X80949Y-59579D01*
X81010Y-59726D01*
X81123Y-59838D01*
X81270Y-59899D01*
X81429Y-59900D01*
X81576Y-59839D01*
X81688Y-59726D01*
X81749Y-59579D01*
X81750Y-59420D01*
X81750Y-72520D01*
X81600Y-72520D01*
X81600Y-67370D01*
X81539Y-67223D01*
X81426Y-67111D01*
X81279Y-67050D01*
X81120Y-67049D01*
X80973Y-67110D01*
X80861Y-67223D01*
X80800Y-67370D01*
X80799Y-67529D01*
X80860Y-67676D01*
X80973Y-67788D01*
X81120Y-67849D01*
X81279Y-67850D01*
X81426Y-67789D01*
X81538Y-67676D01*
X81599Y-67529D01*
X81600Y-67370D01*
X81600Y-72520D01*
X79775Y-72520D01*
X79775Y-59420D01*
X79714Y-59273D01*
X79601Y-59161D01*
X79530Y-59131D01*
X79530Y-51074D01*
X79472Y-50935D01*
X79365Y-50828D01*
X79225Y-50770D01*
X79074Y-50769D01*
X78935Y-50827D01*
X78828Y-50934D01*
X78770Y-51074D01*
X78769Y-51225D01*
X78827Y-51364D01*
X78934Y-51471D01*
X79074Y-51529D01*
X79225Y-51530D01*
X79364Y-51472D01*
X79471Y-51365D01*
X79529Y-51225D01*
X79530Y-51074D01*
X79530Y-59131D01*
X79454Y-59100D01*
X79295Y-59099D01*
X79148Y-59160D01*
X79075Y-59234D01*
X79075Y-52215D01*
X79010Y-52059D01*
X78891Y-51939D01*
X78734Y-51875D01*
X78565Y-51874D01*
X78409Y-51939D01*
X78289Y-52058D01*
X78225Y-52215D01*
X78224Y-52384D01*
X78289Y-52540D01*
X78408Y-52660D01*
X78565Y-52724D01*
X78734Y-52725D01*
X78890Y-52660D01*
X79010Y-52541D01*
X79074Y-52384D01*
X79075Y-52215D01*
X79075Y-59234D01*
X79036Y-59273D01*
X78975Y-59420D01*
X78974Y-59579D01*
X79035Y-59726D01*
X79148Y-59838D01*
X79295Y-59899D01*
X79454Y-59900D01*
X79601Y-59839D01*
X79713Y-59726D01*
X79774Y-59579D01*
X79775Y-59420D01*
X79775Y-72520D01*
X79495Y-72520D01*
X79495Y-65221D01*
X79434Y-65074D01*
X79321Y-64962D01*
X79174Y-64901D01*
X79159Y-64901D01*
X79159Y-63627D01*
X79098Y-63480D01*
X78985Y-63368D01*
X78875Y-63322D01*
X78875Y-56765D01*
X78810Y-56609D01*
X78691Y-56489D01*
X78534Y-56425D01*
X78365Y-56424D01*
X78209Y-56489D01*
X78089Y-56608D01*
X78025Y-56765D01*
X78024Y-56934D01*
X78089Y-57090D01*
X78208Y-57210D01*
X78365Y-57274D01*
X78534Y-57275D01*
X78690Y-57210D01*
X78810Y-57091D01*
X78874Y-56934D01*
X78875Y-56765D01*
X78875Y-63322D01*
X78838Y-63307D01*
X78679Y-63306D01*
X78532Y-63367D01*
X78420Y-63480D01*
X78359Y-63627D01*
X78358Y-63786D01*
X78419Y-63933D01*
X78532Y-64045D01*
X78679Y-64106D01*
X78838Y-64107D01*
X78985Y-64046D01*
X79097Y-63933D01*
X79158Y-63786D01*
X79159Y-63627D01*
X79159Y-64901D01*
X79015Y-64900D01*
X78868Y-64961D01*
X78756Y-65074D01*
X78695Y-65221D01*
X78695Y-65221D01*
X78685Y-65221D01*
X78538Y-65282D01*
X78451Y-65370D01*
X78451Y-64696D01*
X78390Y-64549D01*
X78277Y-64437D01*
X78130Y-64376D01*
X77971Y-64375D01*
X77824Y-64436D01*
X77712Y-64549D01*
X77651Y-64696D01*
X77650Y-64855D01*
X77711Y-65002D01*
X77824Y-65114D01*
X77971Y-65175D01*
X78130Y-65176D01*
X78277Y-65115D01*
X78389Y-65002D01*
X78450Y-64855D01*
X78451Y-64696D01*
X78451Y-65370D01*
X78426Y-65395D01*
X78365Y-65542D01*
X78364Y-65701D01*
X78425Y-65848D01*
X78538Y-65960D01*
X78685Y-66021D01*
X78844Y-66022D01*
X78991Y-65961D01*
X79103Y-65848D01*
X79164Y-65701D01*
X79164Y-65701D01*
X79174Y-65701D01*
X79321Y-65640D01*
X79433Y-65527D01*
X79494Y-65380D01*
X79495Y-65221D01*
X79495Y-72520D01*
X78448Y-72520D01*
X78448Y-66262D01*
X78387Y-66115D01*
X78274Y-66003D01*
X78127Y-65942D01*
X77968Y-65941D01*
X77821Y-66002D01*
X77709Y-66115D01*
X77648Y-66262D01*
X77647Y-66421D01*
X77708Y-66568D01*
X77821Y-66680D01*
X77968Y-66741D01*
X78127Y-66742D01*
X78274Y-66681D01*
X78386Y-66568D01*
X78447Y-66421D01*
X78448Y-66262D01*
X78448Y-72520D01*
X77300Y-72520D01*
X77300Y-63820D01*
X77290Y-63796D01*
X77290Y-62220D01*
X77229Y-62073D01*
X77116Y-61961D01*
X76969Y-61900D01*
X76810Y-61899D01*
X76663Y-61960D01*
X76551Y-62073D01*
X76490Y-62220D01*
X76489Y-62379D01*
X76550Y-62526D01*
X76663Y-62638D01*
X76810Y-62699D01*
X76969Y-62700D01*
X77116Y-62639D01*
X77228Y-62526D01*
X77289Y-62379D01*
X77290Y-62220D01*
X77290Y-63796D01*
X77239Y-63673D01*
X77126Y-63561D01*
X76979Y-63500D01*
X76820Y-63499D01*
X76673Y-63560D01*
X76561Y-63673D01*
X76500Y-63820D01*
X76499Y-63979D01*
X76560Y-64126D01*
X76673Y-64238D01*
X76820Y-64299D01*
X76979Y-64300D01*
X77126Y-64239D01*
X77238Y-64126D01*
X77299Y-63979D01*
X77300Y-63820D01*
X77300Y-72520D01*
X71403Y-72520D01*
X71403Y-53196D01*
X71395Y-52898D01*
X71296Y-52659D01*
X71180Y-52607D01*
X71109Y-52678D01*
X71109Y-52536D01*
X71058Y-52420D01*
X70779Y-52313D01*
X70481Y-52321D01*
X70241Y-52420D01*
X70190Y-52536D01*
X70650Y-52996D01*
X71109Y-52536D01*
X71109Y-52678D01*
X70720Y-53067D01*
X71180Y-53527D01*
X71296Y-53475D01*
X71403Y-53196D01*
X71403Y-72520D01*
X71400Y-72520D01*
X71400Y-55683D01*
X71400Y-54683D01*
X71362Y-54591D01*
X71291Y-54520D01*
X71199Y-54482D01*
X71109Y-54482D01*
X71109Y-53597D01*
X70650Y-53138D01*
X70579Y-53208D01*
X70579Y-53067D01*
X70119Y-52607D01*
X70003Y-52659D01*
X69896Y-52937D01*
X69904Y-53236D01*
X70003Y-53475D01*
X70119Y-53527D01*
X70579Y-53067D01*
X70579Y-53208D01*
X70190Y-53597D01*
X70241Y-53714D01*
X70520Y-53820D01*
X70818Y-53813D01*
X71058Y-53714D01*
X71109Y-53597D01*
X71109Y-54482D01*
X71100Y-54482D01*
X70100Y-54482D01*
X70008Y-54520D01*
X69938Y-54590D01*
X69900Y-54682D01*
X69899Y-54782D01*
X69899Y-55782D01*
X69937Y-55874D01*
X70008Y-55944D01*
X70100Y-55982D01*
X70199Y-55982D01*
X71199Y-55982D01*
X71291Y-55944D01*
X71361Y-55874D01*
X71399Y-55782D01*
X71400Y-55683D01*
X71400Y-72520D01*
X69884Y-72520D01*
X69884Y-70172D01*
X69803Y-69976D01*
X69803Y-67913D01*
X69803Y-67012D01*
X69803Y-66913D01*
X69765Y-66821D01*
X69694Y-66750D01*
X69603Y-66712D01*
X69166Y-66712D01*
X69103Y-66775D01*
X69103Y-67412D01*
X69741Y-67412D01*
X69803Y-67350D01*
X69803Y-67012D01*
X69803Y-67913D01*
X69803Y-67575D01*
X69741Y-67512D01*
X69103Y-67512D01*
X69103Y-68150D01*
X69166Y-68212D01*
X69603Y-68213D01*
X69694Y-68175D01*
X69765Y-68104D01*
X69803Y-68012D01*
X69803Y-67913D01*
X69803Y-69976D01*
X69758Y-69867D01*
X69524Y-69633D01*
X69219Y-69506D01*
X69050Y-69506D01*
X69050Y-62870D01*
X68989Y-62723D01*
X68876Y-62611D01*
X68729Y-62550D01*
X68703Y-62550D01*
X68703Y-53196D01*
X68695Y-52898D01*
X68596Y-52659D01*
X68480Y-52607D01*
X68409Y-52678D01*
X68409Y-52536D01*
X68358Y-52420D01*
X68079Y-52313D01*
X67781Y-52321D01*
X67541Y-52420D01*
X67490Y-52536D01*
X67950Y-52996D01*
X68409Y-52536D01*
X68409Y-52678D01*
X68020Y-53067D01*
X68480Y-53527D01*
X68596Y-53475D01*
X68703Y-53196D01*
X68703Y-62550D01*
X68700Y-62550D01*
X68700Y-55683D01*
X68700Y-54683D01*
X68662Y-54591D01*
X68591Y-54520D01*
X68499Y-54482D01*
X68409Y-54482D01*
X68409Y-53597D01*
X67950Y-53138D01*
X67879Y-53208D01*
X67879Y-53067D01*
X67419Y-52607D01*
X67303Y-52659D01*
X67196Y-52937D01*
X67204Y-53236D01*
X67303Y-53475D01*
X67419Y-53527D01*
X67879Y-53067D01*
X67879Y-53208D01*
X67490Y-53597D01*
X67541Y-53714D01*
X67820Y-53820D01*
X68118Y-53813D01*
X68358Y-53714D01*
X68409Y-53597D01*
X68409Y-54482D01*
X68400Y-54482D01*
X67400Y-54482D01*
X67308Y-54520D01*
X67238Y-54590D01*
X67200Y-54682D01*
X67199Y-54782D01*
X67199Y-55782D01*
X67237Y-55874D01*
X67308Y-55944D01*
X67400Y-55982D01*
X67499Y-55982D01*
X68499Y-55982D01*
X68591Y-55944D01*
X68661Y-55874D01*
X68699Y-55782D01*
X68700Y-55683D01*
X68700Y-62550D01*
X68570Y-62549D01*
X68500Y-62579D01*
X68500Y-60529D01*
X66620Y-58650D01*
X66003Y-58650D01*
X66003Y-53196D01*
X65995Y-52898D01*
X65896Y-52659D01*
X65780Y-52607D01*
X65709Y-52678D01*
X65709Y-52536D01*
X65658Y-52420D01*
X65379Y-52313D01*
X65081Y-52321D01*
X64841Y-52420D01*
X64790Y-52536D01*
X65250Y-52996D01*
X65709Y-52536D01*
X65709Y-52678D01*
X65320Y-53067D01*
X65780Y-53527D01*
X65896Y-53475D01*
X66003Y-53196D01*
X66003Y-58650D01*
X66000Y-58650D01*
X66000Y-55683D01*
X66000Y-54683D01*
X65962Y-54591D01*
X65891Y-54520D01*
X65799Y-54482D01*
X65709Y-54482D01*
X65709Y-53597D01*
X65250Y-53138D01*
X65179Y-53208D01*
X65179Y-53067D01*
X64719Y-52607D01*
X64603Y-52659D01*
X64496Y-52937D01*
X64504Y-53236D01*
X64603Y-53475D01*
X64719Y-53527D01*
X65179Y-53067D01*
X65179Y-53208D01*
X64790Y-53597D01*
X64841Y-53714D01*
X65120Y-53820D01*
X65418Y-53813D01*
X65658Y-53714D01*
X65709Y-53597D01*
X65709Y-54482D01*
X65700Y-54482D01*
X64700Y-54482D01*
X64608Y-54520D01*
X64538Y-54590D01*
X64500Y-54682D01*
X64499Y-54782D01*
X64499Y-55782D01*
X64537Y-55874D01*
X64608Y-55944D01*
X64700Y-55982D01*
X64799Y-55982D01*
X65799Y-55982D01*
X65891Y-55944D01*
X65961Y-55874D01*
X65999Y-55782D01*
X66000Y-55683D01*
X66000Y-58650D01*
X65120Y-58650D01*
X64220Y-57750D01*
X63303Y-57750D01*
X63303Y-53196D01*
X63295Y-52898D01*
X63196Y-52659D01*
X63080Y-52607D01*
X63009Y-52678D01*
X63009Y-52536D01*
X62958Y-52420D01*
X62679Y-52313D01*
X62381Y-52321D01*
X62141Y-52420D01*
X62090Y-52536D01*
X62550Y-52996D01*
X63009Y-52536D01*
X63009Y-52678D01*
X62620Y-53067D01*
X63080Y-53527D01*
X63196Y-53475D01*
X63303Y-53196D01*
X63303Y-57750D01*
X63300Y-57750D01*
X63300Y-55683D01*
X63300Y-54683D01*
X63262Y-54591D01*
X63191Y-54520D01*
X63099Y-54482D01*
X63009Y-54482D01*
X63009Y-53597D01*
X62550Y-53138D01*
X62479Y-53208D01*
X62479Y-53067D01*
X62019Y-52607D01*
X61903Y-52659D01*
X61796Y-52937D01*
X61804Y-53236D01*
X61903Y-53475D01*
X62019Y-53527D01*
X62479Y-53067D01*
X62479Y-53208D01*
X62090Y-53597D01*
X62141Y-53714D01*
X62420Y-53820D01*
X62718Y-53813D01*
X62958Y-53714D01*
X63009Y-53597D01*
X63009Y-54482D01*
X63000Y-54482D01*
X62000Y-54482D01*
X61908Y-54520D01*
X61838Y-54590D01*
X61800Y-54682D01*
X61799Y-54782D01*
X61799Y-55782D01*
X61837Y-55874D01*
X61908Y-55944D01*
X62000Y-55982D01*
X62099Y-55982D01*
X63099Y-55982D01*
X63191Y-55944D01*
X63261Y-55874D01*
X63299Y-55782D01*
X63300Y-55683D01*
X63300Y-57750D01*
X60029Y-57750D01*
X59550Y-58229D01*
X59550Y-60920D01*
X60129Y-61500D01*
X63679Y-61500D01*
X63950Y-61770D01*
X63950Y-66020D01*
X64579Y-66650D01*
X65929Y-66650D01*
X66060Y-66781D01*
X65896Y-66713D01*
X65597Y-66712D01*
X65322Y-66826D01*
X65111Y-67037D01*
X64996Y-67313D01*
X64996Y-67611D01*
X65110Y-67887D01*
X65321Y-68098D01*
X65596Y-68212D01*
X65894Y-68213D01*
X66170Y-68099D01*
X66200Y-68069D01*
X66200Y-68920D01*
X66579Y-69300D01*
X68120Y-69300D01*
X68500Y-68920D01*
X68500Y-68211D01*
X68504Y-68213D01*
X68941Y-68212D01*
X69003Y-68150D01*
X69003Y-67512D01*
X68995Y-67512D01*
X68995Y-67412D01*
X69003Y-67412D01*
X69003Y-66775D01*
X68941Y-66712D01*
X68504Y-66712D01*
X68500Y-66714D01*
X68500Y-63320D01*
X68570Y-63349D01*
X68729Y-63350D01*
X68876Y-63289D01*
X68988Y-63176D01*
X69049Y-63029D01*
X69050Y-62870D01*
X69050Y-69506D01*
X68889Y-69506D01*
X68583Y-69632D01*
X68500Y-69715D01*
X68349Y-69865D01*
X68222Y-70171D01*
X68222Y-70501D01*
X68348Y-70806D01*
X68500Y-70958D01*
X68582Y-71040D01*
X68887Y-71167D01*
X69218Y-71167D01*
X69523Y-71041D01*
X69757Y-70808D01*
X69884Y-70502D01*
X69884Y-70172D01*
X69884Y-72520D01*
X68500Y-72520D01*
X66577Y-72520D01*
X66577Y-70172D01*
X66451Y-69867D01*
X66217Y-69633D01*
X65912Y-69506D01*
X65581Y-69506D01*
X65276Y-69632D01*
X65042Y-69865D01*
X64915Y-70171D01*
X64915Y-70501D01*
X65041Y-70806D01*
X65275Y-71040D01*
X65580Y-71167D01*
X65910Y-71167D01*
X66216Y-71041D01*
X66450Y-70808D01*
X66577Y-70502D01*
X66577Y-70172D01*
X66577Y-72520D01*
X60550Y-72520D01*
X60744Y-72440D01*
X61039Y-72145D01*
X61199Y-71759D01*
X61200Y-71342D01*
X61040Y-70956D01*
X60745Y-70660D01*
X60359Y-70500D01*
X59942Y-70499D01*
X59556Y-70659D01*
X59260Y-70954D01*
X59179Y-71149D01*
X59179Y-49150D01*
X59259Y-49344D01*
X59554Y-49639D01*
X59940Y-49799D01*
X60357Y-49800D01*
X60744Y-49640D01*
X61039Y-49345D01*
X61199Y-48959D01*
X61200Y-48542D01*
X61040Y-48156D01*
X60745Y-47860D01*
X60550Y-47779D01*
X93749Y-47779D01*
X93556Y-47859D01*
X93260Y-48154D01*
X93100Y-48540D01*
X93099Y-48957D01*
X93259Y-49344D01*
X93554Y-49639D01*
X93940Y-49799D01*
X94357Y-49800D01*
X94744Y-49640D01*
X95039Y-49345D01*
X95120Y-49150D01*
X95120Y-71149D01*
M02*
