M48
;DRILL file {Pcbnew (2013-05-31 BZR 4019)-stable} date 7/17/2013 12:30:09 AM
;FORMAT={2:4/ absolute / inch / keep zeros}
FMAT,2
INCH,TZ
T1C0.013
T2C0.015
T3C0.020
T4C0.070
T5C0.116
T6C0.120
%
G90
G05
M72
T1
X068650Y-062950
X076890Y-062300
X076900Y-063900
X079150Y-051150
X079375Y-059500
X080025Y-053350
X080400Y-052450
X080750Y-053350
X081200Y-067450
X081350Y-059500
X081564Y-050148
X081694Y-051338
X081784Y-049385
X082400Y-065175
X083450Y-063700
X086830Y-050000
X086830Y-052700
T2
X078048Y-066342
X078051Y-064776
X078759Y-063707
X078765Y-065622
X079095Y-065301
X082160Y-067370
T3
X060600Y-055900
X060900Y-058440
X060900Y-068100
X062124Y-060603
X062700Y-065300
X063301Y-060781
X063932Y-058500
X064900Y-063450
X065150Y-057000
X065514Y-061827
X065750Y-059301
X067100Y-066450
X068150Y-060200
X069150Y-057000
X069800Y-057150
X071100Y-066700
X072600Y-056850
X073450Y-049300
X074600Y-053900
X074900Y-069600
X075600Y-065450
X075800Y-053900
X076400Y-069600
X077900Y-054350
X077900Y-055650
X077950Y-062650
X078450Y-056850
X078650Y-052300
X079525Y-049800
X079700Y-048250
X079700Y-051400
X079700Y-052000
X080400Y-051400
X080400Y-052000
X080400Y-055275
X080400Y-067450
X080450Y-064750
X080450Y-065500
X080450Y-066250
X080750Y-063400
X080800Y-048250
X081050Y-051400
X081050Y-052000
X081678Y-063780
X082250Y-052250
X082250Y-062150
X082450Y-056950
X082900Y-054350
X082900Y-055650
X083100Y-051700
X083120Y-053490
X083600Y-049425
X083950Y-069250
X085000Y-053900
X085850Y-062150
X086200Y-053900
X086350Y-051750
X093100Y-070700
X093350Y-062150
T4
X062550Y-053067
X062550Y-055233
X065250Y-053067
X065250Y-055233
X065746Y-067463
X067400Y-067463
X067950Y-053067
X067950Y-055233
X069054Y-067463
X070650Y-053067
X070650Y-055233
X087717Y-065200
X087717Y-067900
X087767Y-051150
X087767Y-053850
X087767Y-056550
X087767Y-059350
X089883Y-065200
X089883Y-067900
X089933Y-051150
X089933Y-053850
X089933Y-056550
X089933Y-059350
T5
X065746Y-070337
X069054Y-070337
T6
X060150Y-048750
X060150Y-071550
X094150Y-048750
X094150Y-071550
T0
M30
