G04 (created by PCBNEW (2013-05-31 BZR 4019)-stable) date 7/17/2013 12:30:07 AM*
%MOIN*%
G04 Gerber Fmt 3.4, Leading zero omitted, Abs format*
%FSLAX34Y34*%
G01*
G70*
G90*
G04 APERTURE LIST*
%ADD10C,0.000787402*%
%ADD11R,0.0334646X0.0570866*%
%ADD12R,0.202756X0.123622*%
%ADD13R,0.0637795X0.0334646*%
%ADD14R,0.0570866X0.0334646*%
%ADD15R,0.123622X0.21063*%
%ADD16R,0.040748X0.065748*%
%ADD17R,0.165748X0.070748*%
%ADD18R,0.115748X0.065748*%
%ADD19R,0.095748X0.075748*%
%ADD20R,0.070748X0.050748*%
%ADD21R,0.050748X0.070748*%
%ADD22R,0.060748X0.040748*%
%ADD23R,0.040748X0.060748*%
%ADD24C,0.115748*%
%ADD25R,0.115748X0.115748*%
%ADD26C,0.13189*%
%ADD27R,0.047148X0.047148*%
%ADD28R,0.122047X0.102362*%
%ADD29R,0.0866142X0.19685*%
%ADD30R,0.144488X0.0704724*%
%ADD31R,0.110248X0.173248*%
%ADD32R,0.088548X0.232248*%
%ADD33C,0.175748*%
%ADD34C,0.045748*%
%ADD35C,0.050748*%
%ADD36C,0.041748*%
G04 APERTURE END LIST*
G54D10*
G54D11*
X80528Y-50598D03*
X80272Y-50598D03*
X80016Y-50598D03*
X79760Y-50598D03*
X81292Y-52800D03*
X81296Y-50598D03*
X81040Y-50598D03*
X80784Y-50598D03*
X79504Y-52802D03*
X79760Y-52802D03*
X80016Y-52802D03*
X80272Y-52802D03*
X80528Y-52802D03*
X80784Y-52802D03*
X79504Y-50598D03*
X81040Y-52800D03*
X81552Y-50598D03*
X79248Y-50598D03*
X79248Y-52802D03*
X81552Y-52802D03*
X81807Y-50598D03*
X78993Y-50598D03*
X78993Y-52802D03*
X81807Y-52802D03*
X82063Y-50598D03*
X78737Y-50598D03*
X78737Y-52802D03*
X82063Y-52802D03*
G54D12*
X80400Y-51700D03*
G54D13*
X66715Y-62416D03*
X66715Y-62672D03*
X66715Y-62927D03*
X66715Y-63183D03*
X65684Y-62416D03*
X65684Y-62672D03*
X65684Y-62927D03*
X65684Y-63183D03*
G54D14*
X81852Y-65678D03*
X81852Y-65422D03*
X81852Y-65166D03*
X81852Y-64910D03*
X79650Y-66442D03*
X81852Y-66446D03*
X81852Y-66190D03*
X81852Y-65934D03*
X79648Y-64654D03*
X79648Y-64910D03*
X79648Y-65166D03*
X79648Y-65422D03*
X79648Y-65678D03*
X79648Y-65934D03*
X81852Y-64654D03*
X79650Y-66190D03*
X81852Y-66702D03*
X81852Y-64398D03*
X79648Y-64398D03*
X79648Y-66702D03*
G54D15*
X80753Y-65550D03*
G54D16*
X65250Y-60700D03*
X65750Y-60700D03*
X66250Y-60700D03*
X66750Y-60700D03*
X66750Y-58500D03*
X66250Y-58500D03*
X65750Y-58500D03*
X65250Y-58500D03*
G54D17*
X85600Y-56300D03*
X85600Y-54500D03*
X75200Y-56300D03*
X75200Y-54500D03*
X83950Y-66250D03*
X83950Y-68050D03*
G54D18*
X72000Y-60000D03*
X72000Y-58800D03*
G54D19*
X76420Y-67550D03*
X76420Y-68850D03*
X74880Y-67550D03*
X74880Y-68850D03*
G54D20*
X66373Y-64888D03*
X66373Y-65638D03*
X65192Y-64888D03*
X65192Y-65638D03*
G54D21*
X79575Y-62600D03*
X78825Y-62600D03*
G54D22*
X67554Y-64963D03*
X67554Y-65563D03*
G54D23*
X89200Y-70700D03*
X89800Y-70700D03*
G54D22*
X83450Y-62650D03*
X83450Y-63250D03*
X84650Y-64650D03*
X84650Y-64050D03*
X85850Y-63250D03*
X85850Y-62650D03*
X85850Y-64650D03*
X85850Y-64050D03*
X82250Y-63250D03*
X82250Y-62650D03*
X75600Y-62800D03*
X75600Y-63400D03*
X63300Y-66700D03*
X63300Y-66100D03*
X73450Y-52300D03*
X73450Y-51700D03*
G54D23*
X85700Y-51700D03*
X85100Y-51700D03*
X77400Y-48900D03*
X78000Y-48900D03*
X82200Y-48900D03*
X82800Y-48900D03*
G54D22*
X63300Y-61900D03*
X63300Y-62500D03*
X63300Y-63300D03*
X63300Y-63900D03*
X63300Y-64700D03*
X63300Y-65300D03*
G54D23*
X79100Y-48900D03*
X79700Y-48900D03*
X81400Y-48900D03*
X80800Y-48900D03*
G54D22*
X78050Y-67400D03*
X78050Y-66800D03*
X78050Y-63700D03*
X78050Y-64300D03*
G54D23*
X69200Y-58000D03*
X69800Y-58000D03*
X67800Y-57000D03*
X68400Y-57000D03*
G54D22*
X68000Y-58800D03*
X68000Y-59400D03*
G54D23*
X66500Y-57000D03*
X65900Y-57000D03*
G54D22*
X85850Y-66250D03*
X85850Y-65650D03*
X84650Y-62650D03*
X84650Y-63250D03*
X80400Y-54200D03*
X80400Y-54800D03*
X78650Y-59500D03*
X78650Y-58900D03*
X82150Y-59500D03*
X82150Y-58900D03*
G54D24*
X65746Y-67462D03*
X67400Y-67462D03*
G54D25*
X69053Y-67462D03*
G54D26*
X65746Y-70337D03*
X69053Y-70337D03*
G54D25*
X87717Y-65200D03*
G54D24*
X89882Y-65200D03*
G54D25*
X62550Y-55232D03*
G54D24*
X62550Y-53067D03*
G54D25*
X87767Y-59350D03*
G54D24*
X89932Y-59350D03*
G54D25*
X87717Y-67900D03*
G54D24*
X89882Y-67900D03*
G54D25*
X65250Y-55232D03*
G54D24*
X65250Y-53067D03*
G54D25*
X67950Y-55232D03*
G54D24*
X67950Y-53067D03*
G54D25*
X70650Y-55232D03*
G54D24*
X70650Y-53067D03*
G54D25*
X87767Y-56550D03*
G54D24*
X89932Y-56550D03*
G54D25*
X87767Y-51150D03*
G54D24*
X89932Y-51150D03*
G54D25*
X87767Y-53850D03*
G54D24*
X89932Y-53850D03*
G54D27*
X92105Y-62150D03*
X92695Y-62150D03*
X91605Y-70700D03*
X92195Y-70700D03*
X73450Y-50495D03*
X73450Y-49905D03*
X72000Y-57445D03*
X72000Y-56855D03*
G54D28*
X75196Y-58700D03*
X77203Y-58700D03*
X83596Y-58700D03*
X85603Y-58700D03*
G54D29*
X78978Y-69950D03*
X82521Y-69950D03*
G54D30*
X60900Y-56803D03*
X60900Y-59196D03*
X60900Y-62996D03*
X60900Y-60603D03*
X60900Y-66796D03*
X60900Y-64403D03*
G54D31*
X71100Y-62125D03*
X71100Y-65275D03*
G54D32*
X81686Y-55000D03*
X83714Y-55000D03*
X79114Y-55000D03*
X77086Y-55000D03*
G54D22*
X76900Y-62800D03*
X76900Y-63400D03*
G54D23*
X85700Y-52700D03*
X85100Y-52700D03*
X85700Y-50000D03*
X85100Y-50000D03*
X85700Y-50800D03*
X85100Y-50800D03*
G54D22*
X75600Y-64300D03*
X75600Y-64900D03*
G54D23*
X84200Y-51700D03*
X83600Y-51700D03*
X84200Y-50000D03*
X83600Y-50000D03*
G54D33*
X94150Y-48750D03*
X60150Y-48750D03*
X60150Y-71550D03*
X94150Y-71550D03*
G54D34*
X68650Y-62950D03*
X76890Y-62300D03*
X86830Y-52700D03*
X86830Y-50000D03*
G54D35*
X65750Y-59301D03*
X65514Y-61827D03*
X63301Y-60781D03*
X62123Y-60603D03*
X63932Y-58500D03*
X60900Y-58440D03*
X81678Y-63780D03*
X80400Y-67450D03*
X80750Y-63400D03*
X72600Y-56850D03*
X82250Y-62150D03*
X80450Y-66250D03*
X80450Y-65500D03*
X80450Y-64750D03*
X74900Y-69600D03*
X76400Y-69600D03*
X75800Y-53900D03*
X74600Y-53900D03*
X77900Y-55650D03*
X77900Y-54350D03*
X86200Y-53900D03*
X85000Y-53900D03*
X82900Y-54350D03*
X82900Y-55650D03*
X80400Y-55275D03*
X79525Y-49800D03*
X83600Y-49425D03*
X83100Y-51700D03*
X81050Y-52000D03*
X80400Y-52000D03*
X79700Y-52000D03*
X81050Y-51400D03*
X80400Y-51400D03*
X79700Y-51400D03*
X85850Y-62150D03*
X77950Y-62650D03*
X75600Y-65450D03*
X62700Y-65300D03*
X67100Y-66450D03*
X64900Y-63450D03*
X68150Y-60200D03*
X69800Y-57150D03*
X69150Y-57000D03*
X65150Y-57000D03*
X73450Y-49300D03*
X80800Y-48250D03*
X79700Y-48250D03*
X93350Y-62150D03*
X93100Y-70700D03*
X83950Y-69250D03*
X71100Y-66700D03*
X60900Y-68100D03*
X60600Y-55900D03*
G54D34*
X79095Y-65301D03*
X78051Y-64776D03*
X83450Y-63700D03*
X82400Y-65175D03*
X81200Y-67450D03*
X76900Y-63900D03*
X78048Y-66342D03*
X78765Y-65622D03*
X78759Y-63707D03*
X82160Y-67370D03*
X81350Y-59500D03*
X80750Y-53350D03*
X80025Y-53350D03*
X79375Y-59500D03*
G54D35*
X78650Y-52300D03*
X78450Y-56850D03*
G54D36*
X81694Y-51338D03*
X79150Y-51150D03*
G54D34*
X80400Y-52450D03*
G54D35*
X82250Y-52250D03*
X82450Y-56950D03*
G54D36*
X81784Y-49384D03*
X81564Y-50148D03*
G54D35*
X86350Y-51750D03*
X83120Y-53490D03*
M02*
