G04 (created by PCBNEW (2013-05-31 BZR 4019)-stable) date 7/17/2013 12:30:07 AM*
%MOIN*%
G04 Gerber Fmt 3.4, Leading zero omitted, Abs format*
%FSLAX34Y34*%
G01*
G70*
G90*
G04 APERTURE LIST*
%ADD10C,0.000787402*%
%ADD11R,0.0177165X0.0413386*%
%ADD12R,0.187008X0.107874*%
%ADD13R,0.0480315X0.0177165*%
%ADD14R,0.0413386X0.0177165*%
%ADD15R,0.107874X0.194882*%
%ADD16R,0.025X0.05*%
%ADD17R,0.15X0.055*%
%ADD18R,0.1X0.05*%
%ADD19R,0.08X0.06*%
%ADD20R,0.055X0.035*%
%ADD21R,0.035X0.055*%
%ADD22R,0.045X0.025*%
%ADD23R,0.025X0.045*%
%ADD24C,0.1*%
%ADD25R,0.1X0.1*%
%ADD26R,0.0314X0.0314*%
%ADD27R,0.106299X0.0866142*%
%ADD28R,0.0708661X0.181102*%
%ADD29R,0.12874X0.0547244*%
%ADD30R,0.0945X0.1575*%
%ADD31R,0.0728X0.2165*%
%ADD32C,0.16*%
%ADD33C,0.03*%
%ADD34C,0.035*%
%ADD35C,0.026*%
%ADD36C,0.02*%
%ADD37C,0.01*%
%ADD38C,0.04*%
%ADD39C,0.014*%
%ADD40C,0.015*%
G04 APERTURE END LIST*
G54D10*
G54D11*
X80528Y-50598D03*
X80272Y-50598D03*
X80016Y-50598D03*
X79760Y-50598D03*
X81292Y-52800D03*
X81296Y-50598D03*
X81040Y-50598D03*
X80784Y-50598D03*
X79504Y-52802D03*
X79760Y-52802D03*
X80016Y-52802D03*
X80272Y-52802D03*
X80528Y-52802D03*
X80784Y-52802D03*
X79504Y-50598D03*
X81040Y-52800D03*
X81552Y-50598D03*
X79248Y-50598D03*
X79248Y-52802D03*
X81552Y-52802D03*
X81807Y-50598D03*
X78993Y-50598D03*
X78993Y-52802D03*
X81807Y-52802D03*
X82063Y-50598D03*
X78737Y-50598D03*
X78737Y-52802D03*
X82063Y-52802D03*
G54D12*
X80400Y-51700D03*
G54D13*
X66715Y-62416D03*
X66715Y-62672D03*
X66715Y-62927D03*
X66715Y-63183D03*
X65684Y-62416D03*
X65684Y-62672D03*
X65684Y-62927D03*
X65684Y-63183D03*
G54D14*
X81852Y-65678D03*
X81852Y-65422D03*
X81852Y-65166D03*
X81852Y-64910D03*
X79650Y-66442D03*
X81852Y-66446D03*
X81852Y-66190D03*
X81852Y-65934D03*
X79648Y-64654D03*
X79648Y-64910D03*
X79648Y-65166D03*
X79648Y-65422D03*
X79648Y-65678D03*
X79648Y-65934D03*
X81852Y-64654D03*
X79650Y-66190D03*
X81852Y-66702D03*
X81852Y-64398D03*
X79648Y-64398D03*
X79648Y-66702D03*
G54D15*
X80753Y-65550D03*
G54D16*
X65250Y-60700D03*
X65750Y-60700D03*
X66250Y-60700D03*
X66750Y-60700D03*
X66750Y-58500D03*
X66250Y-58500D03*
X65750Y-58500D03*
X65250Y-58500D03*
G54D17*
X85600Y-56300D03*
X85600Y-54500D03*
X75200Y-56300D03*
X75200Y-54500D03*
X83950Y-66250D03*
X83950Y-68050D03*
G54D18*
X72000Y-60000D03*
X72000Y-58800D03*
G54D19*
X76420Y-67550D03*
X76420Y-68850D03*
X74880Y-67550D03*
X74880Y-68850D03*
G54D20*
X66373Y-64888D03*
X66373Y-65638D03*
X65192Y-64888D03*
X65192Y-65638D03*
G54D21*
X79575Y-62600D03*
X78825Y-62600D03*
G54D22*
X67554Y-64963D03*
X67554Y-65563D03*
G54D23*
X89200Y-70700D03*
X89800Y-70700D03*
G54D22*
X83450Y-62650D03*
X83450Y-63250D03*
X84650Y-64650D03*
X84650Y-64050D03*
X85850Y-63250D03*
X85850Y-62650D03*
X85850Y-64650D03*
X85850Y-64050D03*
X82250Y-63250D03*
X82250Y-62650D03*
X75600Y-62800D03*
X75600Y-63400D03*
X63300Y-66700D03*
X63300Y-66100D03*
X73450Y-52300D03*
X73450Y-51700D03*
G54D23*
X85700Y-51700D03*
X85100Y-51700D03*
X77400Y-48900D03*
X78000Y-48900D03*
X82200Y-48900D03*
X82800Y-48900D03*
G54D22*
X63300Y-61900D03*
X63300Y-62500D03*
X63300Y-63300D03*
X63300Y-63900D03*
X63300Y-64700D03*
X63300Y-65300D03*
G54D23*
X79100Y-48900D03*
X79700Y-48900D03*
X81400Y-48900D03*
X80800Y-48900D03*
G54D22*
X78050Y-67400D03*
X78050Y-66800D03*
X78050Y-63700D03*
X78050Y-64300D03*
G54D23*
X69200Y-58000D03*
X69800Y-58000D03*
X67800Y-57000D03*
X68400Y-57000D03*
G54D22*
X68000Y-58800D03*
X68000Y-59400D03*
G54D23*
X66500Y-57000D03*
X65900Y-57000D03*
G54D22*
X85850Y-66250D03*
X85850Y-65650D03*
X84650Y-62650D03*
X84650Y-63250D03*
X80400Y-54200D03*
X80400Y-54800D03*
X78650Y-59500D03*
X78650Y-58900D03*
X82150Y-59500D03*
X82150Y-58900D03*
G54D24*
X65746Y-67462D03*
X67400Y-67462D03*
G54D25*
X69053Y-67462D03*
X87717Y-65200D03*
G54D24*
X89882Y-65200D03*
G54D25*
X62550Y-55232D03*
G54D24*
X62550Y-53067D03*
G54D25*
X87767Y-59350D03*
G54D24*
X89932Y-59350D03*
G54D25*
X87717Y-67900D03*
G54D24*
X89882Y-67900D03*
G54D25*
X65250Y-55232D03*
G54D24*
X65250Y-53067D03*
G54D25*
X67950Y-55232D03*
G54D24*
X67950Y-53067D03*
G54D25*
X70650Y-55232D03*
G54D24*
X70650Y-53067D03*
G54D25*
X87767Y-56550D03*
G54D24*
X89932Y-56550D03*
G54D25*
X87767Y-51150D03*
G54D24*
X89932Y-51150D03*
G54D25*
X87767Y-53850D03*
G54D24*
X89932Y-53850D03*
G54D26*
X92105Y-62150D03*
X92695Y-62150D03*
X91605Y-70700D03*
X92195Y-70700D03*
X73450Y-50495D03*
X73450Y-49905D03*
X72000Y-57445D03*
X72000Y-56855D03*
G54D27*
X75196Y-58700D03*
X77203Y-58700D03*
X83596Y-58700D03*
X85603Y-58700D03*
G54D28*
X78978Y-69950D03*
X82521Y-69950D03*
G54D29*
X60900Y-56803D03*
X60900Y-59196D03*
X60900Y-62996D03*
X60900Y-60603D03*
X60900Y-66796D03*
X60900Y-64403D03*
G54D30*
X71100Y-62125D03*
X71100Y-65275D03*
G54D31*
X81686Y-55000D03*
X83714Y-55000D03*
X79114Y-55000D03*
X77086Y-55000D03*
G54D22*
X76900Y-62800D03*
X76900Y-63400D03*
G54D23*
X85700Y-52700D03*
X85100Y-52700D03*
X85700Y-50000D03*
X85100Y-50000D03*
X85700Y-50800D03*
X85100Y-50800D03*
G54D22*
X75600Y-64300D03*
X75600Y-64900D03*
G54D23*
X84200Y-51700D03*
X83600Y-51700D03*
X84200Y-50000D03*
X83600Y-50000D03*
G54D32*
X94150Y-48750D03*
X60150Y-48750D03*
X60150Y-71550D03*
X94150Y-71550D03*
G54D33*
X68650Y-62950D03*
X76890Y-62300D03*
X86830Y-52700D03*
X86830Y-50000D03*
G54D34*
X65750Y-59301D03*
X65514Y-61827D03*
X63301Y-60781D03*
X62123Y-60603D03*
X63932Y-58500D03*
X60900Y-58440D03*
X81678Y-63780D03*
X80400Y-67450D03*
X80750Y-63400D03*
X72600Y-56850D03*
X82250Y-62150D03*
X80450Y-66250D03*
X80450Y-65500D03*
X80450Y-64750D03*
X74900Y-69600D03*
X76400Y-69600D03*
X75800Y-53900D03*
X74600Y-53900D03*
X77900Y-55650D03*
X77900Y-54350D03*
X86200Y-53900D03*
X85000Y-53900D03*
X82900Y-54350D03*
X82900Y-55650D03*
X80400Y-55275D03*
X79525Y-49800D03*
X83600Y-49425D03*
X83100Y-51700D03*
X81050Y-52000D03*
X80400Y-52000D03*
X79700Y-52000D03*
X81050Y-51400D03*
X80400Y-51400D03*
X79700Y-51400D03*
X85850Y-62150D03*
X77950Y-62650D03*
X75600Y-65450D03*
X62700Y-65300D03*
X67100Y-66450D03*
X64900Y-63450D03*
X68150Y-60200D03*
X69800Y-57150D03*
X69150Y-57000D03*
X65150Y-57000D03*
X73450Y-49300D03*
X80800Y-48250D03*
X79700Y-48250D03*
X93350Y-62150D03*
X93100Y-70700D03*
X83950Y-69250D03*
X71100Y-66700D03*
X60900Y-68100D03*
X60600Y-55900D03*
G54D33*
X79095Y-65301D03*
X78051Y-64776D03*
X83450Y-63700D03*
X82400Y-65175D03*
X81200Y-67450D03*
X76900Y-63900D03*
X78048Y-66342D03*
X78765Y-65622D03*
X78759Y-63707D03*
X82160Y-67370D03*
X81350Y-59500D03*
X80750Y-53350D03*
X80025Y-53350D03*
X79375Y-59500D03*
G54D34*
X78650Y-52300D03*
X78450Y-56850D03*
G54D35*
X81694Y-51338D03*
X79150Y-51150D03*
G54D33*
X80400Y-52450D03*
G54D34*
X82250Y-52250D03*
X82450Y-56950D03*
G54D35*
X81784Y-49384D03*
X81564Y-50148D03*
G54D34*
X86350Y-51750D03*
X83120Y-53490D03*
G54D36*
X81852Y-65934D02*
X82756Y-65934D01*
X82756Y-65934D02*
X82764Y-65942D01*
G54D37*
X66737Y-62950D02*
X68650Y-62950D01*
X66715Y-62927D02*
X66737Y-62950D01*
X76900Y-62800D02*
X76900Y-62310D01*
X76900Y-62310D02*
X76890Y-62300D01*
X85700Y-52700D02*
X86830Y-52700D01*
X86830Y-50000D02*
X85700Y-50000D01*
G54D36*
X82063Y-52802D02*
X83539Y-52802D01*
X84133Y-53396D02*
X86814Y-53396D01*
X83539Y-52802D02*
X84133Y-53396D01*
X78737Y-52802D02*
X77902Y-52802D01*
X77902Y-52802D02*
X77900Y-52800D01*
X65750Y-58500D02*
X65750Y-59301D01*
X65684Y-62416D02*
X65684Y-61997D01*
X65684Y-61997D02*
X65514Y-61827D01*
X63300Y-61900D02*
X63300Y-60782D01*
X63300Y-60782D02*
X63301Y-60781D01*
X60900Y-60603D02*
X62123Y-60603D01*
X62123Y-60603D02*
X62133Y-60594D01*
X65250Y-58500D02*
X63932Y-58500D01*
X60900Y-59196D02*
X60900Y-58440D01*
G54D38*
X60900Y-60603D02*
X60900Y-59196D01*
G54D39*
X81852Y-64398D02*
X81852Y-63954D01*
X81852Y-63954D02*
X81678Y-63780D01*
G54D36*
X80200Y-66700D02*
X80753Y-66146D01*
X80753Y-66146D02*
X80753Y-65550D01*
G54D40*
X81852Y-65678D02*
X80881Y-65678D01*
X80881Y-65678D02*
X80753Y-65550D01*
X81852Y-65422D02*
X80881Y-65422D01*
X80881Y-65422D02*
X80753Y-65550D01*
G54D36*
X80753Y-65550D02*
X80753Y-67096D01*
X80753Y-67096D02*
X80400Y-67450D01*
X80753Y-65550D02*
X80753Y-63403D01*
X80753Y-63403D02*
X80750Y-63400D01*
X72000Y-56855D02*
X72595Y-56855D01*
X72595Y-56855D02*
X72600Y-56850D01*
X82250Y-62650D02*
X82250Y-62150D01*
X80753Y-65550D02*
X80753Y-65946D01*
X80753Y-65946D02*
X80450Y-66250D01*
X80450Y-65500D02*
X80753Y-65550D01*
X80753Y-65550D02*
X80753Y-65053D01*
X80753Y-65053D02*
X80450Y-64750D01*
X74880Y-68850D02*
X74900Y-68870D01*
X74900Y-68870D02*
X74900Y-69600D01*
X76420Y-68850D02*
X76400Y-68870D01*
X76400Y-68870D02*
X76400Y-69600D01*
X75200Y-54500D02*
X75800Y-53900D01*
X75200Y-54500D02*
X74600Y-53900D01*
X77086Y-55000D02*
X77736Y-55650D01*
X77736Y-55650D02*
X77900Y-55650D01*
X77086Y-55000D02*
X77736Y-54350D01*
X77736Y-54350D02*
X77900Y-54350D01*
X85600Y-54500D02*
X86200Y-53900D01*
X85600Y-54500D02*
X85000Y-53900D01*
X83714Y-55000D02*
X83064Y-54350D01*
X83064Y-54350D02*
X82900Y-54350D01*
X83714Y-55000D02*
X83064Y-55650D01*
X83064Y-55650D02*
X82900Y-55650D01*
X80400Y-54800D02*
X80400Y-55275D01*
X79760Y-50598D02*
X79760Y-50035D01*
X79760Y-50035D02*
X79525Y-49800D01*
X83600Y-50000D02*
X83600Y-49425D01*
X83600Y-51700D02*
X83100Y-51700D01*
X81050Y-52000D02*
X80750Y-51700D01*
X80750Y-51700D02*
X80400Y-51700D01*
X80400Y-52000D02*
X80400Y-51700D01*
X79700Y-52000D02*
X80000Y-51700D01*
X80000Y-51700D02*
X80400Y-51700D01*
X80400Y-51700D02*
X80750Y-51700D01*
X80750Y-51700D02*
X81050Y-51400D01*
X80400Y-51400D02*
X80400Y-51700D01*
X80400Y-51700D02*
X80000Y-51700D01*
X80000Y-51700D02*
X79700Y-51400D01*
X85850Y-62650D02*
X85850Y-62150D01*
X78825Y-62600D02*
X78000Y-62600D01*
X78000Y-62600D02*
X77950Y-62650D01*
X75600Y-64900D02*
X75600Y-65450D01*
X63300Y-65300D02*
X62700Y-65300D01*
X66373Y-65638D02*
X66373Y-65723D01*
X66373Y-65723D02*
X67100Y-66450D01*
X65192Y-65638D02*
X66373Y-65638D01*
X66373Y-65638D02*
X66448Y-65563D01*
X66448Y-65563D02*
X67554Y-65563D01*
X65684Y-63183D02*
X65166Y-63183D01*
X65166Y-63183D02*
X64900Y-63450D01*
X68000Y-59400D02*
X68000Y-60050D01*
X68000Y-60050D02*
X68150Y-60200D01*
X69800Y-58000D02*
X69800Y-57150D01*
X68400Y-57000D02*
X69150Y-57000D01*
X65900Y-57000D02*
X65150Y-57000D01*
X73450Y-49905D02*
X73450Y-49300D01*
X80800Y-48900D02*
X80800Y-48250D01*
X79700Y-48900D02*
X79700Y-48250D01*
X92695Y-62150D02*
X93350Y-62150D01*
X92195Y-70700D02*
X93100Y-70700D01*
X83950Y-68050D02*
X83950Y-69250D01*
X71100Y-65275D02*
X71100Y-66700D01*
X60900Y-66796D02*
X60900Y-68100D01*
X60900Y-56803D02*
X60900Y-56200D01*
X60900Y-56200D02*
X60600Y-55900D01*
X81350Y-64400D02*
X80753Y-64996D01*
X80753Y-64996D02*
X80753Y-65550D01*
X80753Y-64846D02*
X80753Y-65550D01*
X81200Y-64400D02*
X80753Y-64846D01*
X81200Y-64400D02*
X81000Y-64400D01*
X80200Y-64400D02*
X80753Y-64953D01*
X80753Y-64953D02*
X80753Y-65550D01*
X81350Y-66702D02*
X80753Y-66105D01*
X80753Y-66105D02*
X80753Y-65550D01*
X81100Y-66702D02*
X80753Y-66355D01*
X80753Y-66355D02*
X80753Y-65550D01*
X80450Y-66700D02*
X80753Y-66396D01*
X80753Y-66396D02*
X80753Y-65550D01*
X81000Y-64400D02*
X80753Y-64646D01*
X80753Y-64646D02*
X80753Y-65550D01*
X80450Y-64400D02*
X80753Y-64703D01*
X80753Y-64703D02*
X80753Y-65550D01*
X81852Y-64398D02*
X81850Y-64400D01*
X81850Y-64400D02*
X81350Y-64400D01*
X81350Y-64400D02*
X81200Y-64400D01*
X81000Y-64400D02*
X80700Y-64400D01*
X80750Y-66700D02*
X80752Y-66702D01*
X80752Y-66702D02*
X81100Y-66702D01*
X81100Y-66702D02*
X81350Y-66702D01*
X81350Y-66702D02*
X81852Y-66702D01*
X79648Y-66702D02*
X79650Y-66700D01*
X80750Y-65553D02*
X80753Y-65550D01*
X80750Y-66700D02*
X80750Y-65553D01*
X79650Y-66700D02*
X80200Y-66700D01*
X80200Y-66700D02*
X80450Y-66700D01*
X80450Y-66700D02*
X80750Y-66700D01*
X79648Y-64398D02*
X79650Y-64400D01*
X80700Y-65496D02*
X80753Y-65550D01*
X80700Y-64400D02*
X80700Y-65496D01*
X79650Y-64400D02*
X80200Y-64400D01*
X80200Y-64400D02*
X80450Y-64400D01*
X80450Y-64400D02*
X80700Y-64400D01*
G54D37*
X72000Y-58800D02*
X72000Y-57445D01*
X63500Y-62900D02*
X64750Y-62900D01*
X64977Y-62672D02*
X65684Y-62672D01*
X64750Y-62900D02*
X64977Y-62672D01*
X63300Y-62500D02*
X63300Y-62700D01*
X63300Y-63100D02*
X63500Y-62900D01*
X63300Y-63100D02*
X63300Y-63300D01*
X63300Y-62700D02*
X63500Y-62900D01*
X63500Y-64300D02*
X63700Y-64300D01*
X65072Y-62927D02*
X65684Y-62927D01*
X64900Y-63100D02*
X65072Y-62927D01*
X64250Y-63100D02*
X64900Y-63100D01*
X63850Y-63500D02*
X64250Y-63100D01*
X63850Y-64150D02*
X63850Y-63500D01*
X63700Y-64300D02*
X63850Y-64150D01*
X63300Y-63900D02*
X63300Y-64100D01*
X63300Y-64500D02*
X63300Y-64700D01*
X63300Y-64500D02*
X63500Y-64300D01*
X63300Y-64100D02*
X63500Y-64300D01*
G54D40*
X66750Y-62050D02*
X66750Y-62350D01*
X66750Y-62350D02*
X66715Y-62416D01*
G54D36*
X65750Y-60700D02*
X65750Y-61050D01*
X65750Y-61050D02*
X66750Y-62050D01*
X66750Y-62050D02*
X66750Y-60700D01*
X65250Y-60700D02*
X65250Y-60150D01*
X66250Y-60150D02*
X66250Y-60700D01*
X66100Y-60000D02*
X66250Y-60150D01*
X65400Y-60000D02*
X66100Y-60000D01*
X65250Y-60150D02*
X65400Y-60000D01*
G54D37*
X79648Y-65166D02*
X80050Y-65166D01*
X79650Y-66442D02*
X79983Y-66442D01*
X79979Y-64654D02*
X79648Y-64654D01*
X80050Y-64725D02*
X79979Y-64654D01*
X80050Y-66375D02*
X80050Y-65166D01*
X80050Y-65166D02*
X80050Y-64725D01*
X79983Y-66442D02*
X80050Y-66375D01*
X79575Y-62600D02*
X79575Y-63534D01*
X79315Y-64654D02*
X79648Y-64654D01*
X79160Y-64499D02*
X79315Y-64654D01*
X79160Y-63949D02*
X79160Y-64499D01*
X79575Y-63534D02*
X79160Y-63949D01*
X85850Y-65650D02*
X85850Y-64650D01*
G54D40*
X78050Y-64300D02*
X78050Y-64775D01*
X79216Y-65422D02*
X79648Y-65422D01*
X79095Y-65301D02*
X79216Y-65422D01*
X78050Y-64775D02*
X78051Y-64776D01*
G54D37*
X89800Y-70700D02*
X91605Y-70700D01*
X81852Y-64910D02*
X82840Y-64910D01*
X84050Y-63700D02*
X84500Y-63700D01*
X82840Y-64910D02*
X84050Y-63700D01*
X84475Y-63675D02*
X84500Y-63700D01*
X84500Y-63700D02*
X84650Y-63850D01*
X84650Y-63850D02*
X84650Y-64050D01*
X84475Y-63675D02*
X84650Y-63500D01*
X84650Y-63500D02*
X84650Y-63250D01*
X85425Y-63675D02*
X85800Y-64050D01*
X85800Y-64050D02*
X85850Y-64050D01*
X85425Y-63675D02*
X85850Y-63250D01*
X84475Y-63675D02*
X85425Y-63675D01*
X81852Y-65166D02*
X81861Y-65175D01*
X83450Y-63700D02*
X83450Y-63250D01*
X81861Y-65175D02*
X82400Y-65175D01*
X83450Y-62650D02*
X84650Y-62650D01*
X81852Y-64654D02*
X82171Y-64654D01*
X82250Y-64575D02*
X82250Y-63250D01*
X82171Y-64654D02*
X82250Y-64575D01*
X76900Y-63400D02*
X76900Y-63900D01*
X82100Y-67050D02*
X82300Y-66850D01*
X81600Y-67050D02*
X82100Y-67050D01*
X81200Y-67450D02*
X81600Y-67050D01*
X82300Y-66850D02*
X82300Y-66550D01*
X81856Y-66450D02*
X81852Y-66446D01*
X82200Y-66450D02*
X81856Y-66450D01*
X82300Y-66550D02*
X82200Y-66450D01*
X75600Y-64300D02*
X75600Y-63400D01*
X75600Y-63400D02*
X76900Y-63400D01*
G54D39*
X79650Y-66190D02*
X79310Y-66190D01*
X78978Y-66521D02*
X78978Y-68758D01*
X79310Y-66190D02*
X78978Y-66521D01*
G54D36*
X78050Y-67400D02*
X78050Y-67830D01*
X78050Y-67830D02*
X78978Y-68758D01*
X78978Y-68758D02*
X78978Y-69950D01*
G54D40*
X79648Y-65678D02*
X78821Y-65678D01*
X78050Y-66344D02*
X78050Y-66800D01*
X78048Y-66342D02*
X78050Y-66344D01*
X78821Y-65678D02*
X78765Y-65622D01*
X78050Y-63700D02*
X78752Y-63700D01*
X78752Y-63700D02*
X78759Y-63707D01*
X82170Y-67360D02*
X82521Y-67360D01*
X82160Y-67370D02*
X82170Y-67360D01*
X82521Y-69950D02*
X82521Y-67360D01*
X82521Y-67360D02*
X82521Y-66371D01*
X82340Y-66190D02*
X81852Y-66190D01*
X82521Y-66371D02*
X82340Y-66190D01*
G54D37*
X80784Y-52802D02*
X80784Y-53316D01*
X81350Y-59500D02*
X82150Y-59500D01*
X80784Y-53316D02*
X80750Y-53350D01*
X78650Y-59500D02*
X79375Y-59500D01*
X80025Y-52811D02*
X80016Y-52802D01*
X80025Y-53350D02*
X80025Y-52811D01*
G54D40*
X79248Y-52802D02*
X79248Y-52448D01*
X79248Y-52448D02*
X79175Y-52375D01*
X78993Y-52802D02*
X78993Y-52557D01*
X78993Y-52557D02*
X79175Y-52375D01*
G54D36*
X78000Y-57300D02*
X78450Y-56850D01*
X79100Y-52300D02*
X79175Y-52375D01*
X78650Y-52300D02*
X78993Y-52300D01*
X78993Y-52300D02*
X79100Y-52300D01*
X77203Y-58700D02*
X77203Y-58096D01*
X78650Y-57950D02*
X78000Y-57300D01*
X78650Y-57950D02*
X78650Y-58900D01*
X77203Y-58096D02*
X78000Y-57300D01*
G54D37*
X81040Y-50598D02*
X81025Y-50613D01*
X81025Y-50613D02*
X81025Y-50950D01*
X80528Y-50598D02*
X80525Y-50601D01*
X80525Y-50601D02*
X80525Y-50950D01*
X80272Y-50598D02*
X80250Y-50620D01*
X80250Y-50620D02*
X80250Y-50950D01*
X79150Y-51150D02*
X79350Y-50950D01*
X81306Y-50950D02*
X81694Y-51338D01*
X79350Y-50950D02*
X80250Y-50950D01*
X80250Y-50950D02*
X80525Y-50950D01*
X80525Y-50950D02*
X81025Y-50950D01*
X81025Y-50950D02*
X81306Y-50950D01*
X82063Y-50969D02*
X82063Y-50598D01*
X81694Y-51338D02*
X82063Y-50969D01*
X78737Y-50598D02*
X78750Y-50611D01*
X78750Y-51000D02*
X78750Y-50611D01*
X78900Y-51150D02*
X78750Y-51000D01*
X78900Y-51150D02*
X79150Y-51150D01*
X80528Y-52802D02*
X80500Y-52774D01*
X80300Y-52774D02*
X80300Y-52550D01*
X80300Y-52550D02*
X80400Y-52450D01*
X80300Y-52774D02*
X80272Y-52802D01*
X80500Y-52550D02*
X80400Y-52450D01*
X80500Y-52774D02*
X80500Y-52550D01*
X80400Y-53300D02*
X80500Y-53200D01*
X80500Y-52830D02*
X80528Y-52802D01*
X80500Y-53200D02*
X80500Y-52830D01*
X80400Y-54200D02*
X80400Y-53300D01*
X80300Y-52830D02*
X80272Y-52802D01*
X80400Y-53300D02*
X80300Y-53200D01*
X80300Y-53200D02*
X80300Y-52830D01*
X85100Y-52700D02*
X84700Y-52700D01*
X82700Y-52100D02*
X82700Y-50400D01*
X82950Y-52350D02*
X82700Y-52100D01*
X84350Y-52350D02*
X82950Y-52350D01*
X84700Y-52700D02*
X84350Y-52350D01*
X84600Y-51550D02*
X84600Y-51300D01*
X83300Y-51000D02*
X83150Y-50850D01*
X84300Y-51000D02*
X83300Y-51000D01*
X84600Y-51300D02*
X84300Y-51000D01*
X80784Y-50116D02*
X80784Y-50598D01*
X83150Y-50850D02*
X82700Y-50400D01*
X82700Y-50400D02*
X82200Y-49900D01*
X82200Y-49900D02*
X81000Y-49900D01*
X81000Y-49900D02*
X80784Y-50116D01*
X85100Y-51700D02*
X84750Y-51700D01*
X84450Y-51700D02*
X84600Y-51550D01*
X84450Y-51700D02*
X84200Y-51700D01*
X84750Y-51700D02*
X84600Y-51550D01*
X85100Y-50800D02*
X83750Y-50800D01*
X83750Y-50800D02*
X82700Y-49750D01*
X80016Y-50234D02*
X80016Y-50598D01*
X80550Y-49700D02*
X80016Y-50234D01*
X82650Y-49700D02*
X80550Y-49700D01*
X82700Y-49750D02*
X82650Y-49700D01*
X84150Y-50800D02*
X83750Y-50800D01*
X84650Y-50200D02*
X84650Y-50300D01*
X84650Y-50300D02*
X84150Y-50800D01*
X85100Y-50800D02*
X84150Y-50800D01*
X85100Y-50000D02*
X84850Y-50000D01*
X84450Y-50000D02*
X84650Y-50200D01*
X84450Y-50000D02*
X84200Y-50000D01*
X84850Y-50000D02*
X84650Y-50200D01*
X73450Y-51700D02*
X73450Y-50495D01*
G54D36*
X82796Y-57304D02*
X82796Y-57296D01*
X81849Y-52350D02*
X81807Y-52308D01*
X82150Y-52350D02*
X81849Y-52350D01*
X82250Y-52250D02*
X82150Y-52350D01*
X82796Y-57296D02*
X82450Y-56950D01*
G54D39*
X81807Y-52308D02*
X81699Y-52308D01*
X81699Y-52308D02*
X81552Y-52455D01*
X81552Y-52455D02*
X81552Y-52802D01*
X81807Y-52802D02*
X81807Y-52308D01*
G54D36*
X83596Y-58700D02*
X83596Y-58096D01*
X82150Y-57950D02*
X82796Y-57304D01*
X82796Y-57304D02*
X82800Y-57300D01*
X82150Y-57950D02*
X82150Y-58900D01*
X83596Y-58096D02*
X82800Y-57300D01*
G54D37*
X81552Y-50598D02*
X81552Y-50160D01*
X81564Y-50148D02*
X81552Y-50160D01*
X82200Y-48900D02*
X82200Y-49000D01*
X81400Y-49000D02*
X81784Y-49384D01*
X81784Y-49384D02*
X81800Y-49400D01*
X81400Y-49000D02*
X81400Y-48900D01*
X82200Y-49000D02*
X81800Y-49400D01*
X78550Y-49400D02*
X78550Y-49500D01*
X79248Y-50198D02*
X79248Y-50598D01*
X78550Y-49500D02*
X79248Y-50198D01*
X79100Y-48900D02*
X79050Y-48900D01*
X78050Y-48900D02*
X78550Y-49400D01*
X78050Y-48900D02*
X78000Y-48900D01*
X79050Y-48900D02*
X78550Y-49400D01*
X63680Y-66100D02*
X63700Y-66100D01*
X63700Y-66100D02*
X63960Y-65840D01*
X64190Y-64450D02*
X64600Y-64450D01*
X63960Y-64680D02*
X64190Y-64450D01*
X63960Y-65840D02*
X63960Y-64680D01*
X66400Y-64450D02*
X66500Y-64450D01*
X66715Y-64234D02*
X66715Y-63183D01*
X66500Y-64450D02*
X66715Y-64234D01*
X65192Y-64888D02*
X65192Y-64692D01*
X65192Y-64692D02*
X64950Y-64450D01*
X66373Y-64888D02*
X66373Y-64823D01*
X66373Y-64823D02*
X66000Y-64450D01*
X63300Y-66100D02*
X63680Y-66100D01*
X67040Y-64450D02*
X67554Y-64963D01*
X64600Y-64450D02*
X64950Y-64450D01*
X64950Y-64450D02*
X66000Y-64450D01*
X66000Y-64450D02*
X66400Y-64450D01*
X66400Y-64450D02*
X67040Y-64450D01*
G54D36*
X79648Y-65934D02*
X78866Y-65934D01*
X78866Y-65934D02*
X78500Y-66300D01*
X66715Y-62672D02*
X67477Y-62672D01*
X69200Y-60200D02*
X69200Y-59550D01*
X68100Y-61300D02*
X69200Y-60200D01*
X68100Y-62050D02*
X68100Y-61300D01*
X67477Y-62672D02*
X68100Y-62050D01*
X79648Y-64910D02*
X78910Y-64910D01*
X78910Y-64910D02*
X78700Y-64700D01*
X81040Y-52800D02*
X81040Y-53140D01*
X81040Y-53140D02*
X81292Y-53392D01*
X79760Y-52802D02*
X79760Y-53140D01*
X79760Y-53140D02*
X79504Y-53396D01*
X82140Y-53500D02*
X83110Y-53500D01*
X83110Y-53500D02*
X83120Y-53490D01*
X86350Y-51750D02*
X85750Y-51750D01*
X85750Y-51750D02*
X85700Y-51700D01*
X86000Y-50800D02*
X85700Y-50800D01*
X86350Y-51750D02*
X86350Y-51150D01*
X86350Y-51150D02*
X86000Y-50800D01*
X79504Y-52802D02*
X79504Y-53396D01*
X79504Y-53396D02*
X79500Y-53400D01*
X81292Y-52800D02*
X81292Y-53392D01*
X81292Y-53392D02*
X81300Y-53400D01*
G54D10*
G36*
X66300Y-68079D02*
X66268Y-68110D01*
X66206Y-68147D01*
X66206Y-67993D01*
X65746Y-67533D01*
X65675Y-67604D01*
X65675Y-67462D01*
X65215Y-67003D01*
X65099Y-67054D01*
X64992Y-67333D01*
X65000Y-67631D01*
X65099Y-67871D01*
X65215Y-67922D01*
X65675Y-67462D01*
X65675Y-67604D01*
X65286Y-67993D01*
X65338Y-68109D01*
X65616Y-68216D01*
X65915Y-68208D01*
X66154Y-68109D01*
X66206Y-67993D01*
X66206Y-68147D01*
X66036Y-68250D01*
X63775Y-68250D01*
X63775Y-66874D01*
X63775Y-66812D01*
X63712Y-66750D01*
X63350Y-66750D01*
X63350Y-67012D01*
X63412Y-67075D01*
X63475Y-67075D01*
X63574Y-67074D01*
X63666Y-67036D01*
X63737Y-66966D01*
X63775Y-66874D01*
X63775Y-68250D01*
X63250Y-68250D01*
X63250Y-67012D01*
X63250Y-66750D01*
X62887Y-66750D01*
X62825Y-66812D01*
X62824Y-66874D01*
X62862Y-66966D01*
X62933Y-67036D01*
X63025Y-67074D01*
X63124Y-67075D01*
X63187Y-67075D01*
X63250Y-67012D01*
X63250Y-68250D01*
X62770Y-68250D01*
X62550Y-68029D01*
X62550Y-67029D01*
X61793Y-66273D01*
X61793Y-64726D01*
X61793Y-64080D01*
X61793Y-63319D01*
X61793Y-62673D01*
X61755Y-62581D01*
X61685Y-62511D01*
X61593Y-62473D01*
X61494Y-62473D01*
X61012Y-62473D01*
X60950Y-62535D01*
X60950Y-62946D01*
X61731Y-62946D01*
X61793Y-62884D01*
X61793Y-62673D01*
X61793Y-63319D01*
X61793Y-63109D01*
X61731Y-63046D01*
X60950Y-63046D01*
X60950Y-63457D01*
X61012Y-63520D01*
X61494Y-63520D01*
X61593Y-63520D01*
X61685Y-63482D01*
X61755Y-63411D01*
X61793Y-63319D01*
X61793Y-64080D01*
X61755Y-63988D01*
X61685Y-63917D01*
X61593Y-63879D01*
X61494Y-63879D01*
X61012Y-63879D01*
X60950Y-63942D01*
X60950Y-64353D01*
X61731Y-64353D01*
X61793Y-64290D01*
X61793Y-64080D01*
X61793Y-64726D01*
X61793Y-64515D01*
X61731Y-64453D01*
X60950Y-64453D01*
X60950Y-64864D01*
X61012Y-64926D01*
X61494Y-64926D01*
X61593Y-64926D01*
X61685Y-64888D01*
X61755Y-64818D01*
X61793Y-64726D01*
X61793Y-66273D01*
X61020Y-65500D01*
X60850Y-65500D01*
X60850Y-64864D01*
X60850Y-64453D01*
X60850Y-64353D01*
X60850Y-63942D01*
X60850Y-63457D01*
X60850Y-63046D01*
X60850Y-62946D01*
X60850Y-62535D01*
X60787Y-62473D01*
X60305Y-62473D01*
X60206Y-62473D01*
X60114Y-62511D01*
X60044Y-62581D01*
X60006Y-62673D01*
X60006Y-62884D01*
X60068Y-62946D01*
X60850Y-62946D01*
X60850Y-63046D01*
X60068Y-63046D01*
X60006Y-63109D01*
X60006Y-63319D01*
X60044Y-63411D01*
X60114Y-63482D01*
X60206Y-63520D01*
X60305Y-63520D01*
X60787Y-63520D01*
X60850Y-63457D01*
X60850Y-63942D01*
X60787Y-63879D01*
X60305Y-63879D01*
X60206Y-63879D01*
X60114Y-63917D01*
X60044Y-63988D01*
X60006Y-64080D01*
X60006Y-64290D01*
X60068Y-64353D01*
X60850Y-64353D01*
X60850Y-64453D01*
X60068Y-64453D01*
X60006Y-64515D01*
X60006Y-64726D01*
X60044Y-64818D01*
X60114Y-64888D01*
X60206Y-64926D01*
X60305Y-64926D01*
X60787Y-64926D01*
X60850Y-64864D01*
X60850Y-65500D01*
X60070Y-65500D01*
X59800Y-65229D01*
X59800Y-62720D01*
X60120Y-62400D01*
X61879Y-62400D01*
X62400Y-62920D01*
X62400Y-64998D01*
X62339Y-65058D01*
X62275Y-65215D01*
X62274Y-65384D01*
X62339Y-65540D01*
X62400Y-65601D01*
X62400Y-66020D01*
X62779Y-66400D01*
X62896Y-66400D01*
X62862Y-66433D01*
X62824Y-66525D01*
X62825Y-66587D01*
X62887Y-66650D01*
X63250Y-66650D01*
X63250Y-66642D01*
X63350Y-66642D01*
X63350Y-66650D01*
X63712Y-66650D01*
X63775Y-66587D01*
X63775Y-66525D01*
X63737Y-66433D01*
X63703Y-66400D01*
X63703Y-66400D01*
X63829Y-66400D01*
X64029Y-66600D01*
X66000Y-66600D01*
X66029Y-66600D01*
X66264Y-66835D01*
X66300Y-66870D01*
X66300Y-67013D01*
X66277Y-67003D01*
X66206Y-67073D01*
X66206Y-66932D01*
X66154Y-66816D01*
X65875Y-66709D01*
X65577Y-66717D01*
X65338Y-66816D01*
X65286Y-66932D01*
X65746Y-67392D01*
X66206Y-66932D01*
X66206Y-67073D01*
X65817Y-67462D01*
X66277Y-67922D01*
X66300Y-67912D01*
X66300Y-68079D01*
X66300Y-68079D01*
G37*
G54D37*
X66300Y-68079D02*
X66268Y-68110D01*
X66206Y-68147D01*
X66206Y-67993D01*
X65746Y-67533D01*
X65675Y-67604D01*
X65675Y-67462D01*
X65215Y-67003D01*
X65099Y-67054D01*
X64992Y-67333D01*
X65000Y-67631D01*
X65099Y-67871D01*
X65215Y-67922D01*
X65675Y-67462D01*
X65675Y-67604D01*
X65286Y-67993D01*
X65338Y-68109D01*
X65616Y-68216D01*
X65915Y-68208D01*
X66154Y-68109D01*
X66206Y-67993D01*
X66206Y-68147D01*
X66036Y-68250D01*
X63775Y-68250D01*
X63775Y-66874D01*
X63775Y-66812D01*
X63712Y-66750D01*
X63350Y-66750D01*
X63350Y-67012D01*
X63412Y-67075D01*
X63475Y-67075D01*
X63574Y-67074D01*
X63666Y-67036D01*
X63737Y-66966D01*
X63775Y-66874D01*
X63775Y-68250D01*
X63250Y-68250D01*
X63250Y-67012D01*
X63250Y-66750D01*
X62887Y-66750D01*
X62825Y-66812D01*
X62824Y-66874D01*
X62862Y-66966D01*
X62933Y-67036D01*
X63025Y-67074D01*
X63124Y-67075D01*
X63187Y-67075D01*
X63250Y-67012D01*
X63250Y-68250D01*
X62770Y-68250D01*
X62550Y-68029D01*
X62550Y-67029D01*
X61793Y-66273D01*
X61793Y-64726D01*
X61793Y-64080D01*
X61793Y-63319D01*
X61793Y-62673D01*
X61755Y-62581D01*
X61685Y-62511D01*
X61593Y-62473D01*
X61494Y-62473D01*
X61012Y-62473D01*
X60950Y-62535D01*
X60950Y-62946D01*
X61731Y-62946D01*
X61793Y-62884D01*
X61793Y-62673D01*
X61793Y-63319D01*
X61793Y-63109D01*
X61731Y-63046D01*
X60950Y-63046D01*
X60950Y-63457D01*
X61012Y-63520D01*
X61494Y-63520D01*
X61593Y-63520D01*
X61685Y-63482D01*
X61755Y-63411D01*
X61793Y-63319D01*
X61793Y-64080D01*
X61755Y-63988D01*
X61685Y-63917D01*
X61593Y-63879D01*
X61494Y-63879D01*
X61012Y-63879D01*
X60950Y-63942D01*
X60950Y-64353D01*
X61731Y-64353D01*
X61793Y-64290D01*
X61793Y-64080D01*
X61793Y-64726D01*
X61793Y-64515D01*
X61731Y-64453D01*
X60950Y-64453D01*
X60950Y-64864D01*
X61012Y-64926D01*
X61494Y-64926D01*
X61593Y-64926D01*
X61685Y-64888D01*
X61755Y-64818D01*
X61793Y-64726D01*
X61793Y-66273D01*
X61020Y-65500D01*
X60850Y-65500D01*
X60850Y-64864D01*
X60850Y-64453D01*
X60850Y-64353D01*
X60850Y-63942D01*
X60850Y-63457D01*
X60850Y-63046D01*
X60850Y-62946D01*
X60850Y-62535D01*
X60787Y-62473D01*
X60305Y-62473D01*
X60206Y-62473D01*
X60114Y-62511D01*
X60044Y-62581D01*
X60006Y-62673D01*
X60006Y-62884D01*
X60068Y-62946D01*
X60850Y-62946D01*
X60850Y-63046D01*
X60068Y-63046D01*
X60006Y-63109D01*
X60006Y-63319D01*
X60044Y-63411D01*
X60114Y-63482D01*
X60206Y-63520D01*
X60305Y-63520D01*
X60787Y-63520D01*
X60850Y-63457D01*
X60850Y-63942D01*
X60787Y-63879D01*
X60305Y-63879D01*
X60206Y-63879D01*
X60114Y-63917D01*
X60044Y-63988D01*
X60006Y-64080D01*
X60006Y-64290D01*
X60068Y-64353D01*
X60850Y-64353D01*
X60850Y-64453D01*
X60068Y-64453D01*
X60006Y-64515D01*
X60006Y-64726D01*
X60044Y-64818D01*
X60114Y-64888D01*
X60206Y-64926D01*
X60305Y-64926D01*
X60787Y-64926D01*
X60850Y-64864D01*
X60850Y-65500D01*
X60070Y-65500D01*
X59800Y-65229D01*
X59800Y-62720D01*
X60120Y-62400D01*
X61879Y-62400D01*
X62400Y-62920D01*
X62400Y-64998D01*
X62339Y-65058D01*
X62275Y-65215D01*
X62274Y-65384D01*
X62339Y-65540D01*
X62400Y-65601D01*
X62400Y-66020D01*
X62779Y-66400D01*
X62896Y-66400D01*
X62862Y-66433D01*
X62824Y-66525D01*
X62825Y-66587D01*
X62887Y-66650D01*
X63250Y-66650D01*
X63250Y-66642D01*
X63350Y-66642D01*
X63350Y-66650D01*
X63712Y-66650D01*
X63775Y-66587D01*
X63775Y-66525D01*
X63737Y-66433D01*
X63703Y-66400D01*
X63703Y-66400D01*
X63829Y-66400D01*
X64029Y-66600D01*
X66000Y-66600D01*
X66029Y-66600D01*
X66264Y-66835D01*
X66300Y-66870D01*
X66300Y-67013D01*
X66277Y-67003D01*
X66206Y-67073D01*
X66206Y-66932D01*
X66154Y-66816D01*
X65875Y-66709D01*
X65577Y-66717D01*
X65338Y-66816D01*
X65286Y-66932D01*
X65746Y-67392D01*
X66206Y-66932D01*
X66206Y-67073D01*
X65817Y-67462D01*
X66277Y-67922D01*
X66300Y-67912D01*
X66300Y-68079D01*
G54D10*
G36*
X78250Y-53179D02*
X78029Y-53400D01*
X77350Y-53400D01*
X77350Y-49312D01*
X77350Y-48950D01*
X77350Y-48850D01*
X77350Y-48487D01*
X77287Y-48425D01*
X77225Y-48424D01*
X77133Y-48462D01*
X77063Y-48533D01*
X77025Y-48625D01*
X77024Y-48724D01*
X77025Y-48787D01*
X77087Y-48850D01*
X77350Y-48850D01*
X77350Y-48950D01*
X77087Y-48950D01*
X77025Y-49012D01*
X77024Y-49075D01*
X77025Y-49174D01*
X77063Y-49266D01*
X77133Y-49337D01*
X77225Y-49375D01*
X77287Y-49375D01*
X77350Y-49312D01*
X77350Y-53400D01*
X74529Y-53400D01*
X74411Y-53518D01*
X74359Y-53539D01*
X74239Y-53658D01*
X74218Y-53710D01*
X74064Y-53864D01*
X73950Y-53979D01*
X73950Y-54970D01*
X74429Y-55450D01*
X75929Y-55450D01*
X76350Y-55870D01*
X76350Y-59729D01*
X76200Y-59879D01*
X76200Y-56624D01*
X76200Y-55975D01*
X76162Y-55883D01*
X76091Y-55813D01*
X75999Y-55775D01*
X75900Y-55774D01*
X75312Y-55775D01*
X75250Y-55837D01*
X75250Y-56250D01*
X76137Y-56250D01*
X76200Y-56187D01*
X76200Y-55975D01*
X76200Y-56624D01*
X76200Y-56412D01*
X76137Y-56350D01*
X75250Y-56350D01*
X75250Y-56762D01*
X75312Y-56825D01*
X75900Y-56825D01*
X75999Y-56824D01*
X76091Y-56786D01*
X76162Y-56716D01*
X76200Y-56624D01*
X76200Y-59879D01*
X75977Y-60101D01*
X75977Y-59083D01*
X75977Y-58316D01*
X75977Y-58216D01*
X75939Y-58125D01*
X75868Y-58054D01*
X75777Y-58016D01*
X75308Y-58016D01*
X75246Y-58079D01*
X75246Y-58650D01*
X75915Y-58650D01*
X75977Y-58587D01*
X75977Y-58316D01*
X75977Y-59083D01*
X75977Y-58812D01*
X75915Y-58750D01*
X75246Y-58750D01*
X75246Y-59320D01*
X75308Y-59383D01*
X75777Y-59383D01*
X75868Y-59345D01*
X75939Y-59274D01*
X75977Y-59183D01*
X75977Y-59083D01*
X75977Y-60101D01*
X75929Y-60150D01*
X75150Y-60150D01*
X75150Y-56762D01*
X75150Y-56350D01*
X75150Y-56250D01*
X75150Y-55837D01*
X75087Y-55775D01*
X74499Y-55774D01*
X74400Y-55775D01*
X74308Y-55813D01*
X74237Y-55883D01*
X74199Y-55975D01*
X74200Y-56187D01*
X74262Y-56250D01*
X75150Y-56250D01*
X75150Y-56350D01*
X74262Y-56350D01*
X74200Y-56412D01*
X74199Y-56624D01*
X74237Y-56716D01*
X74308Y-56786D01*
X74400Y-56824D01*
X74499Y-56825D01*
X75087Y-56825D01*
X75150Y-56762D01*
X75150Y-60150D01*
X75146Y-60150D01*
X75146Y-59320D01*
X75146Y-58750D01*
X75146Y-58650D01*
X75146Y-58079D01*
X75083Y-58016D01*
X74615Y-58016D01*
X74523Y-58054D01*
X74452Y-58125D01*
X74414Y-58216D01*
X74414Y-58316D01*
X74414Y-58587D01*
X74477Y-58650D01*
X75146Y-58650D01*
X75146Y-58750D01*
X74477Y-58750D01*
X74414Y-58812D01*
X74414Y-59083D01*
X74414Y-59183D01*
X74452Y-59274D01*
X74523Y-59345D01*
X74615Y-59383D01*
X75083Y-59383D01*
X75146Y-59320D01*
X75146Y-60150D01*
X74420Y-60150D01*
X73925Y-59654D01*
X73925Y-52474D01*
X73925Y-52125D01*
X73887Y-52033D01*
X73853Y-52000D01*
X73886Y-51966D01*
X73924Y-51874D01*
X73925Y-51775D01*
X73925Y-51525D01*
X73887Y-51433D01*
X73816Y-51363D01*
X73750Y-51335D01*
X73750Y-50862D01*
X73818Y-50793D01*
X73856Y-50701D01*
X73857Y-50602D01*
X73857Y-50288D01*
X73820Y-50199D01*
X73856Y-50111D01*
X73857Y-50012D01*
X73857Y-49698D01*
X73819Y-49606D01*
X73800Y-49587D01*
X73800Y-49551D01*
X73810Y-49541D01*
X73874Y-49384D01*
X73875Y-49215D01*
X73810Y-49059D01*
X73691Y-48939D01*
X73534Y-48875D01*
X73365Y-48874D01*
X73209Y-48939D01*
X73089Y-49058D01*
X73025Y-49215D01*
X73024Y-49384D01*
X73089Y-49540D01*
X73100Y-49550D01*
X73100Y-49587D01*
X73081Y-49606D01*
X73043Y-49698D01*
X73042Y-49797D01*
X73042Y-50111D01*
X73079Y-50200D01*
X73043Y-50288D01*
X73042Y-50387D01*
X73042Y-50701D01*
X73080Y-50793D01*
X73150Y-50862D01*
X73150Y-51335D01*
X73083Y-51362D01*
X73013Y-51433D01*
X72975Y-51525D01*
X72974Y-51624D01*
X72974Y-51874D01*
X73012Y-51966D01*
X73046Y-52000D01*
X73012Y-52033D01*
X72974Y-52125D01*
X72975Y-52187D01*
X73037Y-52250D01*
X73400Y-52250D01*
X73400Y-52242D01*
X73500Y-52242D01*
X73500Y-52250D01*
X73862Y-52250D01*
X73925Y-52187D01*
X73925Y-52125D01*
X73925Y-52474D01*
X73925Y-52412D01*
X73862Y-52350D01*
X73500Y-52350D01*
X73500Y-52612D01*
X73562Y-52675D01*
X73625Y-52675D01*
X73724Y-52674D01*
X73816Y-52636D01*
X73887Y-52566D01*
X73925Y-52474D01*
X73925Y-59654D01*
X73400Y-59129D01*
X73400Y-52612D01*
X73400Y-52350D01*
X73037Y-52350D01*
X72975Y-52412D01*
X72974Y-52474D01*
X73012Y-52566D01*
X73083Y-52636D01*
X73175Y-52674D01*
X73274Y-52675D01*
X73337Y-52675D01*
X73400Y-52612D01*
X73400Y-59129D01*
X73350Y-59079D01*
X73350Y-56579D01*
X72870Y-56100D01*
X71400Y-56100D01*
X71400Y-52918D01*
X71286Y-52643D01*
X71075Y-52431D01*
X70799Y-52317D01*
X70501Y-52317D01*
X70225Y-52431D01*
X70014Y-52641D01*
X69900Y-52917D01*
X69899Y-53215D01*
X70013Y-53491D01*
X70224Y-53702D01*
X70500Y-53817D01*
X70798Y-53817D01*
X71074Y-53703D01*
X71285Y-53492D01*
X71399Y-53217D01*
X71400Y-52918D01*
X71400Y-56100D01*
X71400Y-56100D01*
X71400Y-55683D01*
X71400Y-54782D01*
X71399Y-54682D01*
X71361Y-54590D01*
X71291Y-54520D01*
X71199Y-54482D01*
X70762Y-54482D01*
X70700Y-54545D01*
X70700Y-55182D01*
X71337Y-55182D01*
X71400Y-55120D01*
X71400Y-54782D01*
X71400Y-55683D01*
X71400Y-55345D01*
X71337Y-55282D01*
X70700Y-55282D01*
X70700Y-55920D01*
X70762Y-55982D01*
X71199Y-55982D01*
X71291Y-55944D01*
X71361Y-55874D01*
X71399Y-55782D01*
X71400Y-55683D01*
X71400Y-56100D01*
X70600Y-56100D01*
X70600Y-55920D01*
X70600Y-55282D01*
X70600Y-55182D01*
X70600Y-54545D01*
X70537Y-54482D01*
X70100Y-54482D01*
X70008Y-54520D01*
X69938Y-54590D01*
X69900Y-54682D01*
X69899Y-54782D01*
X69900Y-55120D01*
X69962Y-55182D01*
X70600Y-55182D01*
X70600Y-55282D01*
X69962Y-55282D01*
X69900Y-55345D01*
X69899Y-55683D01*
X69900Y-55782D01*
X69938Y-55874D01*
X70008Y-55944D01*
X70100Y-55982D01*
X70537Y-55982D01*
X70600Y-55920D01*
X70600Y-56100D01*
X68700Y-56100D01*
X68700Y-52918D01*
X68586Y-52643D01*
X68375Y-52431D01*
X68099Y-52317D01*
X67801Y-52317D01*
X67525Y-52431D01*
X67314Y-52641D01*
X67200Y-52917D01*
X67199Y-53215D01*
X67313Y-53491D01*
X67524Y-53702D01*
X67800Y-53817D01*
X68098Y-53817D01*
X68374Y-53703D01*
X68585Y-53492D01*
X68699Y-53217D01*
X68700Y-52918D01*
X68700Y-56100D01*
X68700Y-56100D01*
X68700Y-55683D01*
X68700Y-54782D01*
X68699Y-54682D01*
X68661Y-54590D01*
X68591Y-54520D01*
X68499Y-54482D01*
X68062Y-54482D01*
X68000Y-54545D01*
X68000Y-55182D01*
X68637Y-55182D01*
X68700Y-55120D01*
X68700Y-54782D01*
X68700Y-55683D01*
X68700Y-55345D01*
X68637Y-55282D01*
X68000Y-55282D01*
X68000Y-55920D01*
X68062Y-55982D01*
X68499Y-55982D01*
X68591Y-55944D01*
X68661Y-55874D01*
X68699Y-55782D01*
X68700Y-55683D01*
X68700Y-56100D01*
X67900Y-56100D01*
X67900Y-55920D01*
X67900Y-55282D01*
X67900Y-55182D01*
X67900Y-54545D01*
X67837Y-54482D01*
X67400Y-54482D01*
X67308Y-54520D01*
X67238Y-54590D01*
X67200Y-54682D01*
X67199Y-54782D01*
X67200Y-55120D01*
X67262Y-55182D01*
X67900Y-55182D01*
X67900Y-55282D01*
X67262Y-55282D01*
X67200Y-55345D01*
X67199Y-55683D01*
X67200Y-55782D01*
X67238Y-55874D01*
X67308Y-55944D01*
X67400Y-55982D01*
X67837Y-55982D01*
X67900Y-55920D01*
X67900Y-56100D01*
X66000Y-56100D01*
X66000Y-52918D01*
X65886Y-52643D01*
X65675Y-52431D01*
X65399Y-52317D01*
X65101Y-52317D01*
X64825Y-52431D01*
X64614Y-52641D01*
X64500Y-52917D01*
X64499Y-53215D01*
X64613Y-53491D01*
X64824Y-53702D01*
X65100Y-53817D01*
X65398Y-53817D01*
X65674Y-53703D01*
X65885Y-53492D01*
X65999Y-53217D01*
X66000Y-52918D01*
X66000Y-56100D01*
X66000Y-56100D01*
X66000Y-55683D01*
X66000Y-54782D01*
X65999Y-54682D01*
X65961Y-54590D01*
X65891Y-54520D01*
X65799Y-54482D01*
X65362Y-54482D01*
X65300Y-54545D01*
X65300Y-55182D01*
X65937Y-55182D01*
X66000Y-55120D01*
X66000Y-54782D01*
X66000Y-55683D01*
X66000Y-55345D01*
X65937Y-55282D01*
X65300Y-55282D01*
X65300Y-55920D01*
X65362Y-55982D01*
X65799Y-55982D01*
X65891Y-55944D01*
X65961Y-55874D01*
X65999Y-55782D01*
X66000Y-55683D01*
X66000Y-56100D01*
X65200Y-56100D01*
X65200Y-55920D01*
X65200Y-55282D01*
X65200Y-55182D01*
X65200Y-54545D01*
X65137Y-54482D01*
X64700Y-54482D01*
X64608Y-54520D01*
X64538Y-54590D01*
X64500Y-54682D01*
X64499Y-54782D01*
X64500Y-55120D01*
X64562Y-55182D01*
X65200Y-55182D01*
X65200Y-55282D01*
X64562Y-55282D01*
X64500Y-55345D01*
X64499Y-55683D01*
X64500Y-55782D01*
X64538Y-55874D01*
X64608Y-55944D01*
X64700Y-55982D01*
X65137Y-55982D01*
X65200Y-55920D01*
X65200Y-56100D01*
X63300Y-56100D01*
X63300Y-52918D01*
X63186Y-52643D01*
X62975Y-52431D01*
X62699Y-52317D01*
X62401Y-52317D01*
X62125Y-52431D01*
X61914Y-52641D01*
X61800Y-52917D01*
X61799Y-53215D01*
X61913Y-53491D01*
X62124Y-53702D01*
X62400Y-53817D01*
X62698Y-53817D01*
X62974Y-53703D01*
X63185Y-53492D01*
X63299Y-53217D01*
X63300Y-52918D01*
X63300Y-56100D01*
X63300Y-56100D01*
X63300Y-55683D01*
X63300Y-54782D01*
X63299Y-54682D01*
X63261Y-54590D01*
X63191Y-54520D01*
X63099Y-54482D01*
X62662Y-54482D01*
X62600Y-54545D01*
X62600Y-55182D01*
X63237Y-55182D01*
X63300Y-55120D01*
X63300Y-54782D01*
X63300Y-55683D01*
X63300Y-55345D01*
X63237Y-55282D01*
X62600Y-55282D01*
X62600Y-55920D01*
X62662Y-55982D01*
X63099Y-55982D01*
X63191Y-55944D01*
X63261Y-55874D01*
X63299Y-55782D01*
X63300Y-55683D01*
X63300Y-56100D01*
X62500Y-56100D01*
X62500Y-55920D01*
X62500Y-55282D01*
X62500Y-55182D01*
X62500Y-54545D01*
X62437Y-54482D01*
X62000Y-54482D01*
X61908Y-54520D01*
X61838Y-54590D01*
X61800Y-54682D01*
X61799Y-54782D01*
X61800Y-55120D01*
X61862Y-55182D01*
X62500Y-55182D01*
X62500Y-55282D01*
X61862Y-55282D01*
X61800Y-55345D01*
X61799Y-55683D01*
X61800Y-55782D01*
X61838Y-55874D01*
X61908Y-55944D01*
X62000Y-55982D01*
X62437Y-55982D01*
X62500Y-55920D01*
X62500Y-56100D01*
X61670Y-56100D01*
X61300Y-55729D01*
X61300Y-54550D01*
X61300Y-49020D01*
X61970Y-48350D01*
X73150Y-48350D01*
X77429Y-48350D01*
X77508Y-48429D01*
X77450Y-48487D01*
X77450Y-48850D01*
X77457Y-48850D01*
X77457Y-48950D01*
X77450Y-48950D01*
X77450Y-49312D01*
X77512Y-49375D01*
X77574Y-49375D01*
X77600Y-49364D01*
X77600Y-49370D01*
X78250Y-50020D01*
X78250Y-52155D01*
X78225Y-52215D01*
X78224Y-52384D01*
X78250Y-52444D01*
X78250Y-53179D01*
X78250Y-53179D01*
G37*
G54D37*
X78250Y-53179D02*
X78029Y-53400D01*
X77350Y-53400D01*
X77350Y-49312D01*
X77350Y-48950D01*
X77350Y-48850D01*
X77350Y-48487D01*
X77287Y-48425D01*
X77225Y-48424D01*
X77133Y-48462D01*
X77063Y-48533D01*
X77025Y-48625D01*
X77024Y-48724D01*
X77025Y-48787D01*
X77087Y-48850D01*
X77350Y-48850D01*
X77350Y-48950D01*
X77087Y-48950D01*
X77025Y-49012D01*
X77024Y-49075D01*
X77025Y-49174D01*
X77063Y-49266D01*
X77133Y-49337D01*
X77225Y-49375D01*
X77287Y-49375D01*
X77350Y-49312D01*
X77350Y-53400D01*
X74529Y-53400D01*
X74411Y-53518D01*
X74359Y-53539D01*
X74239Y-53658D01*
X74218Y-53710D01*
X74064Y-53864D01*
X73950Y-53979D01*
X73950Y-54970D01*
X74429Y-55450D01*
X75929Y-55450D01*
X76350Y-55870D01*
X76350Y-59729D01*
X76200Y-59879D01*
X76200Y-56624D01*
X76200Y-55975D01*
X76162Y-55883D01*
X76091Y-55813D01*
X75999Y-55775D01*
X75900Y-55774D01*
X75312Y-55775D01*
X75250Y-55837D01*
X75250Y-56250D01*
X76137Y-56250D01*
X76200Y-56187D01*
X76200Y-55975D01*
X76200Y-56624D01*
X76200Y-56412D01*
X76137Y-56350D01*
X75250Y-56350D01*
X75250Y-56762D01*
X75312Y-56825D01*
X75900Y-56825D01*
X75999Y-56824D01*
X76091Y-56786D01*
X76162Y-56716D01*
X76200Y-56624D01*
X76200Y-59879D01*
X75977Y-60101D01*
X75977Y-59083D01*
X75977Y-58316D01*
X75977Y-58216D01*
X75939Y-58125D01*
X75868Y-58054D01*
X75777Y-58016D01*
X75308Y-58016D01*
X75246Y-58079D01*
X75246Y-58650D01*
X75915Y-58650D01*
X75977Y-58587D01*
X75977Y-58316D01*
X75977Y-59083D01*
X75977Y-58812D01*
X75915Y-58750D01*
X75246Y-58750D01*
X75246Y-59320D01*
X75308Y-59383D01*
X75777Y-59383D01*
X75868Y-59345D01*
X75939Y-59274D01*
X75977Y-59183D01*
X75977Y-59083D01*
X75977Y-60101D01*
X75929Y-60150D01*
X75150Y-60150D01*
X75150Y-56762D01*
X75150Y-56350D01*
X75150Y-56250D01*
X75150Y-55837D01*
X75087Y-55775D01*
X74499Y-55774D01*
X74400Y-55775D01*
X74308Y-55813D01*
X74237Y-55883D01*
X74199Y-55975D01*
X74200Y-56187D01*
X74262Y-56250D01*
X75150Y-56250D01*
X75150Y-56350D01*
X74262Y-56350D01*
X74200Y-56412D01*
X74199Y-56624D01*
X74237Y-56716D01*
X74308Y-56786D01*
X74400Y-56824D01*
X74499Y-56825D01*
X75087Y-56825D01*
X75150Y-56762D01*
X75150Y-60150D01*
X75146Y-60150D01*
X75146Y-59320D01*
X75146Y-58750D01*
X75146Y-58650D01*
X75146Y-58079D01*
X75083Y-58016D01*
X74615Y-58016D01*
X74523Y-58054D01*
X74452Y-58125D01*
X74414Y-58216D01*
X74414Y-58316D01*
X74414Y-58587D01*
X74477Y-58650D01*
X75146Y-58650D01*
X75146Y-58750D01*
X74477Y-58750D01*
X74414Y-58812D01*
X74414Y-59083D01*
X74414Y-59183D01*
X74452Y-59274D01*
X74523Y-59345D01*
X74615Y-59383D01*
X75083Y-59383D01*
X75146Y-59320D01*
X75146Y-60150D01*
X74420Y-60150D01*
X73925Y-59654D01*
X73925Y-52474D01*
X73925Y-52125D01*
X73887Y-52033D01*
X73853Y-52000D01*
X73886Y-51966D01*
X73924Y-51874D01*
X73925Y-51775D01*
X73925Y-51525D01*
X73887Y-51433D01*
X73816Y-51363D01*
X73750Y-51335D01*
X73750Y-50862D01*
X73818Y-50793D01*
X73856Y-50701D01*
X73857Y-50602D01*
X73857Y-50288D01*
X73820Y-50199D01*
X73856Y-50111D01*
X73857Y-50012D01*
X73857Y-49698D01*
X73819Y-49606D01*
X73800Y-49587D01*
X73800Y-49551D01*
X73810Y-49541D01*
X73874Y-49384D01*
X73875Y-49215D01*
X73810Y-49059D01*
X73691Y-48939D01*
X73534Y-48875D01*
X73365Y-48874D01*
X73209Y-48939D01*
X73089Y-49058D01*
X73025Y-49215D01*
X73024Y-49384D01*
X73089Y-49540D01*
X73100Y-49550D01*
X73100Y-49587D01*
X73081Y-49606D01*
X73043Y-49698D01*
X73042Y-49797D01*
X73042Y-50111D01*
X73079Y-50200D01*
X73043Y-50288D01*
X73042Y-50387D01*
X73042Y-50701D01*
X73080Y-50793D01*
X73150Y-50862D01*
X73150Y-51335D01*
X73083Y-51362D01*
X73013Y-51433D01*
X72975Y-51525D01*
X72974Y-51624D01*
X72974Y-51874D01*
X73012Y-51966D01*
X73046Y-52000D01*
X73012Y-52033D01*
X72974Y-52125D01*
X72975Y-52187D01*
X73037Y-52250D01*
X73400Y-52250D01*
X73400Y-52242D01*
X73500Y-52242D01*
X73500Y-52250D01*
X73862Y-52250D01*
X73925Y-52187D01*
X73925Y-52125D01*
X73925Y-52474D01*
X73925Y-52412D01*
X73862Y-52350D01*
X73500Y-52350D01*
X73500Y-52612D01*
X73562Y-52675D01*
X73625Y-52675D01*
X73724Y-52674D01*
X73816Y-52636D01*
X73887Y-52566D01*
X73925Y-52474D01*
X73925Y-59654D01*
X73400Y-59129D01*
X73400Y-52612D01*
X73400Y-52350D01*
X73037Y-52350D01*
X72975Y-52412D01*
X72974Y-52474D01*
X73012Y-52566D01*
X73083Y-52636D01*
X73175Y-52674D01*
X73274Y-52675D01*
X73337Y-52675D01*
X73400Y-52612D01*
X73400Y-59129D01*
X73350Y-59079D01*
X73350Y-56579D01*
X72870Y-56100D01*
X71400Y-56100D01*
X71400Y-52918D01*
X71286Y-52643D01*
X71075Y-52431D01*
X70799Y-52317D01*
X70501Y-52317D01*
X70225Y-52431D01*
X70014Y-52641D01*
X69900Y-52917D01*
X69899Y-53215D01*
X70013Y-53491D01*
X70224Y-53702D01*
X70500Y-53817D01*
X70798Y-53817D01*
X71074Y-53703D01*
X71285Y-53492D01*
X71399Y-53217D01*
X71400Y-52918D01*
X71400Y-56100D01*
X71400Y-56100D01*
X71400Y-55683D01*
X71400Y-54782D01*
X71399Y-54682D01*
X71361Y-54590D01*
X71291Y-54520D01*
X71199Y-54482D01*
X70762Y-54482D01*
X70700Y-54545D01*
X70700Y-55182D01*
X71337Y-55182D01*
X71400Y-55120D01*
X71400Y-54782D01*
X71400Y-55683D01*
X71400Y-55345D01*
X71337Y-55282D01*
X70700Y-55282D01*
X70700Y-55920D01*
X70762Y-55982D01*
X71199Y-55982D01*
X71291Y-55944D01*
X71361Y-55874D01*
X71399Y-55782D01*
X71400Y-55683D01*
X71400Y-56100D01*
X70600Y-56100D01*
X70600Y-55920D01*
X70600Y-55282D01*
X70600Y-55182D01*
X70600Y-54545D01*
X70537Y-54482D01*
X70100Y-54482D01*
X70008Y-54520D01*
X69938Y-54590D01*
X69900Y-54682D01*
X69899Y-54782D01*
X69900Y-55120D01*
X69962Y-55182D01*
X70600Y-55182D01*
X70600Y-55282D01*
X69962Y-55282D01*
X69900Y-55345D01*
X69899Y-55683D01*
X69900Y-55782D01*
X69938Y-55874D01*
X70008Y-55944D01*
X70100Y-55982D01*
X70537Y-55982D01*
X70600Y-55920D01*
X70600Y-56100D01*
X68700Y-56100D01*
X68700Y-52918D01*
X68586Y-52643D01*
X68375Y-52431D01*
X68099Y-52317D01*
X67801Y-52317D01*
X67525Y-52431D01*
X67314Y-52641D01*
X67200Y-52917D01*
X67199Y-53215D01*
X67313Y-53491D01*
X67524Y-53702D01*
X67800Y-53817D01*
X68098Y-53817D01*
X68374Y-53703D01*
X68585Y-53492D01*
X68699Y-53217D01*
X68700Y-52918D01*
X68700Y-56100D01*
X68700Y-56100D01*
X68700Y-55683D01*
X68700Y-54782D01*
X68699Y-54682D01*
X68661Y-54590D01*
X68591Y-54520D01*
X68499Y-54482D01*
X68062Y-54482D01*
X68000Y-54545D01*
X68000Y-55182D01*
X68637Y-55182D01*
X68700Y-55120D01*
X68700Y-54782D01*
X68700Y-55683D01*
X68700Y-55345D01*
X68637Y-55282D01*
X68000Y-55282D01*
X68000Y-55920D01*
X68062Y-55982D01*
X68499Y-55982D01*
X68591Y-55944D01*
X68661Y-55874D01*
X68699Y-55782D01*
X68700Y-55683D01*
X68700Y-56100D01*
X67900Y-56100D01*
X67900Y-55920D01*
X67900Y-55282D01*
X67900Y-55182D01*
X67900Y-54545D01*
X67837Y-54482D01*
X67400Y-54482D01*
X67308Y-54520D01*
X67238Y-54590D01*
X67200Y-54682D01*
X67199Y-54782D01*
X67200Y-55120D01*
X67262Y-55182D01*
X67900Y-55182D01*
X67900Y-55282D01*
X67262Y-55282D01*
X67200Y-55345D01*
X67199Y-55683D01*
X67200Y-55782D01*
X67238Y-55874D01*
X67308Y-55944D01*
X67400Y-55982D01*
X67837Y-55982D01*
X67900Y-55920D01*
X67900Y-56100D01*
X66000Y-56100D01*
X66000Y-52918D01*
X65886Y-52643D01*
X65675Y-52431D01*
X65399Y-52317D01*
X65101Y-52317D01*
X64825Y-52431D01*
X64614Y-52641D01*
X64500Y-52917D01*
X64499Y-53215D01*
X64613Y-53491D01*
X64824Y-53702D01*
X65100Y-53817D01*
X65398Y-53817D01*
X65674Y-53703D01*
X65885Y-53492D01*
X65999Y-53217D01*
X66000Y-52918D01*
X66000Y-56100D01*
X66000Y-56100D01*
X66000Y-55683D01*
X66000Y-54782D01*
X65999Y-54682D01*
X65961Y-54590D01*
X65891Y-54520D01*
X65799Y-54482D01*
X65362Y-54482D01*
X65300Y-54545D01*
X65300Y-55182D01*
X65937Y-55182D01*
X66000Y-55120D01*
X66000Y-54782D01*
X66000Y-55683D01*
X66000Y-55345D01*
X65937Y-55282D01*
X65300Y-55282D01*
X65300Y-55920D01*
X65362Y-55982D01*
X65799Y-55982D01*
X65891Y-55944D01*
X65961Y-55874D01*
X65999Y-55782D01*
X66000Y-55683D01*
X66000Y-56100D01*
X65200Y-56100D01*
X65200Y-55920D01*
X65200Y-55282D01*
X65200Y-55182D01*
X65200Y-54545D01*
X65137Y-54482D01*
X64700Y-54482D01*
X64608Y-54520D01*
X64538Y-54590D01*
X64500Y-54682D01*
X64499Y-54782D01*
X64500Y-55120D01*
X64562Y-55182D01*
X65200Y-55182D01*
X65200Y-55282D01*
X64562Y-55282D01*
X64500Y-55345D01*
X64499Y-55683D01*
X64500Y-55782D01*
X64538Y-55874D01*
X64608Y-55944D01*
X64700Y-55982D01*
X65137Y-55982D01*
X65200Y-55920D01*
X65200Y-56100D01*
X63300Y-56100D01*
X63300Y-52918D01*
X63186Y-52643D01*
X62975Y-52431D01*
X62699Y-52317D01*
X62401Y-52317D01*
X62125Y-52431D01*
X61914Y-52641D01*
X61800Y-52917D01*
X61799Y-53215D01*
X61913Y-53491D01*
X62124Y-53702D01*
X62400Y-53817D01*
X62698Y-53817D01*
X62974Y-53703D01*
X63185Y-53492D01*
X63299Y-53217D01*
X63300Y-52918D01*
X63300Y-56100D01*
X63300Y-56100D01*
X63300Y-55683D01*
X63300Y-54782D01*
X63299Y-54682D01*
X63261Y-54590D01*
X63191Y-54520D01*
X63099Y-54482D01*
X62662Y-54482D01*
X62600Y-54545D01*
X62600Y-55182D01*
X63237Y-55182D01*
X63300Y-55120D01*
X63300Y-54782D01*
X63300Y-55683D01*
X63300Y-55345D01*
X63237Y-55282D01*
X62600Y-55282D01*
X62600Y-55920D01*
X62662Y-55982D01*
X63099Y-55982D01*
X63191Y-55944D01*
X63261Y-55874D01*
X63299Y-55782D01*
X63300Y-55683D01*
X63300Y-56100D01*
X62500Y-56100D01*
X62500Y-55920D01*
X62500Y-55282D01*
X62500Y-55182D01*
X62500Y-54545D01*
X62437Y-54482D01*
X62000Y-54482D01*
X61908Y-54520D01*
X61838Y-54590D01*
X61800Y-54682D01*
X61799Y-54782D01*
X61800Y-55120D01*
X61862Y-55182D01*
X62500Y-55182D01*
X62500Y-55282D01*
X61862Y-55282D01*
X61800Y-55345D01*
X61799Y-55683D01*
X61800Y-55782D01*
X61838Y-55874D01*
X61908Y-55944D01*
X62000Y-55982D01*
X62437Y-55982D01*
X62500Y-55920D01*
X62500Y-56100D01*
X61670Y-56100D01*
X61300Y-55729D01*
X61300Y-54550D01*
X61300Y-49020D01*
X61970Y-48350D01*
X73150Y-48350D01*
X77429Y-48350D01*
X77508Y-48429D01*
X77450Y-48487D01*
X77450Y-48850D01*
X77457Y-48850D01*
X77457Y-48950D01*
X77450Y-48950D01*
X77450Y-49312D01*
X77512Y-49375D01*
X77574Y-49375D01*
X77600Y-49364D01*
X77600Y-49370D01*
X78250Y-50020D01*
X78250Y-52155D01*
X78225Y-52215D01*
X78224Y-52384D01*
X78250Y-52444D01*
X78250Y-53179D01*
G54D10*
G36*
X94100Y-63229D02*
X93979Y-63350D01*
X93775Y-63350D01*
X93775Y-62065D01*
X93710Y-61909D01*
X93591Y-61789D01*
X93434Y-61725D01*
X93265Y-61724D01*
X93109Y-61789D01*
X93099Y-61800D01*
X93012Y-61800D01*
X92993Y-61781D01*
X92901Y-61743D01*
X92802Y-61742D01*
X92488Y-61742D01*
X92400Y-61779D01*
X92311Y-61742D01*
X92217Y-61743D01*
X92155Y-61805D01*
X92155Y-62100D01*
X92162Y-62100D01*
X92162Y-62200D01*
X92155Y-62200D01*
X92155Y-62494D01*
X92217Y-62557D01*
X92311Y-62557D01*
X92400Y-62520D01*
X92488Y-62556D01*
X92587Y-62557D01*
X92901Y-62557D01*
X92993Y-62519D01*
X93012Y-62500D01*
X93098Y-62500D01*
X93108Y-62510D01*
X93265Y-62574D01*
X93434Y-62575D01*
X93590Y-62510D01*
X93710Y-62391D01*
X93774Y-62234D01*
X93775Y-62065D01*
X93775Y-63350D01*
X92850Y-63350D01*
X92450Y-63350D01*
X92055Y-63350D01*
X92055Y-62494D01*
X92055Y-62200D01*
X92055Y-62100D01*
X92055Y-61805D01*
X91992Y-61743D01*
X91898Y-61742D01*
X91806Y-61780D01*
X91736Y-61851D01*
X91698Y-61943D01*
X91697Y-62042D01*
X91698Y-62037D01*
X91760Y-62100D01*
X92055Y-62100D01*
X92055Y-62200D01*
X91760Y-62200D01*
X91698Y-62262D01*
X91697Y-62257D01*
X91698Y-62356D01*
X91736Y-62448D01*
X91806Y-62519D01*
X91898Y-62557D01*
X91992Y-62557D01*
X92055Y-62494D01*
X92055Y-63350D01*
X90682Y-63350D01*
X90682Y-59201D01*
X90682Y-56401D01*
X90682Y-53701D01*
X90682Y-51001D01*
X90568Y-50725D01*
X90358Y-50514D01*
X90082Y-50400D01*
X89784Y-50399D01*
X89508Y-50513D01*
X89297Y-50724D01*
X89182Y-51000D01*
X89182Y-51298D01*
X89296Y-51574D01*
X89507Y-51785D01*
X89782Y-51899D01*
X90081Y-51900D01*
X90356Y-51786D01*
X90568Y-51575D01*
X90682Y-51299D01*
X90682Y-51001D01*
X90682Y-53701D01*
X90568Y-53425D01*
X90358Y-53214D01*
X90082Y-53100D01*
X89784Y-53099D01*
X89508Y-53213D01*
X89297Y-53424D01*
X89182Y-53700D01*
X89182Y-53998D01*
X89296Y-54274D01*
X89507Y-54485D01*
X89782Y-54599D01*
X90081Y-54600D01*
X90356Y-54486D01*
X90568Y-54275D01*
X90682Y-53999D01*
X90682Y-53701D01*
X90682Y-56401D01*
X90568Y-56125D01*
X90358Y-55914D01*
X90082Y-55800D01*
X89784Y-55799D01*
X89508Y-55913D01*
X89297Y-56124D01*
X89182Y-56400D01*
X89182Y-56698D01*
X89296Y-56974D01*
X89507Y-57185D01*
X89782Y-57299D01*
X90081Y-57300D01*
X90356Y-57186D01*
X90568Y-56975D01*
X90682Y-56699D01*
X90682Y-56401D01*
X90682Y-59201D01*
X90568Y-58925D01*
X90358Y-58714D01*
X90082Y-58600D01*
X89784Y-58599D01*
X89508Y-58713D01*
X89297Y-58924D01*
X89182Y-59200D01*
X89182Y-59498D01*
X89296Y-59774D01*
X89507Y-59985D01*
X89782Y-60099D01*
X90081Y-60100D01*
X90356Y-59986D01*
X90568Y-59775D01*
X90682Y-59499D01*
X90682Y-59201D01*
X90682Y-63350D01*
X88517Y-63350D01*
X88517Y-59899D01*
X88517Y-58800D01*
X88517Y-57099D01*
X88517Y-56000D01*
X88517Y-54399D01*
X88517Y-53300D01*
X88517Y-51699D01*
X88517Y-50600D01*
X88479Y-50508D01*
X88409Y-50438D01*
X88317Y-50400D01*
X88217Y-50399D01*
X87879Y-50400D01*
X87817Y-50462D01*
X87817Y-51100D01*
X88454Y-51100D01*
X88517Y-51037D01*
X88517Y-50600D01*
X88517Y-51699D01*
X88517Y-51262D01*
X88454Y-51200D01*
X87817Y-51200D01*
X87817Y-51837D01*
X87879Y-51900D01*
X88217Y-51900D01*
X88317Y-51899D01*
X88409Y-51861D01*
X88479Y-51791D01*
X88517Y-51699D01*
X88517Y-53300D01*
X88479Y-53208D01*
X88409Y-53138D01*
X88317Y-53100D01*
X88217Y-53099D01*
X87879Y-53100D01*
X87817Y-53162D01*
X87817Y-53800D01*
X88454Y-53800D01*
X88517Y-53737D01*
X88517Y-53300D01*
X88517Y-54399D01*
X88517Y-53962D01*
X88454Y-53900D01*
X87817Y-53900D01*
X87817Y-54537D01*
X87879Y-54600D01*
X88217Y-54600D01*
X88317Y-54599D01*
X88409Y-54561D01*
X88479Y-54491D01*
X88517Y-54399D01*
X88517Y-56000D01*
X88479Y-55908D01*
X88409Y-55838D01*
X88317Y-55800D01*
X88217Y-55799D01*
X87879Y-55800D01*
X87817Y-55862D01*
X87817Y-56500D01*
X88454Y-56500D01*
X88517Y-56437D01*
X88517Y-56000D01*
X88517Y-57099D01*
X88517Y-56662D01*
X88454Y-56600D01*
X87817Y-56600D01*
X87817Y-57237D01*
X87879Y-57300D01*
X88217Y-57300D01*
X88317Y-57299D01*
X88409Y-57261D01*
X88479Y-57191D01*
X88517Y-57099D01*
X88517Y-58800D01*
X88479Y-58708D01*
X88409Y-58638D01*
X88317Y-58600D01*
X88217Y-58599D01*
X87879Y-58600D01*
X87817Y-58662D01*
X87817Y-59300D01*
X88454Y-59300D01*
X88517Y-59237D01*
X88517Y-58800D01*
X88517Y-59899D01*
X88517Y-59462D01*
X88454Y-59400D01*
X87817Y-59400D01*
X87817Y-60037D01*
X87879Y-60100D01*
X88217Y-60100D01*
X88317Y-60099D01*
X88409Y-60061D01*
X88479Y-59991D01*
X88517Y-59899D01*
X88517Y-63350D01*
X88070Y-63350D01*
X87717Y-62996D01*
X87717Y-60037D01*
X87717Y-59400D01*
X87717Y-59300D01*
X87717Y-58662D01*
X87717Y-57237D01*
X87717Y-56600D01*
X87717Y-56500D01*
X87717Y-55862D01*
X87717Y-54537D01*
X87717Y-53900D01*
X87717Y-53800D01*
X87717Y-53162D01*
X87717Y-51837D01*
X87717Y-51200D01*
X87717Y-51100D01*
X87717Y-50462D01*
X87654Y-50400D01*
X87316Y-50399D01*
X87217Y-50400D01*
X87125Y-50438D01*
X87055Y-50508D01*
X87017Y-50600D01*
X87017Y-51037D01*
X87079Y-51100D01*
X87717Y-51100D01*
X87717Y-51200D01*
X87079Y-51200D01*
X87017Y-51262D01*
X87017Y-51699D01*
X87055Y-51791D01*
X87125Y-51861D01*
X87217Y-51899D01*
X87316Y-51900D01*
X87654Y-51900D01*
X87717Y-51837D01*
X87717Y-53162D01*
X87654Y-53100D01*
X87316Y-53099D01*
X87217Y-53100D01*
X87125Y-53138D01*
X87055Y-53208D01*
X87017Y-53300D01*
X87017Y-53737D01*
X87079Y-53800D01*
X87717Y-53800D01*
X87717Y-53900D01*
X87079Y-53900D01*
X87017Y-53962D01*
X87017Y-54399D01*
X87055Y-54491D01*
X87125Y-54561D01*
X87217Y-54599D01*
X87316Y-54600D01*
X87654Y-54600D01*
X87717Y-54537D01*
X87717Y-55862D01*
X87654Y-55800D01*
X87316Y-55799D01*
X87217Y-55800D01*
X87125Y-55838D01*
X87055Y-55908D01*
X87017Y-56000D01*
X87017Y-56437D01*
X87079Y-56500D01*
X87717Y-56500D01*
X87717Y-56600D01*
X87079Y-56600D01*
X87017Y-56662D01*
X87017Y-57099D01*
X87055Y-57191D01*
X87125Y-57261D01*
X87217Y-57299D01*
X87316Y-57300D01*
X87654Y-57300D01*
X87717Y-57237D01*
X87717Y-58662D01*
X87654Y-58600D01*
X87316Y-58599D01*
X87217Y-58600D01*
X87125Y-58638D01*
X87055Y-58708D01*
X87017Y-58800D01*
X87017Y-59237D01*
X87079Y-59300D01*
X87717Y-59300D01*
X87717Y-59400D01*
X87079Y-59400D01*
X87017Y-59462D01*
X87017Y-59899D01*
X87055Y-59991D01*
X87125Y-60061D01*
X87217Y-60099D01*
X87316Y-60100D01*
X87654Y-60100D01*
X87717Y-60037D01*
X87717Y-62996D01*
X87535Y-62814D01*
X86600Y-61879D01*
X86600Y-56624D01*
X86600Y-55975D01*
X86562Y-55883D01*
X86491Y-55813D01*
X86399Y-55775D01*
X86300Y-55774D01*
X85712Y-55775D01*
X85650Y-55837D01*
X85650Y-56250D01*
X86537Y-56250D01*
X86600Y-56187D01*
X86600Y-55975D01*
X86600Y-56624D01*
X86600Y-56412D01*
X86537Y-56350D01*
X85650Y-56350D01*
X85650Y-56762D01*
X85712Y-56825D01*
X86300Y-56825D01*
X86399Y-56824D01*
X86491Y-56786D01*
X86562Y-56716D01*
X86600Y-56624D01*
X86600Y-61879D01*
X86385Y-61664D01*
X86385Y-59083D01*
X86385Y-58316D01*
X86385Y-58216D01*
X86347Y-58125D01*
X86276Y-58054D01*
X86184Y-58016D01*
X85716Y-58016D01*
X85653Y-58079D01*
X85653Y-58650D01*
X86322Y-58650D01*
X86385Y-58587D01*
X86385Y-58316D01*
X86385Y-59083D01*
X86385Y-58812D01*
X86322Y-58750D01*
X85653Y-58750D01*
X85653Y-59320D01*
X85716Y-59383D01*
X86184Y-59383D01*
X86276Y-59345D01*
X86347Y-59274D01*
X86385Y-59183D01*
X86385Y-59083D01*
X86385Y-61664D01*
X85553Y-60833D01*
X85553Y-59320D01*
X85553Y-58750D01*
X85553Y-58650D01*
X85553Y-58079D01*
X85550Y-58075D01*
X85550Y-56762D01*
X85550Y-56350D01*
X85550Y-56250D01*
X85550Y-55837D01*
X85487Y-55775D01*
X84899Y-55774D01*
X84800Y-55775D01*
X84708Y-55813D01*
X84637Y-55883D01*
X84599Y-55975D01*
X84600Y-56187D01*
X84662Y-56250D01*
X85550Y-56250D01*
X85550Y-56350D01*
X84662Y-56350D01*
X84600Y-56412D01*
X84599Y-56624D01*
X84637Y-56716D01*
X84708Y-56786D01*
X84800Y-56824D01*
X84899Y-56825D01*
X85487Y-56825D01*
X85550Y-56762D01*
X85550Y-58075D01*
X85491Y-58016D01*
X85022Y-58016D01*
X84931Y-58054D01*
X84860Y-58125D01*
X84822Y-58216D01*
X84822Y-58316D01*
X84822Y-58587D01*
X84884Y-58650D01*
X85553Y-58650D01*
X85553Y-58750D01*
X84884Y-58750D01*
X84822Y-58812D01*
X84822Y-59083D01*
X84822Y-59183D01*
X84860Y-59274D01*
X84931Y-59345D01*
X85022Y-59383D01*
X85491Y-59383D01*
X85553Y-59320D01*
X85553Y-60833D01*
X84450Y-59729D01*
X84450Y-55870D01*
X84970Y-55350D01*
X86270Y-55350D01*
X86700Y-54920D01*
X86700Y-53079D01*
X86750Y-53099D01*
X86909Y-53100D01*
X87056Y-53039D01*
X87168Y-52926D01*
X87229Y-52779D01*
X87230Y-52620D01*
X87169Y-52473D01*
X87056Y-52361D01*
X86909Y-52300D01*
X86750Y-52299D01*
X86700Y-52320D01*
X86700Y-52001D01*
X86710Y-51991D01*
X86774Y-51834D01*
X86775Y-51665D01*
X86710Y-51509D01*
X86700Y-51499D01*
X86700Y-51150D01*
X86700Y-50379D01*
X86750Y-50399D01*
X86909Y-50400D01*
X87056Y-50339D01*
X87168Y-50226D01*
X87229Y-50079D01*
X87230Y-49920D01*
X87169Y-49773D01*
X87056Y-49661D01*
X86909Y-49600D01*
X86750Y-49599D01*
X86700Y-49620D01*
X86700Y-49579D01*
X86520Y-49400D01*
X84025Y-49400D01*
X84025Y-49340D01*
X83960Y-49184D01*
X83841Y-49064D01*
X83684Y-49000D01*
X83515Y-48999D01*
X83359Y-49064D01*
X83239Y-49183D01*
X83175Y-49340D01*
X83175Y-49374D01*
X83175Y-49075D01*
X83175Y-48724D01*
X83174Y-48625D01*
X83136Y-48533D01*
X83066Y-48462D01*
X82974Y-48424D01*
X82912Y-48425D01*
X82850Y-48487D01*
X82850Y-48850D01*
X83112Y-48850D01*
X83175Y-48787D01*
X83175Y-48724D01*
X83175Y-49075D01*
X83175Y-49012D01*
X83112Y-48950D01*
X82850Y-48950D01*
X82850Y-49312D01*
X82912Y-49375D01*
X82974Y-49375D01*
X83066Y-49337D01*
X83136Y-49266D01*
X83174Y-49174D01*
X83175Y-49075D01*
X83175Y-49374D01*
X83175Y-49400D01*
X82720Y-49400D01*
X82691Y-49370D01*
X82750Y-49312D01*
X82750Y-48950D01*
X82742Y-48950D01*
X82742Y-48850D01*
X82750Y-48850D01*
X82750Y-48487D01*
X82687Y-48425D01*
X82650Y-48424D01*
X82650Y-48420D01*
X82820Y-48250D01*
X88500Y-48250D01*
X93220Y-48250D01*
X93100Y-48540D01*
X93099Y-48957D01*
X93259Y-49344D01*
X93554Y-49639D01*
X93940Y-49799D01*
X94100Y-49799D01*
X94100Y-61250D01*
X94100Y-61700D01*
X94100Y-62100D01*
X94100Y-63229D01*
X94100Y-63229D01*
G37*
G54D37*
X94100Y-63229D02*
X93979Y-63350D01*
X93775Y-63350D01*
X93775Y-62065D01*
X93710Y-61909D01*
X93591Y-61789D01*
X93434Y-61725D01*
X93265Y-61724D01*
X93109Y-61789D01*
X93099Y-61800D01*
X93012Y-61800D01*
X92993Y-61781D01*
X92901Y-61743D01*
X92802Y-61742D01*
X92488Y-61742D01*
X92400Y-61779D01*
X92311Y-61742D01*
X92217Y-61743D01*
X92155Y-61805D01*
X92155Y-62100D01*
X92162Y-62100D01*
X92162Y-62200D01*
X92155Y-62200D01*
X92155Y-62494D01*
X92217Y-62557D01*
X92311Y-62557D01*
X92400Y-62520D01*
X92488Y-62556D01*
X92587Y-62557D01*
X92901Y-62557D01*
X92993Y-62519D01*
X93012Y-62500D01*
X93098Y-62500D01*
X93108Y-62510D01*
X93265Y-62574D01*
X93434Y-62575D01*
X93590Y-62510D01*
X93710Y-62391D01*
X93774Y-62234D01*
X93775Y-62065D01*
X93775Y-63350D01*
X92850Y-63350D01*
X92450Y-63350D01*
X92055Y-63350D01*
X92055Y-62494D01*
X92055Y-62200D01*
X92055Y-62100D01*
X92055Y-61805D01*
X91992Y-61743D01*
X91898Y-61742D01*
X91806Y-61780D01*
X91736Y-61851D01*
X91698Y-61943D01*
X91697Y-62042D01*
X91698Y-62037D01*
X91760Y-62100D01*
X92055Y-62100D01*
X92055Y-62200D01*
X91760Y-62200D01*
X91698Y-62262D01*
X91697Y-62257D01*
X91698Y-62356D01*
X91736Y-62448D01*
X91806Y-62519D01*
X91898Y-62557D01*
X91992Y-62557D01*
X92055Y-62494D01*
X92055Y-63350D01*
X90682Y-63350D01*
X90682Y-59201D01*
X90682Y-56401D01*
X90682Y-53701D01*
X90682Y-51001D01*
X90568Y-50725D01*
X90358Y-50514D01*
X90082Y-50400D01*
X89784Y-50399D01*
X89508Y-50513D01*
X89297Y-50724D01*
X89182Y-51000D01*
X89182Y-51298D01*
X89296Y-51574D01*
X89507Y-51785D01*
X89782Y-51899D01*
X90081Y-51900D01*
X90356Y-51786D01*
X90568Y-51575D01*
X90682Y-51299D01*
X90682Y-51001D01*
X90682Y-53701D01*
X90568Y-53425D01*
X90358Y-53214D01*
X90082Y-53100D01*
X89784Y-53099D01*
X89508Y-53213D01*
X89297Y-53424D01*
X89182Y-53700D01*
X89182Y-53998D01*
X89296Y-54274D01*
X89507Y-54485D01*
X89782Y-54599D01*
X90081Y-54600D01*
X90356Y-54486D01*
X90568Y-54275D01*
X90682Y-53999D01*
X90682Y-53701D01*
X90682Y-56401D01*
X90568Y-56125D01*
X90358Y-55914D01*
X90082Y-55800D01*
X89784Y-55799D01*
X89508Y-55913D01*
X89297Y-56124D01*
X89182Y-56400D01*
X89182Y-56698D01*
X89296Y-56974D01*
X89507Y-57185D01*
X89782Y-57299D01*
X90081Y-57300D01*
X90356Y-57186D01*
X90568Y-56975D01*
X90682Y-56699D01*
X90682Y-56401D01*
X90682Y-59201D01*
X90568Y-58925D01*
X90358Y-58714D01*
X90082Y-58600D01*
X89784Y-58599D01*
X89508Y-58713D01*
X89297Y-58924D01*
X89182Y-59200D01*
X89182Y-59498D01*
X89296Y-59774D01*
X89507Y-59985D01*
X89782Y-60099D01*
X90081Y-60100D01*
X90356Y-59986D01*
X90568Y-59775D01*
X90682Y-59499D01*
X90682Y-59201D01*
X90682Y-63350D01*
X88517Y-63350D01*
X88517Y-59899D01*
X88517Y-58800D01*
X88517Y-57099D01*
X88517Y-56000D01*
X88517Y-54399D01*
X88517Y-53300D01*
X88517Y-51699D01*
X88517Y-50600D01*
X88479Y-50508D01*
X88409Y-50438D01*
X88317Y-50400D01*
X88217Y-50399D01*
X87879Y-50400D01*
X87817Y-50462D01*
X87817Y-51100D01*
X88454Y-51100D01*
X88517Y-51037D01*
X88517Y-50600D01*
X88517Y-51699D01*
X88517Y-51262D01*
X88454Y-51200D01*
X87817Y-51200D01*
X87817Y-51837D01*
X87879Y-51900D01*
X88217Y-51900D01*
X88317Y-51899D01*
X88409Y-51861D01*
X88479Y-51791D01*
X88517Y-51699D01*
X88517Y-53300D01*
X88479Y-53208D01*
X88409Y-53138D01*
X88317Y-53100D01*
X88217Y-53099D01*
X87879Y-53100D01*
X87817Y-53162D01*
X87817Y-53800D01*
X88454Y-53800D01*
X88517Y-53737D01*
X88517Y-53300D01*
X88517Y-54399D01*
X88517Y-53962D01*
X88454Y-53900D01*
X87817Y-53900D01*
X87817Y-54537D01*
X87879Y-54600D01*
X88217Y-54600D01*
X88317Y-54599D01*
X88409Y-54561D01*
X88479Y-54491D01*
X88517Y-54399D01*
X88517Y-56000D01*
X88479Y-55908D01*
X88409Y-55838D01*
X88317Y-55800D01*
X88217Y-55799D01*
X87879Y-55800D01*
X87817Y-55862D01*
X87817Y-56500D01*
X88454Y-56500D01*
X88517Y-56437D01*
X88517Y-56000D01*
X88517Y-57099D01*
X88517Y-56662D01*
X88454Y-56600D01*
X87817Y-56600D01*
X87817Y-57237D01*
X87879Y-57300D01*
X88217Y-57300D01*
X88317Y-57299D01*
X88409Y-57261D01*
X88479Y-57191D01*
X88517Y-57099D01*
X88517Y-58800D01*
X88479Y-58708D01*
X88409Y-58638D01*
X88317Y-58600D01*
X88217Y-58599D01*
X87879Y-58600D01*
X87817Y-58662D01*
X87817Y-59300D01*
X88454Y-59300D01*
X88517Y-59237D01*
X88517Y-58800D01*
X88517Y-59899D01*
X88517Y-59462D01*
X88454Y-59400D01*
X87817Y-59400D01*
X87817Y-60037D01*
X87879Y-60100D01*
X88217Y-60100D01*
X88317Y-60099D01*
X88409Y-60061D01*
X88479Y-59991D01*
X88517Y-59899D01*
X88517Y-63350D01*
X88070Y-63350D01*
X87717Y-62996D01*
X87717Y-60037D01*
X87717Y-59400D01*
X87717Y-59300D01*
X87717Y-58662D01*
X87717Y-57237D01*
X87717Y-56600D01*
X87717Y-56500D01*
X87717Y-55862D01*
X87717Y-54537D01*
X87717Y-53900D01*
X87717Y-53800D01*
X87717Y-53162D01*
X87717Y-51837D01*
X87717Y-51200D01*
X87717Y-51100D01*
X87717Y-50462D01*
X87654Y-50400D01*
X87316Y-50399D01*
X87217Y-50400D01*
X87125Y-50438D01*
X87055Y-50508D01*
X87017Y-50600D01*
X87017Y-51037D01*
X87079Y-51100D01*
X87717Y-51100D01*
X87717Y-51200D01*
X87079Y-51200D01*
X87017Y-51262D01*
X87017Y-51699D01*
X87055Y-51791D01*
X87125Y-51861D01*
X87217Y-51899D01*
X87316Y-51900D01*
X87654Y-51900D01*
X87717Y-51837D01*
X87717Y-53162D01*
X87654Y-53100D01*
X87316Y-53099D01*
X87217Y-53100D01*
X87125Y-53138D01*
X87055Y-53208D01*
X87017Y-53300D01*
X87017Y-53737D01*
X87079Y-53800D01*
X87717Y-53800D01*
X87717Y-53900D01*
X87079Y-53900D01*
X87017Y-53962D01*
X87017Y-54399D01*
X87055Y-54491D01*
X87125Y-54561D01*
X87217Y-54599D01*
X87316Y-54600D01*
X87654Y-54600D01*
X87717Y-54537D01*
X87717Y-55862D01*
X87654Y-55800D01*
X87316Y-55799D01*
X87217Y-55800D01*
X87125Y-55838D01*
X87055Y-55908D01*
X87017Y-56000D01*
X87017Y-56437D01*
X87079Y-56500D01*
X87717Y-56500D01*
X87717Y-56600D01*
X87079Y-56600D01*
X87017Y-56662D01*
X87017Y-57099D01*
X87055Y-57191D01*
X87125Y-57261D01*
X87217Y-57299D01*
X87316Y-57300D01*
X87654Y-57300D01*
X87717Y-57237D01*
X87717Y-58662D01*
X87654Y-58600D01*
X87316Y-58599D01*
X87217Y-58600D01*
X87125Y-58638D01*
X87055Y-58708D01*
X87017Y-58800D01*
X87017Y-59237D01*
X87079Y-59300D01*
X87717Y-59300D01*
X87717Y-59400D01*
X87079Y-59400D01*
X87017Y-59462D01*
X87017Y-59899D01*
X87055Y-59991D01*
X87125Y-60061D01*
X87217Y-60099D01*
X87316Y-60100D01*
X87654Y-60100D01*
X87717Y-60037D01*
X87717Y-62996D01*
X87535Y-62814D01*
X86600Y-61879D01*
X86600Y-56624D01*
X86600Y-55975D01*
X86562Y-55883D01*
X86491Y-55813D01*
X86399Y-55775D01*
X86300Y-55774D01*
X85712Y-55775D01*
X85650Y-55837D01*
X85650Y-56250D01*
X86537Y-56250D01*
X86600Y-56187D01*
X86600Y-55975D01*
X86600Y-56624D01*
X86600Y-56412D01*
X86537Y-56350D01*
X85650Y-56350D01*
X85650Y-56762D01*
X85712Y-56825D01*
X86300Y-56825D01*
X86399Y-56824D01*
X86491Y-56786D01*
X86562Y-56716D01*
X86600Y-56624D01*
X86600Y-61879D01*
X86385Y-61664D01*
X86385Y-59083D01*
X86385Y-58316D01*
X86385Y-58216D01*
X86347Y-58125D01*
X86276Y-58054D01*
X86184Y-58016D01*
X85716Y-58016D01*
X85653Y-58079D01*
X85653Y-58650D01*
X86322Y-58650D01*
X86385Y-58587D01*
X86385Y-58316D01*
X86385Y-59083D01*
X86385Y-58812D01*
X86322Y-58750D01*
X85653Y-58750D01*
X85653Y-59320D01*
X85716Y-59383D01*
X86184Y-59383D01*
X86276Y-59345D01*
X86347Y-59274D01*
X86385Y-59183D01*
X86385Y-59083D01*
X86385Y-61664D01*
X85553Y-60833D01*
X85553Y-59320D01*
X85553Y-58750D01*
X85553Y-58650D01*
X85553Y-58079D01*
X85550Y-58075D01*
X85550Y-56762D01*
X85550Y-56350D01*
X85550Y-56250D01*
X85550Y-55837D01*
X85487Y-55775D01*
X84899Y-55774D01*
X84800Y-55775D01*
X84708Y-55813D01*
X84637Y-55883D01*
X84599Y-55975D01*
X84600Y-56187D01*
X84662Y-56250D01*
X85550Y-56250D01*
X85550Y-56350D01*
X84662Y-56350D01*
X84600Y-56412D01*
X84599Y-56624D01*
X84637Y-56716D01*
X84708Y-56786D01*
X84800Y-56824D01*
X84899Y-56825D01*
X85487Y-56825D01*
X85550Y-56762D01*
X85550Y-58075D01*
X85491Y-58016D01*
X85022Y-58016D01*
X84931Y-58054D01*
X84860Y-58125D01*
X84822Y-58216D01*
X84822Y-58316D01*
X84822Y-58587D01*
X84884Y-58650D01*
X85553Y-58650D01*
X85553Y-58750D01*
X84884Y-58750D01*
X84822Y-58812D01*
X84822Y-59083D01*
X84822Y-59183D01*
X84860Y-59274D01*
X84931Y-59345D01*
X85022Y-59383D01*
X85491Y-59383D01*
X85553Y-59320D01*
X85553Y-60833D01*
X84450Y-59729D01*
X84450Y-55870D01*
X84970Y-55350D01*
X86270Y-55350D01*
X86700Y-54920D01*
X86700Y-53079D01*
X86750Y-53099D01*
X86909Y-53100D01*
X87056Y-53039D01*
X87168Y-52926D01*
X87229Y-52779D01*
X87230Y-52620D01*
X87169Y-52473D01*
X87056Y-52361D01*
X86909Y-52300D01*
X86750Y-52299D01*
X86700Y-52320D01*
X86700Y-52001D01*
X86710Y-51991D01*
X86774Y-51834D01*
X86775Y-51665D01*
X86710Y-51509D01*
X86700Y-51499D01*
X86700Y-51150D01*
X86700Y-50379D01*
X86750Y-50399D01*
X86909Y-50400D01*
X87056Y-50339D01*
X87168Y-50226D01*
X87229Y-50079D01*
X87230Y-49920D01*
X87169Y-49773D01*
X87056Y-49661D01*
X86909Y-49600D01*
X86750Y-49599D01*
X86700Y-49620D01*
X86700Y-49579D01*
X86520Y-49400D01*
X84025Y-49400D01*
X84025Y-49340D01*
X83960Y-49184D01*
X83841Y-49064D01*
X83684Y-49000D01*
X83515Y-48999D01*
X83359Y-49064D01*
X83239Y-49183D01*
X83175Y-49340D01*
X83175Y-49374D01*
X83175Y-49075D01*
X83175Y-48724D01*
X83174Y-48625D01*
X83136Y-48533D01*
X83066Y-48462D01*
X82974Y-48424D01*
X82912Y-48425D01*
X82850Y-48487D01*
X82850Y-48850D01*
X83112Y-48850D01*
X83175Y-48787D01*
X83175Y-48724D01*
X83175Y-49075D01*
X83175Y-49012D01*
X83112Y-48950D01*
X82850Y-48950D01*
X82850Y-49312D01*
X82912Y-49375D01*
X82974Y-49375D01*
X83066Y-49337D01*
X83136Y-49266D01*
X83174Y-49174D01*
X83175Y-49075D01*
X83175Y-49374D01*
X83175Y-49400D01*
X82720Y-49400D01*
X82691Y-49370D01*
X82750Y-49312D01*
X82750Y-48950D01*
X82742Y-48950D01*
X82742Y-48850D01*
X82750Y-48850D01*
X82750Y-48487D01*
X82687Y-48425D01*
X82650Y-48424D01*
X82650Y-48420D01*
X82820Y-48250D01*
X88500Y-48250D01*
X93220Y-48250D01*
X93100Y-48540D01*
X93099Y-48957D01*
X93259Y-49344D01*
X93554Y-49639D01*
X93940Y-49799D01*
X94100Y-49799D01*
X94100Y-61250D01*
X94100Y-61700D01*
X94100Y-62100D01*
X94100Y-63229D01*
G54D10*
G36*
X82400Y-56129D02*
X82300Y-56229D01*
X82300Y-56032D01*
X82300Y-53967D01*
X82299Y-53867D01*
X82261Y-53775D01*
X82191Y-53705D01*
X82099Y-53667D01*
X81798Y-53667D01*
X81736Y-53730D01*
X81736Y-54950D01*
X82237Y-54950D01*
X82300Y-54887D01*
X82300Y-53967D01*
X82300Y-56032D01*
X82300Y-55112D01*
X82237Y-55050D01*
X81736Y-55050D01*
X81736Y-56270D01*
X81798Y-56332D01*
X82099Y-56332D01*
X82191Y-56294D01*
X82261Y-56224D01*
X82299Y-56132D01*
X82300Y-56032D01*
X82300Y-56229D01*
X81636Y-56893D01*
X81636Y-56270D01*
X81636Y-55050D01*
X81636Y-54950D01*
X81636Y-53730D01*
X81573Y-53667D01*
X81272Y-53667D01*
X81180Y-53705D01*
X81110Y-53775D01*
X81072Y-53867D01*
X81071Y-53967D01*
X81072Y-54887D01*
X81134Y-54950D01*
X81636Y-54950D01*
X81636Y-55050D01*
X81134Y-55050D01*
X81072Y-55112D01*
X81071Y-56032D01*
X81072Y-56132D01*
X81110Y-56224D01*
X81180Y-56294D01*
X81272Y-56332D01*
X81573Y-56332D01*
X81636Y-56270D01*
X81636Y-56893D01*
X81450Y-57079D01*
X81450Y-59108D01*
X81429Y-59100D01*
X81270Y-59099D01*
X81123Y-59160D01*
X81011Y-59273D01*
X80950Y-59420D01*
X80949Y-59579D01*
X81010Y-59726D01*
X81123Y-59838D01*
X81270Y-59899D01*
X81429Y-59900D01*
X81450Y-59891D01*
X81450Y-61729D01*
X81279Y-61900D01*
X76890Y-61900D01*
X76810Y-61899D01*
X76810Y-61900D01*
X76629Y-61900D01*
X76300Y-62229D01*
X76300Y-62929D01*
X76229Y-63000D01*
X76200Y-63000D01*
X76064Y-63000D01*
X76075Y-62974D01*
X76075Y-62625D01*
X76037Y-62533D01*
X75966Y-62463D01*
X75874Y-62425D01*
X75775Y-62424D01*
X75712Y-62425D01*
X75650Y-62487D01*
X75650Y-62750D01*
X76012Y-62750D01*
X76075Y-62687D01*
X76075Y-62625D01*
X76075Y-62974D01*
X76075Y-62912D01*
X76012Y-62850D01*
X75650Y-62850D01*
X75650Y-62857D01*
X75550Y-62857D01*
X75550Y-62850D01*
X75550Y-62750D01*
X75550Y-62487D01*
X75487Y-62425D01*
X75424Y-62424D01*
X75325Y-62425D01*
X75233Y-62463D01*
X75162Y-62533D01*
X75124Y-62625D01*
X75125Y-62687D01*
X75187Y-62750D01*
X75550Y-62750D01*
X75550Y-62850D01*
X75187Y-62850D01*
X75125Y-62912D01*
X75124Y-62974D01*
X75135Y-63000D01*
X74879Y-63000D01*
X74750Y-63129D01*
X74750Y-65120D01*
X75129Y-65500D01*
X75174Y-65500D01*
X75174Y-65534D01*
X75239Y-65690D01*
X75358Y-65810D01*
X75515Y-65874D01*
X75684Y-65875D01*
X75840Y-65810D01*
X75960Y-65691D01*
X76024Y-65534D01*
X76024Y-65500D01*
X76220Y-65500D01*
X76500Y-65220D01*
X76500Y-64320D01*
X76627Y-64193D01*
X76673Y-64238D01*
X76820Y-64299D01*
X76979Y-64300D01*
X77126Y-64239D01*
X77238Y-64126D01*
X77291Y-64000D01*
X77646Y-64000D01*
X77613Y-64033D01*
X77575Y-64125D01*
X77574Y-64224D01*
X77574Y-64474D01*
X77612Y-64566D01*
X77677Y-64631D01*
X77651Y-64696D01*
X77650Y-64855D01*
X77711Y-65002D01*
X77824Y-65114D01*
X77971Y-65175D01*
X78130Y-65176D01*
X78277Y-65115D01*
X78389Y-65002D01*
X78450Y-64855D01*
X78451Y-64696D01*
X78423Y-64630D01*
X78486Y-64566D01*
X78524Y-64474D01*
X78525Y-64375D01*
X78525Y-64145D01*
X78860Y-64480D01*
X78860Y-64499D01*
X78882Y-64613D01*
X78947Y-64711D01*
X79102Y-64866D01*
X79102Y-64866D01*
X79150Y-64897D01*
X79150Y-64901D01*
X79015Y-64900D01*
X78868Y-64961D01*
X78756Y-65074D01*
X78695Y-65221D01*
X78695Y-65221D01*
X78685Y-65221D01*
X78538Y-65282D01*
X78426Y-65395D01*
X78365Y-65542D01*
X78364Y-65701D01*
X78425Y-65848D01*
X78538Y-65960D01*
X78685Y-66021D01*
X78844Y-66022D01*
X78890Y-66003D01*
X79044Y-66003D01*
X78752Y-66295D01*
X78682Y-66399D01*
X78658Y-66521D01*
X78658Y-66570D01*
X78525Y-66704D01*
X78525Y-66625D01*
X78487Y-66533D01*
X78426Y-66473D01*
X78447Y-66421D01*
X78448Y-66262D01*
X78387Y-66115D01*
X78274Y-66003D01*
X78127Y-65942D01*
X77968Y-65941D01*
X77821Y-66002D01*
X77709Y-66115D01*
X77648Y-66262D01*
X77647Y-66421D01*
X77670Y-66475D01*
X77613Y-66533D01*
X77575Y-66625D01*
X77574Y-66724D01*
X77574Y-66974D01*
X77612Y-67066D01*
X77646Y-67099D01*
X77613Y-67133D01*
X77575Y-67225D01*
X77574Y-67324D01*
X77574Y-67574D01*
X77598Y-67630D01*
X77070Y-68159D01*
X77070Y-67899D01*
X77070Y-67200D01*
X77032Y-67108D01*
X76961Y-67038D01*
X76869Y-67000D01*
X76770Y-66999D01*
X76532Y-67000D01*
X76470Y-67062D01*
X76470Y-67500D01*
X77007Y-67500D01*
X77070Y-67437D01*
X77070Y-67200D01*
X77070Y-67899D01*
X77070Y-67662D01*
X77007Y-67600D01*
X76470Y-67600D01*
X76470Y-68037D01*
X76532Y-68100D01*
X76770Y-68100D01*
X76869Y-68099D01*
X76961Y-68061D01*
X77032Y-67991D01*
X77070Y-67899D01*
X77070Y-68159D01*
X77029Y-68200D01*
X76950Y-68200D01*
X76370Y-68200D01*
X76370Y-68037D01*
X76370Y-67600D01*
X76370Y-67500D01*
X76370Y-67062D01*
X76307Y-67000D01*
X76069Y-66999D01*
X75970Y-67000D01*
X75878Y-67038D01*
X75807Y-67108D01*
X75769Y-67200D01*
X75770Y-67437D01*
X75832Y-67500D01*
X76370Y-67500D01*
X76370Y-67600D01*
X75832Y-67600D01*
X75770Y-67662D01*
X75769Y-67899D01*
X75807Y-67991D01*
X75878Y-68061D01*
X75970Y-68099D01*
X76069Y-68100D01*
X76307Y-68100D01*
X76370Y-68037D01*
X76370Y-68200D01*
X75530Y-68200D01*
X75530Y-67899D01*
X75530Y-67200D01*
X75492Y-67108D01*
X75421Y-67038D01*
X75329Y-67000D01*
X75230Y-66999D01*
X74992Y-67000D01*
X74930Y-67062D01*
X74930Y-67500D01*
X75467Y-67500D01*
X75530Y-67437D01*
X75530Y-67200D01*
X75530Y-67899D01*
X75530Y-67662D01*
X75467Y-67600D01*
X74930Y-67600D01*
X74930Y-68037D01*
X74992Y-68100D01*
X75230Y-68100D01*
X75329Y-68099D01*
X75421Y-68061D01*
X75492Y-67991D01*
X75530Y-67899D01*
X75530Y-68200D01*
X74830Y-68200D01*
X74830Y-68037D01*
X74830Y-67600D01*
X74830Y-67500D01*
X74830Y-67062D01*
X74767Y-67000D01*
X74529Y-66999D01*
X74430Y-67000D01*
X74338Y-67038D01*
X74267Y-67108D01*
X74229Y-67200D01*
X74230Y-67437D01*
X74292Y-67500D01*
X74830Y-67500D01*
X74830Y-67600D01*
X74292Y-67600D01*
X74230Y-67662D01*
X74229Y-67899D01*
X74267Y-67991D01*
X74338Y-68061D01*
X74430Y-68099D01*
X74529Y-68100D01*
X74767Y-68100D01*
X74830Y-68037D01*
X74830Y-68200D01*
X74270Y-68200D01*
X74035Y-67964D01*
X72750Y-66679D01*
X72750Y-60299D01*
X72750Y-59700D01*
X72712Y-59608D01*
X72641Y-59538D01*
X72549Y-59500D01*
X72450Y-59499D01*
X72112Y-59500D01*
X72050Y-59562D01*
X72050Y-59950D01*
X72687Y-59950D01*
X72750Y-59887D01*
X72750Y-59700D01*
X72750Y-60299D01*
X72750Y-60112D01*
X72687Y-60050D01*
X72050Y-60050D01*
X72050Y-60437D01*
X72112Y-60500D01*
X72450Y-60500D01*
X72549Y-60499D01*
X72641Y-60461D01*
X72712Y-60391D01*
X72750Y-60299D01*
X72750Y-66679D01*
X72700Y-66629D01*
X72700Y-64629D01*
X71950Y-63879D01*
X71950Y-60437D01*
X71950Y-60050D01*
X71950Y-59950D01*
X71950Y-59562D01*
X71887Y-59500D01*
X71549Y-59499D01*
X71450Y-59500D01*
X71358Y-59538D01*
X71287Y-59608D01*
X71249Y-59700D01*
X71250Y-59887D01*
X71312Y-59950D01*
X71950Y-59950D01*
X71950Y-60050D01*
X71312Y-60050D01*
X71250Y-60112D01*
X71249Y-60299D01*
X71287Y-60391D01*
X71358Y-60461D01*
X71450Y-60499D01*
X71549Y-60500D01*
X71887Y-60500D01*
X71950Y-60437D01*
X71950Y-63879D01*
X71822Y-63751D01*
X71822Y-62962D01*
X71822Y-61287D01*
X71784Y-61196D01*
X71714Y-61125D01*
X71622Y-61087D01*
X71522Y-61087D01*
X71212Y-61087D01*
X71150Y-61150D01*
X71150Y-62075D01*
X71760Y-62075D01*
X71822Y-62012D01*
X71822Y-61287D01*
X71822Y-62962D01*
X71822Y-62237D01*
X71760Y-62175D01*
X71150Y-62175D01*
X71150Y-63100D01*
X71212Y-63162D01*
X71522Y-63162D01*
X71622Y-63162D01*
X71714Y-63124D01*
X71784Y-63053D01*
X71822Y-62962D01*
X71822Y-63751D01*
X71620Y-63550D01*
X71050Y-63550D01*
X71050Y-63100D01*
X71050Y-62175D01*
X71050Y-62075D01*
X71050Y-61150D01*
X70987Y-61087D01*
X70677Y-61087D01*
X70577Y-61087D01*
X70485Y-61125D01*
X70415Y-61196D01*
X70377Y-61287D01*
X70377Y-62012D01*
X70440Y-62075D01*
X71050Y-62075D01*
X71050Y-62175D01*
X70440Y-62175D01*
X70377Y-62237D01*
X70377Y-62962D01*
X70415Y-63053D01*
X70485Y-63124D01*
X70577Y-63162D01*
X70677Y-63162D01*
X70987Y-63162D01*
X71050Y-63100D01*
X71050Y-63550D01*
X70320Y-63550D01*
X70225Y-63454D01*
X70225Y-57065D01*
X70160Y-56909D01*
X70041Y-56789D01*
X69884Y-56725D01*
X69715Y-56724D01*
X69559Y-56789D01*
X69533Y-56815D01*
X69510Y-56759D01*
X69391Y-56639D01*
X69234Y-56575D01*
X69065Y-56574D01*
X68909Y-56639D01*
X68899Y-56650D01*
X68743Y-56650D01*
X68737Y-56633D01*
X68666Y-56563D01*
X68574Y-56525D01*
X68475Y-56524D01*
X68225Y-56524D01*
X68133Y-56562D01*
X68100Y-56596D01*
X68066Y-56562D01*
X67974Y-56524D01*
X67912Y-56525D01*
X67850Y-56587D01*
X67850Y-56950D01*
X67857Y-56950D01*
X67857Y-57050D01*
X67850Y-57050D01*
X67850Y-57412D01*
X67912Y-57475D01*
X67974Y-57475D01*
X68066Y-57437D01*
X68099Y-57403D01*
X68133Y-57436D01*
X68225Y-57474D01*
X68324Y-57475D01*
X68574Y-57475D01*
X68666Y-57437D01*
X68736Y-57366D01*
X68743Y-57350D01*
X68898Y-57350D01*
X68908Y-57360D01*
X69065Y-57424D01*
X69234Y-57425D01*
X69390Y-57360D01*
X69416Y-57334D01*
X69439Y-57390D01*
X69450Y-57400D01*
X69450Y-57556D01*
X69374Y-57524D01*
X69312Y-57525D01*
X69250Y-57587D01*
X69250Y-57950D01*
X69257Y-57950D01*
X69257Y-58050D01*
X69250Y-58050D01*
X69250Y-58412D01*
X69312Y-58475D01*
X69374Y-58475D01*
X69466Y-58437D01*
X69579Y-58550D01*
X69820Y-58550D01*
X69745Y-58475D01*
X69974Y-58475D01*
X70066Y-58437D01*
X70136Y-58366D01*
X70174Y-58274D01*
X70175Y-58175D01*
X70175Y-57725D01*
X70150Y-57664D01*
X70150Y-57401D01*
X70160Y-57391D01*
X70224Y-57234D01*
X70225Y-57065D01*
X70225Y-63454D01*
X69820Y-63049D01*
X69735Y-62964D01*
X69650Y-62879D01*
X69650Y-60079D01*
X69150Y-59579D01*
X69150Y-58412D01*
X69150Y-58050D01*
X69150Y-57950D01*
X69150Y-57587D01*
X69087Y-57525D01*
X69025Y-57524D01*
X68933Y-57562D01*
X68863Y-57633D01*
X68825Y-57725D01*
X68824Y-57824D01*
X68825Y-57887D01*
X68887Y-57950D01*
X69150Y-57950D01*
X69150Y-58050D01*
X68887Y-58050D01*
X68825Y-58112D01*
X68824Y-58175D01*
X68825Y-58274D01*
X68863Y-58366D01*
X68933Y-58437D01*
X69025Y-58475D01*
X69087Y-58475D01*
X69150Y-58412D01*
X69150Y-59579D01*
X68620Y-59050D01*
X68443Y-59050D01*
X68475Y-58974D01*
X68475Y-58625D01*
X68437Y-58533D01*
X68366Y-58463D01*
X68274Y-58425D01*
X68175Y-58424D01*
X68112Y-58425D01*
X68050Y-58487D01*
X68050Y-58750D01*
X68412Y-58750D01*
X68475Y-58687D01*
X68475Y-58625D01*
X68475Y-58974D01*
X68475Y-58912D01*
X68412Y-58850D01*
X68050Y-58850D01*
X68050Y-58857D01*
X67950Y-58857D01*
X67950Y-58850D01*
X67950Y-58750D01*
X67950Y-58487D01*
X67887Y-58425D01*
X67824Y-58424D01*
X67750Y-58425D01*
X67750Y-57412D01*
X67750Y-57050D01*
X67750Y-56950D01*
X67750Y-56587D01*
X67687Y-56525D01*
X67625Y-56524D01*
X67533Y-56562D01*
X67463Y-56633D01*
X67425Y-56725D01*
X67424Y-56824D01*
X67425Y-56887D01*
X67487Y-56950D01*
X67750Y-56950D01*
X67750Y-57050D01*
X67487Y-57050D01*
X67425Y-57112D01*
X67424Y-57175D01*
X67425Y-57274D01*
X67463Y-57366D01*
X67533Y-57437D01*
X67625Y-57475D01*
X67687Y-57475D01*
X67750Y-57412D01*
X67750Y-58425D01*
X67725Y-58425D01*
X67633Y-58463D01*
X67562Y-58533D01*
X67524Y-58625D01*
X67525Y-58687D01*
X67587Y-58750D01*
X67950Y-58750D01*
X67950Y-58850D01*
X67587Y-58850D01*
X67525Y-58912D01*
X67524Y-58974D01*
X67556Y-59050D01*
X67370Y-59050D01*
X67335Y-59014D01*
X67123Y-58802D01*
X67124Y-58799D01*
X67125Y-58700D01*
X67125Y-58299D01*
X67124Y-58200D01*
X67086Y-58108D01*
X67016Y-58037D01*
X66924Y-57999D01*
X66875Y-57999D01*
X66875Y-57175D01*
X66875Y-56824D01*
X66874Y-56725D01*
X66836Y-56633D01*
X66766Y-56562D01*
X66674Y-56524D01*
X66612Y-56525D01*
X66550Y-56587D01*
X66550Y-56950D01*
X66812Y-56950D01*
X66875Y-56887D01*
X66875Y-56824D01*
X66875Y-57175D01*
X66875Y-57112D01*
X66812Y-57050D01*
X66550Y-57050D01*
X66550Y-57412D01*
X66612Y-57475D01*
X66674Y-57475D01*
X66766Y-57437D01*
X66836Y-57366D01*
X66874Y-57274D01*
X66875Y-57175D01*
X66875Y-57999D01*
X66862Y-58000D01*
X66800Y-58062D01*
X66800Y-58450D01*
X67062Y-58450D01*
X67125Y-58387D01*
X67125Y-58299D01*
X67125Y-58700D01*
X67125Y-58612D01*
X67062Y-58550D01*
X66800Y-58550D01*
X66800Y-58557D01*
X66700Y-58557D01*
X66700Y-58550D01*
X66700Y-58450D01*
X66700Y-58062D01*
X66637Y-58000D01*
X66575Y-57999D01*
X66500Y-58031D01*
X66424Y-57999D01*
X66362Y-58000D01*
X66300Y-58062D01*
X66300Y-58450D01*
X66437Y-58450D01*
X66562Y-58450D01*
X66700Y-58450D01*
X66700Y-58550D01*
X66562Y-58550D01*
X66437Y-58550D01*
X66300Y-58550D01*
X66300Y-58557D01*
X66200Y-58557D01*
X66200Y-58550D01*
X66200Y-58450D01*
X66200Y-58120D01*
X66250Y-58070D01*
X66250Y-57443D01*
X66325Y-57475D01*
X66387Y-57475D01*
X66450Y-57412D01*
X66450Y-57050D01*
X66442Y-57050D01*
X66442Y-56950D01*
X66450Y-56950D01*
X66450Y-56587D01*
X66387Y-56525D01*
X66325Y-56524D01*
X66250Y-56556D01*
X66250Y-56520D01*
X66320Y-56450D01*
X67950Y-56450D01*
X70779Y-56450D01*
X70950Y-56620D01*
X70950Y-58000D01*
X70950Y-59020D01*
X71329Y-59400D01*
X72650Y-59400D01*
X72679Y-59400D01*
X72964Y-59685D01*
X73879Y-60600D01*
X78620Y-60600D01*
X79300Y-59920D01*
X79300Y-59899D01*
X79454Y-59900D01*
X79601Y-59839D01*
X79713Y-59726D01*
X79774Y-59579D01*
X79775Y-59420D01*
X79728Y-59306D01*
X79728Y-56032D01*
X79728Y-53967D01*
X79727Y-53867D01*
X79689Y-53775D01*
X79619Y-53705D01*
X79527Y-53667D01*
X79226Y-53667D01*
X79164Y-53730D01*
X79164Y-54950D01*
X79665Y-54950D01*
X79728Y-54887D01*
X79728Y-53967D01*
X79728Y-56032D01*
X79728Y-55112D01*
X79665Y-55050D01*
X79164Y-55050D01*
X79164Y-56270D01*
X79226Y-56332D01*
X79527Y-56332D01*
X79619Y-56294D01*
X79689Y-56224D01*
X79727Y-56132D01*
X79728Y-56032D01*
X79728Y-59306D01*
X79714Y-59273D01*
X79601Y-59161D01*
X79454Y-59100D01*
X79300Y-59099D01*
X79300Y-57079D01*
X79064Y-56843D01*
X79064Y-56270D01*
X79064Y-55050D01*
X79064Y-54950D01*
X79064Y-53730D01*
X79001Y-53667D01*
X78700Y-53667D01*
X78608Y-53705D01*
X78538Y-53775D01*
X78500Y-53867D01*
X78499Y-53967D01*
X78500Y-54887D01*
X78562Y-54950D01*
X79064Y-54950D01*
X79064Y-55050D01*
X78562Y-55050D01*
X78500Y-55112D01*
X78499Y-56032D01*
X78500Y-56132D01*
X78538Y-56224D01*
X78608Y-56294D01*
X78700Y-56332D01*
X79001Y-56332D01*
X79064Y-56270D01*
X79064Y-56843D01*
X78350Y-56129D01*
X78350Y-56050D01*
X78350Y-55950D01*
X78350Y-55850D01*
X78350Y-53600D01*
X78350Y-53570D01*
X78662Y-53258D01*
X78697Y-53258D01*
X78875Y-53258D01*
X78875Y-53258D01*
X78953Y-53258D01*
X79131Y-53258D01*
X79131Y-53258D01*
X79208Y-53258D01*
X79365Y-53258D01*
X79386Y-53258D01*
X79386Y-53258D01*
X79397Y-53258D01*
X79404Y-53250D01*
X79407Y-53250D01*
X79600Y-53250D01*
X79603Y-53250D01*
X79610Y-53258D01*
X79621Y-53258D01*
X79621Y-53258D01*
X79629Y-53258D01*
X79625Y-53270D01*
X79624Y-53429D01*
X79685Y-53576D01*
X79798Y-53688D01*
X79900Y-53731D01*
X79900Y-55520D01*
X80129Y-55750D01*
X80670Y-55750D01*
X80900Y-55520D01*
X80900Y-53720D01*
X80976Y-53689D01*
X81088Y-53576D01*
X81149Y-53429D01*
X81150Y-53270D01*
X81142Y-53252D01*
X81146Y-53256D01*
X81153Y-53256D01*
X81153Y-53256D01*
X81166Y-53256D01*
X81178Y-53256D01*
X81178Y-53256D01*
X81185Y-53256D01*
X81190Y-53251D01*
X81194Y-53250D01*
X81392Y-53250D01*
X81398Y-53256D01*
X81408Y-53256D01*
X81413Y-53258D01*
X81512Y-53258D01*
X81690Y-53258D01*
X81690Y-53258D01*
X81767Y-53258D01*
X81945Y-53258D01*
X81945Y-53258D01*
X82023Y-53258D01*
X82138Y-53258D01*
X82400Y-53520D01*
X82400Y-53550D01*
X82400Y-53600D01*
X82400Y-55850D01*
X82400Y-56129D01*
X82400Y-56129D01*
G37*
G54D37*
X82400Y-56129D02*
X82300Y-56229D01*
X82300Y-56032D01*
X82300Y-53967D01*
X82299Y-53867D01*
X82261Y-53775D01*
X82191Y-53705D01*
X82099Y-53667D01*
X81798Y-53667D01*
X81736Y-53730D01*
X81736Y-54950D01*
X82237Y-54950D01*
X82300Y-54887D01*
X82300Y-53967D01*
X82300Y-56032D01*
X82300Y-55112D01*
X82237Y-55050D01*
X81736Y-55050D01*
X81736Y-56270D01*
X81798Y-56332D01*
X82099Y-56332D01*
X82191Y-56294D01*
X82261Y-56224D01*
X82299Y-56132D01*
X82300Y-56032D01*
X82300Y-56229D01*
X81636Y-56893D01*
X81636Y-56270D01*
X81636Y-55050D01*
X81636Y-54950D01*
X81636Y-53730D01*
X81573Y-53667D01*
X81272Y-53667D01*
X81180Y-53705D01*
X81110Y-53775D01*
X81072Y-53867D01*
X81071Y-53967D01*
X81072Y-54887D01*
X81134Y-54950D01*
X81636Y-54950D01*
X81636Y-55050D01*
X81134Y-55050D01*
X81072Y-55112D01*
X81071Y-56032D01*
X81072Y-56132D01*
X81110Y-56224D01*
X81180Y-56294D01*
X81272Y-56332D01*
X81573Y-56332D01*
X81636Y-56270D01*
X81636Y-56893D01*
X81450Y-57079D01*
X81450Y-59108D01*
X81429Y-59100D01*
X81270Y-59099D01*
X81123Y-59160D01*
X81011Y-59273D01*
X80950Y-59420D01*
X80949Y-59579D01*
X81010Y-59726D01*
X81123Y-59838D01*
X81270Y-59899D01*
X81429Y-59900D01*
X81450Y-59891D01*
X81450Y-61729D01*
X81279Y-61900D01*
X76890Y-61900D01*
X76810Y-61899D01*
X76810Y-61900D01*
X76629Y-61900D01*
X76300Y-62229D01*
X76300Y-62929D01*
X76229Y-63000D01*
X76200Y-63000D01*
X76064Y-63000D01*
X76075Y-62974D01*
X76075Y-62625D01*
X76037Y-62533D01*
X75966Y-62463D01*
X75874Y-62425D01*
X75775Y-62424D01*
X75712Y-62425D01*
X75650Y-62487D01*
X75650Y-62750D01*
X76012Y-62750D01*
X76075Y-62687D01*
X76075Y-62625D01*
X76075Y-62974D01*
X76075Y-62912D01*
X76012Y-62850D01*
X75650Y-62850D01*
X75650Y-62857D01*
X75550Y-62857D01*
X75550Y-62850D01*
X75550Y-62750D01*
X75550Y-62487D01*
X75487Y-62425D01*
X75424Y-62424D01*
X75325Y-62425D01*
X75233Y-62463D01*
X75162Y-62533D01*
X75124Y-62625D01*
X75125Y-62687D01*
X75187Y-62750D01*
X75550Y-62750D01*
X75550Y-62850D01*
X75187Y-62850D01*
X75125Y-62912D01*
X75124Y-62974D01*
X75135Y-63000D01*
X74879Y-63000D01*
X74750Y-63129D01*
X74750Y-65120D01*
X75129Y-65500D01*
X75174Y-65500D01*
X75174Y-65534D01*
X75239Y-65690D01*
X75358Y-65810D01*
X75515Y-65874D01*
X75684Y-65875D01*
X75840Y-65810D01*
X75960Y-65691D01*
X76024Y-65534D01*
X76024Y-65500D01*
X76220Y-65500D01*
X76500Y-65220D01*
X76500Y-64320D01*
X76627Y-64193D01*
X76673Y-64238D01*
X76820Y-64299D01*
X76979Y-64300D01*
X77126Y-64239D01*
X77238Y-64126D01*
X77291Y-64000D01*
X77646Y-64000D01*
X77613Y-64033D01*
X77575Y-64125D01*
X77574Y-64224D01*
X77574Y-64474D01*
X77612Y-64566D01*
X77677Y-64631D01*
X77651Y-64696D01*
X77650Y-64855D01*
X77711Y-65002D01*
X77824Y-65114D01*
X77971Y-65175D01*
X78130Y-65176D01*
X78277Y-65115D01*
X78389Y-65002D01*
X78450Y-64855D01*
X78451Y-64696D01*
X78423Y-64630D01*
X78486Y-64566D01*
X78524Y-64474D01*
X78525Y-64375D01*
X78525Y-64145D01*
X78860Y-64480D01*
X78860Y-64499D01*
X78882Y-64613D01*
X78947Y-64711D01*
X79102Y-64866D01*
X79102Y-64866D01*
X79150Y-64897D01*
X79150Y-64901D01*
X79015Y-64900D01*
X78868Y-64961D01*
X78756Y-65074D01*
X78695Y-65221D01*
X78695Y-65221D01*
X78685Y-65221D01*
X78538Y-65282D01*
X78426Y-65395D01*
X78365Y-65542D01*
X78364Y-65701D01*
X78425Y-65848D01*
X78538Y-65960D01*
X78685Y-66021D01*
X78844Y-66022D01*
X78890Y-66003D01*
X79044Y-66003D01*
X78752Y-66295D01*
X78682Y-66399D01*
X78658Y-66521D01*
X78658Y-66570D01*
X78525Y-66704D01*
X78525Y-66625D01*
X78487Y-66533D01*
X78426Y-66473D01*
X78447Y-66421D01*
X78448Y-66262D01*
X78387Y-66115D01*
X78274Y-66003D01*
X78127Y-65942D01*
X77968Y-65941D01*
X77821Y-66002D01*
X77709Y-66115D01*
X77648Y-66262D01*
X77647Y-66421D01*
X77670Y-66475D01*
X77613Y-66533D01*
X77575Y-66625D01*
X77574Y-66724D01*
X77574Y-66974D01*
X77612Y-67066D01*
X77646Y-67099D01*
X77613Y-67133D01*
X77575Y-67225D01*
X77574Y-67324D01*
X77574Y-67574D01*
X77598Y-67630D01*
X77070Y-68159D01*
X77070Y-67899D01*
X77070Y-67200D01*
X77032Y-67108D01*
X76961Y-67038D01*
X76869Y-67000D01*
X76770Y-66999D01*
X76532Y-67000D01*
X76470Y-67062D01*
X76470Y-67500D01*
X77007Y-67500D01*
X77070Y-67437D01*
X77070Y-67200D01*
X77070Y-67899D01*
X77070Y-67662D01*
X77007Y-67600D01*
X76470Y-67600D01*
X76470Y-68037D01*
X76532Y-68100D01*
X76770Y-68100D01*
X76869Y-68099D01*
X76961Y-68061D01*
X77032Y-67991D01*
X77070Y-67899D01*
X77070Y-68159D01*
X77029Y-68200D01*
X76950Y-68200D01*
X76370Y-68200D01*
X76370Y-68037D01*
X76370Y-67600D01*
X76370Y-67500D01*
X76370Y-67062D01*
X76307Y-67000D01*
X76069Y-66999D01*
X75970Y-67000D01*
X75878Y-67038D01*
X75807Y-67108D01*
X75769Y-67200D01*
X75770Y-67437D01*
X75832Y-67500D01*
X76370Y-67500D01*
X76370Y-67600D01*
X75832Y-67600D01*
X75770Y-67662D01*
X75769Y-67899D01*
X75807Y-67991D01*
X75878Y-68061D01*
X75970Y-68099D01*
X76069Y-68100D01*
X76307Y-68100D01*
X76370Y-68037D01*
X76370Y-68200D01*
X75530Y-68200D01*
X75530Y-67899D01*
X75530Y-67200D01*
X75492Y-67108D01*
X75421Y-67038D01*
X75329Y-67000D01*
X75230Y-66999D01*
X74992Y-67000D01*
X74930Y-67062D01*
X74930Y-67500D01*
X75467Y-67500D01*
X75530Y-67437D01*
X75530Y-67200D01*
X75530Y-67899D01*
X75530Y-67662D01*
X75467Y-67600D01*
X74930Y-67600D01*
X74930Y-68037D01*
X74992Y-68100D01*
X75230Y-68100D01*
X75329Y-68099D01*
X75421Y-68061D01*
X75492Y-67991D01*
X75530Y-67899D01*
X75530Y-68200D01*
X74830Y-68200D01*
X74830Y-68037D01*
X74830Y-67600D01*
X74830Y-67500D01*
X74830Y-67062D01*
X74767Y-67000D01*
X74529Y-66999D01*
X74430Y-67000D01*
X74338Y-67038D01*
X74267Y-67108D01*
X74229Y-67200D01*
X74230Y-67437D01*
X74292Y-67500D01*
X74830Y-67500D01*
X74830Y-67600D01*
X74292Y-67600D01*
X74230Y-67662D01*
X74229Y-67899D01*
X74267Y-67991D01*
X74338Y-68061D01*
X74430Y-68099D01*
X74529Y-68100D01*
X74767Y-68100D01*
X74830Y-68037D01*
X74830Y-68200D01*
X74270Y-68200D01*
X74035Y-67964D01*
X72750Y-66679D01*
X72750Y-60299D01*
X72750Y-59700D01*
X72712Y-59608D01*
X72641Y-59538D01*
X72549Y-59500D01*
X72450Y-59499D01*
X72112Y-59500D01*
X72050Y-59562D01*
X72050Y-59950D01*
X72687Y-59950D01*
X72750Y-59887D01*
X72750Y-59700D01*
X72750Y-60299D01*
X72750Y-60112D01*
X72687Y-60050D01*
X72050Y-60050D01*
X72050Y-60437D01*
X72112Y-60500D01*
X72450Y-60500D01*
X72549Y-60499D01*
X72641Y-60461D01*
X72712Y-60391D01*
X72750Y-60299D01*
X72750Y-66679D01*
X72700Y-66629D01*
X72700Y-64629D01*
X71950Y-63879D01*
X71950Y-60437D01*
X71950Y-60050D01*
X71950Y-59950D01*
X71950Y-59562D01*
X71887Y-59500D01*
X71549Y-59499D01*
X71450Y-59500D01*
X71358Y-59538D01*
X71287Y-59608D01*
X71249Y-59700D01*
X71250Y-59887D01*
X71312Y-59950D01*
X71950Y-59950D01*
X71950Y-60050D01*
X71312Y-60050D01*
X71250Y-60112D01*
X71249Y-60299D01*
X71287Y-60391D01*
X71358Y-60461D01*
X71450Y-60499D01*
X71549Y-60500D01*
X71887Y-60500D01*
X71950Y-60437D01*
X71950Y-63879D01*
X71822Y-63751D01*
X71822Y-62962D01*
X71822Y-61287D01*
X71784Y-61196D01*
X71714Y-61125D01*
X71622Y-61087D01*
X71522Y-61087D01*
X71212Y-61087D01*
X71150Y-61150D01*
X71150Y-62075D01*
X71760Y-62075D01*
X71822Y-62012D01*
X71822Y-61287D01*
X71822Y-62962D01*
X71822Y-62237D01*
X71760Y-62175D01*
X71150Y-62175D01*
X71150Y-63100D01*
X71212Y-63162D01*
X71522Y-63162D01*
X71622Y-63162D01*
X71714Y-63124D01*
X71784Y-63053D01*
X71822Y-62962D01*
X71822Y-63751D01*
X71620Y-63550D01*
X71050Y-63550D01*
X71050Y-63100D01*
X71050Y-62175D01*
X71050Y-62075D01*
X71050Y-61150D01*
X70987Y-61087D01*
X70677Y-61087D01*
X70577Y-61087D01*
X70485Y-61125D01*
X70415Y-61196D01*
X70377Y-61287D01*
X70377Y-62012D01*
X70440Y-62075D01*
X71050Y-62075D01*
X71050Y-62175D01*
X70440Y-62175D01*
X70377Y-62237D01*
X70377Y-62962D01*
X70415Y-63053D01*
X70485Y-63124D01*
X70577Y-63162D01*
X70677Y-63162D01*
X70987Y-63162D01*
X71050Y-63100D01*
X71050Y-63550D01*
X70320Y-63550D01*
X70225Y-63454D01*
X70225Y-57065D01*
X70160Y-56909D01*
X70041Y-56789D01*
X69884Y-56725D01*
X69715Y-56724D01*
X69559Y-56789D01*
X69533Y-56815D01*
X69510Y-56759D01*
X69391Y-56639D01*
X69234Y-56575D01*
X69065Y-56574D01*
X68909Y-56639D01*
X68899Y-56650D01*
X68743Y-56650D01*
X68737Y-56633D01*
X68666Y-56563D01*
X68574Y-56525D01*
X68475Y-56524D01*
X68225Y-56524D01*
X68133Y-56562D01*
X68100Y-56596D01*
X68066Y-56562D01*
X67974Y-56524D01*
X67912Y-56525D01*
X67850Y-56587D01*
X67850Y-56950D01*
X67857Y-56950D01*
X67857Y-57050D01*
X67850Y-57050D01*
X67850Y-57412D01*
X67912Y-57475D01*
X67974Y-57475D01*
X68066Y-57437D01*
X68099Y-57403D01*
X68133Y-57436D01*
X68225Y-57474D01*
X68324Y-57475D01*
X68574Y-57475D01*
X68666Y-57437D01*
X68736Y-57366D01*
X68743Y-57350D01*
X68898Y-57350D01*
X68908Y-57360D01*
X69065Y-57424D01*
X69234Y-57425D01*
X69390Y-57360D01*
X69416Y-57334D01*
X69439Y-57390D01*
X69450Y-57400D01*
X69450Y-57556D01*
X69374Y-57524D01*
X69312Y-57525D01*
X69250Y-57587D01*
X69250Y-57950D01*
X69257Y-57950D01*
X69257Y-58050D01*
X69250Y-58050D01*
X69250Y-58412D01*
X69312Y-58475D01*
X69374Y-58475D01*
X69466Y-58437D01*
X69579Y-58550D01*
X69820Y-58550D01*
X69745Y-58475D01*
X69974Y-58475D01*
X70066Y-58437D01*
X70136Y-58366D01*
X70174Y-58274D01*
X70175Y-58175D01*
X70175Y-57725D01*
X70150Y-57664D01*
X70150Y-57401D01*
X70160Y-57391D01*
X70224Y-57234D01*
X70225Y-57065D01*
X70225Y-63454D01*
X69820Y-63049D01*
X69735Y-62964D01*
X69650Y-62879D01*
X69650Y-60079D01*
X69150Y-59579D01*
X69150Y-58412D01*
X69150Y-58050D01*
X69150Y-57950D01*
X69150Y-57587D01*
X69087Y-57525D01*
X69025Y-57524D01*
X68933Y-57562D01*
X68863Y-57633D01*
X68825Y-57725D01*
X68824Y-57824D01*
X68825Y-57887D01*
X68887Y-57950D01*
X69150Y-57950D01*
X69150Y-58050D01*
X68887Y-58050D01*
X68825Y-58112D01*
X68824Y-58175D01*
X68825Y-58274D01*
X68863Y-58366D01*
X68933Y-58437D01*
X69025Y-58475D01*
X69087Y-58475D01*
X69150Y-58412D01*
X69150Y-59579D01*
X68620Y-59050D01*
X68443Y-59050D01*
X68475Y-58974D01*
X68475Y-58625D01*
X68437Y-58533D01*
X68366Y-58463D01*
X68274Y-58425D01*
X68175Y-58424D01*
X68112Y-58425D01*
X68050Y-58487D01*
X68050Y-58750D01*
X68412Y-58750D01*
X68475Y-58687D01*
X68475Y-58625D01*
X68475Y-58974D01*
X68475Y-58912D01*
X68412Y-58850D01*
X68050Y-58850D01*
X68050Y-58857D01*
X67950Y-58857D01*
X67950Y-58850D01*
X67950Y-58750D01*
X67950Y-58487D01*
X67887Y-58425D01*
X67824Y-58424D01*
X67750Y-58425D01*
X67750Y-57412D01*
X67750Y-57050D01*
X67750Y-56950D01*
X67750Y-56587D01*
X67687Y-56525D01*
X67625Y-56524D01*
X67533Y-56562D01*
X67463Y-56633D01*
X67425Y-56725D01*
X67424Y-56824D01*
X67425Y-56887D01*
X67487Y-56950D01*
X67750Y-56950D01*
X67750Y-57050D01*
X67487Y-57050D01*
X67425Y-57112D01*
X67424Y-57175D01*
X67425Y-57274D01*
X67463Y-57366D01*
X67533Y-57437D01*
X67625Y-57475D01*
X67687Y-57475D01*
X67750Y-57412D01*
X67750Y-58425D01*
X67725Y-58425D01*
X67633Y-58463D01*
X67562Y-58533D01*
X67524Y-58625D01*
X67525Y-58687D01*
X67587Y-58750D01*
X67950Y-58750D01*
X67950Y-58850D01*
X67587Y-58850D01*
X67525Y-58912D01*
X67524Y-58974D01*
X67556Y-59050D01*
X67370Y-59050D01*
X67335Y-59014D01*
X67123Y-58802D01*
X67124Y-58799D01*
X67125Y-58700D01*
X67125Y-58299D01*
X67124Y-58200D01*
X67086Y-58108D01*
X67016Y-58037D01*
X66924Y-57999D01*
X66875Y-57999D01*
X66875Y-57175D01*
X66875Y-56824D01*
X66874Y-56725D01*
X66836Y-56633D01*
X66766Y-56562D01*
X66674Y-56524D01*
X66612Y-56525D01*
X66550Y-56587D01*
X66550Y-56950D01*
X66812Y-56950D01*
X66875Y-56887D01*
X66875Y-56824D01*
X66875Y-57175D01*
X66875Y-57112D01*
X66812Y-57050D01*
X66550Y-57050D01*
X66550Y-57412D01*
X66612Y-57475D01*
X66674Y-57475D01*
X66766Y-57437D01*
X66836Y-57366D01*
X66874Y-57274D01*
X66875Y-57175D01*
X66875Y-57999D01*
X66862Y-58000D01*
X66800Y-58062D01*
X66800Y-58450D01*
X67062Y-58450D01*
X67125Y-58387D01*
X67125Y-58299D01*
X67125Y-58700D01*
X67125Y-58612D01*
X67062Y-58550D01*
X66800Y-58550D01*
X66800Y-58557D01*
X66700Y-58557D01*
X66700Y-58550D01*
X66700Y-58450D01*
X66700Y-58062D01*
X66637Y-58000D01*
X66575Y-57999D01*
X66500Y-58031D01*
X66424Y-57999D01*
X66362Y-58000D01*
X66300Y-58062D01*
X66300Y-58450D01*
X66437Y-58450D01*
X66562Y-58450D01*
X66700Y-58450D01*
X66700Y-58550D01*
X66562Y-58550D01*
X66437Y-58550D01*
X66300Y-58550D01*
X66300Y-58557D01*
X66200Y-58557D01*
X66200Y-58550D01*
X66200Y-58450D01*
X66200Y-58120D01*
X66250Y-58070D01*
X66250Y-57443D01*
X66325Y-57475D01*
X66387Y-57475D01*
X66450Y-57412D01*
X66450Y-57050D01*
X66442Y-57050D01*
X66442Y-56950D01*
X66450Y-56950D01*
X66450Y-56587D01*
X66387Y-56525D01*
X66325Y-56524D01*
X66250Y-56556D01*
X66250Y-56520D01*
X66320Y-56450D01*
X67950Y-56450D01*
X70779Y-56450D01*
X70950Y-56620D01*
X70950Y-58000D01*
X70950Y-59020D01*
X71329Y-59400D01*
X72650Y-59400D01*
X72679Y-59400D01*
X72964Y-59685D01*
X73879Y-60600D01*
X78620Y-60600D01*
X79300Y-59920D01*
X79300Y-59899D01*
X79454Y-59900D01*
X79601Y-59839D01*
X79713Y-59726D01*
X79774Y-59579D01*
X79775Y-59420D01*
X79728Y-59306D01*
X79728Y-56032D01*
X79728Y-53967D01*
X79727Y-53867D01*
X79689Y-53775D01*
X79619Y-53705D01*
X79527Y-53667D01*
X79226Y-53667D01*
X79164Y-53730D01*
X79164Y-54950D01*
X79665Y-54950D01*
X79728Y-54887D01*
X79728Y-53967D01*
X79728Y-56032D01*
X79728Y-55112D01*
X79665Y-55050D01*
X79164Y-55050D01*
X79164Y-56270D01*
X79226Y-56332D01*
X79527Y-56332D01*
X79619Y-56294D01*
X79689Y-56224D01*
X79727Y-56132D01*
X79728Y-56032D01*
X79728Y-59306D01*
X79714Y-59273D01*
X79601Y-59161D01*
X79454Y-59100D01*
X79300Y-59099D01*
X79300Y-57079D01*
X79064Y-56843D01*
X79064Y-56270D01*
X79064Y-55050D01*
X79064Y-54950D01*
X79064Y-53730D01*
X79001Y-53667D01*
X78700Y-53667D01*
X78608Y-53705D01*
X78538Y-53775D01*
X78500Y-53867D01*
X78499Y-53967D01*
X78500Y-54887D01*
X78562Y-54950D01*
X79064Y-54950D01*
X79064Y-55050D01*
X78562Y-55050D01*
X78500Y-55112D01*
X78499Y-56032D01*
X78500Y-56132D01*
X78538Y-56224D01*
X78608Y-56294D01*
X78700Y-56332D01*
X79001Y-56332D01*
X79064Y-56270D01*
X79064Y-56843D01*
X78350Y-56129D01*
X78350Y-56050D01*
X78350Y-55950D01*
X78350Y-55850D01*
X78350Y-53600D01*
X78350Y-53570D01*
X78662Y-53258D01*
X78697Y-53258D01*
X78875Y-53258D01*
X78875Y-53258D01*
X78953Y-53258D01*
X79131Y-53258D01*
X79131Y-53258D01*
X79208Y-53258D01*
X79365Y-53258D01*
X79386Y-53258D01*
X79386Y-53258D01*
X79397Y-53258D01*
X79404Y-53250D01*
X79407Y-53250D01*
X79600Y-53250D01*
X79603Y-53250D01*
X79610Y-53258D01*
X79621Y-53258D01*
X79621Y-53258D01*
X79629Y-53258D01*
X79625Y-53270D01*
X79624Y-53429D01*
X79685Y-53576D01*
X79798Y-53688D01*
X79900Y-53731D01*
X79900Y-55520D01*
X80129Y-55750D01*
X80670Y-55750D01*
X80900Y-55520D01*
X80900Y-53720D01*
X80976Y-53689D01*
X81088Y-53576D01*
X81149Y-53429D01*
X81150Y-53270D01*
X81142Y-53252D01*
X81146Y-53256D01*
X81153Y-53256D01*
X81153Y-53256D01*
X81166Y-53256D01*
X81178Y-53256D01*
X81178Y-53256D01*
X81185Y-53256D01*
X81190Y-53251D01*
X81194Y-53250D01*
X81392Y-53250D01*
X81398Y-53256D01*
X81408Y-53256D01*
X81413Y-53258D01*
X81512Y-53258D01*
X81690Y-53258D01*
X81690Y-53258D01*
X81767Y-53258D01*
X81945Y-53258D01*
X81945Y-53258D01*
X82023Y-53258D01*
X82138Y-53258D01*
X82400Y-53520D01*
X82400Y-53550D01*
X82400Y-53600D01*
X82400Y-55850D01*
X82400Y-56129D01*
G54D10*
G36*
X94125Y-70499D02*
X93942Y-70499D01*
X93556Y-70659D01*
X93525Y-70690D01*
X93525Y-70615D01*
X93460Y-70459D01*
X93341Y-70339D01*
X93184Y-70275D01*
X93015Y-70274D01*
X92859Y-70339D01*
X92849Y-70350D01*
X92512Y-70350D01*
X92493Y-70331D01*
X92401Y-70293D01*
X92302Y-70292D01*
X91988Y-70292D01*
X91899Y-70329D01*
X91811Y-70293D01*
X91712Y-70292D01*
X91398Y-70292D01*
X91306Y-70330D01*
X91237Y-70400D01*
X90632Y-70400D01*
X90632Y-67751D01*
X90632Y-65051D01*
X90518Y-64775D01*
X90308Y-64564D01*
X90032Y-64450D01*
X89734Y-64449D01*
X89458Y-64563D01*
X89247Y-64774D01*
X89132Y-65050D01*
X89132Y-65348D01*
X89246Y-65624D01*
X89457Y-65835D01*
X89732Y-65949D01*
X90031Y-65950D01*
X90306Y-65836D01*
X90518Y-65625D01*
X90632Y-65349D01*
X90632Y-65051D01*
X90632Y-67751D01*
X90518Y-67475D01*
X90308Y-67264D01*
X90032Y-67150D01*
X89734Y-67149D01*
X89458Y-67263D01*
X89247Y-67474D01*
X89132Y-67750D01*
X89132Y-68048D01*
X89246Y-68324D01*
X89457Y-68535D01*
X89732Y-68649D01*
X90031Y-68650D01*
X90306Y-68536D01*
X90518Y-68325D01*
X90632Y-68049D01*
X90632Y-67751D01*
X90632Y-70400D01*
X90164Y-70400D01*
X90137Y-70333D01*
X90066Y-70263D01*
X89974Y-70225D01*
X89875Y-70224D01*
X89625Y-70224D01*
X89533Y-70262D01*
X89500Y-70296D01*
X89466Y-70262D01*
X89374Y-70224D01*
X89312Y-70225D01*
X89250Y-70287D01*
X89250Y-70650D01*
X89257Y-70650D01*
X89257Y-70750D01*
X89250Y-70750D01*
X89250Y-71112D01*
X89312Y-71175D01*
X89374Y-71175D01*
X89466Y-71137D01*
X89499Y-71103D01*
X89533Y-71136D01*
X89625Y-71174D01*
X89724Y-71175D01*
X89974Y-71175D01*
X90066Y-71137D01*
X90136Y-71066D01*
X90164Y-71000D01*
X91237Y-71000D01*
X91306Y-71068D01*
X91398Y-71106D01*
X91497Y-71107D01*
X91811Y-71107D01*
X91900Y-71070D01*
X91988Y-71106D01*
X92087Y-71107D01*
X92401Y-71107D01*
X92493Y-71069D01*
X92512Y-71050D01*
X92848Y-71050D01*
X92858Y-71060D01*
X93015Y-71124D01*
X93184Y-71125D01*
X93190Y-71122D01*
X93100Y-71340D01*
X93099Y-71757D01*
X93190Y-71976D01*
X89150Y-71990D01*
X89150Y-71112D01*
X89150Y-70750D01*
X89150Y-70650D01*
X89150Y-70287D01*
X89087Y-70225D01*
X89025Y-70224D01*
X88933Y-70262D01*
X88863Y-70333D01*
X88825Y-70425D01*
X88824Y-70524D01*
X88825Y-70587D01*
X88887Y-70650D01*
X89150Y-70650D01*
X89150Y-70750D01*
X88887Y-70750D01*
X88825Y-70812D01*
X88824Y-70875D01*
X88825Y-70974D01*
X88863Y-71066D01*
X88933Y-71137D01*
X89025Y-71175D01*
X89087Y-71175D01*
X89150Y-71112D01*
X89150Y-71990D01*
X88467Y-71992D01*
X88467Y-68449D01*
X88467Y-67350D01*
X88467Y-65749D01*
X88467Y-64650D01*
X88429Y-64558D01*
X88359Y-64488D01*
X88267Y-64450D01*
X88167Y-64449D01*
X87829Y-64450D01*
X87767Y-64512D01*
X87767Y-65150D01*
X88404Y-65150D01*
X88467Y-65087D01*
X88467Y-64650D01*
X88467Y-65749D01*
X88467Y-65312D01*
X88404Y-65250D01*
X87767Y-65250D01*
X87767Y-65887D01*
X87829Y-65950D01*
X88167Y-65950D01*
X88267Y-65949D01*
X88359Y-65911D01*
X88429Y-65841D01*
X88467Y-65749D01*
X88467Y-67350D01*
X88429Y-67258D01*
X88359Y-67188D01*
X88267Y-67150D01*
X88167Y-67149D01*
X87829Y-67150D01*
X87767Y-67212D01*
X87767Y-67850D01*
X88404Y-67850D01*
X88467Y-67787D01*
X88467Y-67350D01*
X88467Y-68449D01*
X88467Y-68012D01*
X88404Y-67950D01*
X87767Y-67950D01*
X87767Y-68587D01*
X87829Y-68650D01*
X88167Y-68650D01*
X88267Y-68649D01*
X88359Y-68611D01*
X88429Y-68541D01*
X88467Y-68449D01*
X88467Y-71992D01*
X87667Y-71995D01*
X87667Y-68587D01*
X87667Y-67950D01*
X87667Y-67850D01*
X87667Y-67212D01*
X87667Y-65887D01*
X87667Y-65250D01*
X87667Y-65150D01*
X87667Y-64512D01*
X87604Y-64450D01*
X87266Y-64449D01*
X87167Y-64450D01*
X87075Y-64488D01*
X87005Y-64558D01*
X86967Y-64650D01*
X86967Y-65087D01*
X87029Y-65150D01*
X87667Y-65150D01*
X87667Y-65250D01*
X87029Y-65250D01*
X86967Y-65312D01*
X86967Y-65749D01*
X87005Y-65841D01*
X87075Y-65911D01*
X87167Y-65949D01*
X87266Y-65950D01*
X87604Y-65950D01*
X87667Y-65887D01*
X87667Y-67212D01*
X87604Y-67150D01*
X87266Y-67149D01*
X87167Y-67150D01*
X87075Y-67188D01*
X87005Y-67258D01*
X86967Y-67350D01*
X86967Y-67787D01*
X87029Y-67850D01*
X87667Y-67850D01*
X87667Y-67950D01*
X87029Y-67950D01*
X86967Y-68012D01*
X86967Y-68449D01*
X87005Y-68541D01*
X87075Y-68611D01*
X87167Y-68649D01*
X87266Y-68650D01*
X87604Y-68650D01*
X87667Y-68587D01*
X87667Y-71995D01*
X86495Y-71999D01*
X86325Y-71829D01*
X86325Y-66424D01*
X86325Y-66362D01*
X86262Y-66300D01*
X85900Y-66300D01*
X85900Y-66562D01*
X85962Y-66625D01*
X86025Y-66625D01*
X86124Y-66624D01*
X86216Y-66586D01*
X86287Y-66516D01*
X86325Y-66424D01*
X86325Y-71829D01*
X85800Y-71304D01*
X85800Y-66562D01*
X85800Y-66300D01*
X85437Y-66300D01*
X85375Y-66362D01*
X85374Y-66424D01*
X85412Y-66516D01*
X85483Y-66586D01*
X85575Y-66624D01*
X85674Y-66625D01*
X85737Y-66625D01*
X85800Y-66562D01*
X85800Y-71304D01*
X85275Y-70779D01*
X85275Y-67704D01*
X85125Y-67554D01*
X85125Y-64824D01*
X85125Y-64762D01*
X85062Y-64700D01*
X84700Y-64700D01*
X84700Y-64962D01*
X84762Y-65025D01*
X84825Y-65025D01*
X84924Y-65024D01*
X85016Y-64986D01*
X85087Y-64916D01*
X85125Y-64824D01*
X85125Y-67554D01*
X84950Y-67379D01*
X84950Y-66574D01*
X84950Y-65925D01*
X84912Y-65833D01*
X84841Y-65763D01*
X84749Y-65725D01*
X84650Y-65724D01*
X84600Y-65724D01*
X84600Y-64962D01*
X84600Y-64700D01*
X84237Y-64700D01*
X84175Y-64762D01*
X84174Y-64824D01*
X84212Y-64916D01*
X84283Y-64986D01*
X84375Y-65024D01*
X84474Y-65025D01*
X84537Y-65025D01*
X84600Y-64962D01*
X84600Y-65724D01*
X84062Y-65725D01*
X84000Y-65787D01*
X84000Y-66200D01*
X84887Y-66200D01*
X84950Y-66137D01*
X84950Y-65925D01*
X84950Y-66574D01*
X84950Y-66362D01*
X84887Y-66300D01*
X84000Y-66300D01*
X84000Y-66712D01*
X84062Y-66775D01*
X84650Y-66775D01*
X84749Y-66774D01*
X84841Y-66736D01*
X84912Y-66666D01*
X84950Y-66574D01*
X84950Y-67379D01*
X84845Y-67275D01*
X83900Y-67275D01*
X83900Y-66712D01*
X83900Y-66300D01*
X83900Y-66200D01*
X83900Y-65787D01*
X83837Y-65725D01*
X83249Y-65724D01*
X83150Y-65725D01*
X83058Y-65763D01*
X82987Y-65833D01*
X82949Y-65925D01*
X82950Y-66137D01*
X83012Y-66200D01*
X83900Y-66200D01*
X83900Y-66300D01*
X83012Y-66300D01*
X82950Y-66362D01*
X82949Y-66574D01*
X82987Y-66666D01*
X83058Y-66736D01*
X83150Y-66774D01*
X83249Y-66775D01*
X83837Y-66775D01*
X83900Y-66712D01*
X83900Y-67275D01*
X82920Y-67275D01*
X82846Y-67200D01*
X82846Y-66371D01*
X82821Y-66247D01*
X82821Y-66247D01*
X82751Y-66141D01*
X82650Y-66040D01*
X82650Y-65770D01*
X84060Y-64360D01*
X84070Y-64350D01*
X84246Y-64350D01*
X84212Y-64383D01*
X84174Y-64475D01*
X84175Y-64537D01*
X84237Y-64600D01*
X84600Y-64600D01*
X84600Y-64592D01*
X84700Y-64592D01*
X84700Y-64600D01*
X85062Y-64600D01*
X85125Y-64537D01*
X85125Y-64475D01*
X85087Y-64383D01*
X85053Y-64350D01*
X85053Y-64350D01*
X85446Y-64350D01*
X85413Y-64383D01*
X85375Y-64475D01*
X85374Y-64574D01*
X85374Y-64824D01*
X85412Y-64916D01*
X85483Y-64986D01*
X85550Y-65014D01*
X85550Y-65285D01*
X85483Y-65312D01*
X85413Y-65383D01*
X85375Y-65475D01*
X85374Y-65574D01*
X85374Y-65824D01*
X85412Y-65916D01*
X85446Y-65950D01*
X85412Y-65983D01*
X85374Y-66075D01*
X85375Y-66137D01*
X85437Y-66200D01*
X85800Y-66200D01*
X85800Y-66192D01*
X85900Y-66192D01*
X85900Y-66200D01*
X86262Y-66200D01*
X86325Y-66137D01*
X86325Y-66075D01*
X86287Y-65983D01*
X86253Y-65950D01*
X86286Y-65916D01*
X86324Y-65824D01*
X86325Y-65725D01*
X86325Y-65475D01*
X86287Y-65383D01*
X86216Y-65313D01*
X86150Y-65285D01*
X86150Y-65014D01*
X86216Y-64987D01*
X86286Y-64916D01*
X86324Y-64824D01*
X86325Y-64725D01*
X86325Y-64475D01*
X86287Y-64383D01*
X86253Y-64350D01*
X86253Y-64350D01*
X88350Y-64350D01*
X88375Y-64350D01*
X93579Y-64350D01*
X94100Y-64870D01*
X94100Y-70245D01*
X94125Y-70270D01*
X94125Y-70499D01*
X94125Y-70499D01*
G37*
G54D37*
X94125Y-70499D02*
X93942Y-70499D01*
X93556Y-70659D01*
X93525Y-70690D01*
X93525Y-70615D01*
X93460Y-70459D01*
X93341Y-70339D01*
X93184Y-70275D01*
X93015Y-70274D01*
X92859Y-70339D01*
X92849Y-70350D01*
X92512Y-70350D01*
X92493Y-70331D01*
X92401Y-70293D01*
X92302Y-70292D01*
X91988Y-70292D01*
X91899Y-70329D01*
X91811Y-70293D01*
X91712Y-70292D01*
X91398Y-70292D01*
X91306Y-70330D01*
X91237Y-70400D01*
X90632Y-70400D01*
X90632Y-67751D01*
X90632Y-65051D01*
X90518Y-64775D01*
X90308Y-64564D01*
X90032Y-64450D01*
X89734Y-64449D01*
X89458Y-64563D01*
X89247Y-64774D01*
X89132Y-65050D01*
X89132Y-65348D01*
X89246Y-65624D01*
X89457Y-65835D01*
X89732Y-65949D01*
X90031Y-65950D01*
X90306Y-65836D01*
X90518Y-65625D01*
X90632Y-65349D01*
X90632Y-65051D01*
X90632Y-67751D01*
X90518Y-67475D01*
X90308Y-67264D01*
X90032Y-67150D01*
X89734Y-67149D01*
X89458Y-67263D01*
X89247Y-67474D01*
X89132Y-67750D01*
X89132Y-68048D01*
X89246Y-68324D01*
X89457Y-68535D01*
X89732Y-68649D01*
X90031Y-68650D01*
X90306Y-68536D01*
X90518Y-68325D01*
X90632Y-68049D01*
X90632Y-67751D01*
X90632Y-70400D01*
X90164Y-70400D01*
X90137Y-70333D01*
X90066Y-70263D01*
X89974Y-70225D01*
X89875Y-70224D01*
X89625Y-70224D01*
X89533Y-70262D01*
X89500Y-70296D01*
X89466Y-70262D01*
X89374Y-70224D01*
X89312Y-70225D01*
X89250Y-70287D01*
X89250Y-70650D01*
X89257Y-70650D01*
X89257Y-70750D01*
X89250Y-70750D01*
X89250Y-71112D01*
X89312Y-71175D01*
X89374Y-71175D01*
X89466Y-71137D01*
X89499Y-71103D01*
X89533Y-71136D01*
X89625Y-71174D01*
X89724Y-71175D01*
X89974Y-71175D01*
X90066Y-71137D01*
X90136Y-71066D01*
X90164Y-71000D01*
X91237Y-71000D01*
X91306Y-71068D01*
X91398Y-71106D01*
X91497Y-71107D01*
X91811Y-71107D01*
X91900Y-71070D01*
X91988Y-71106D01*
X92087Y-71107D01*
X92401Y-71107D01*
X92493Y-71069D01*
X92512Y-71050D01*
X92848Y-71050D01*
X92858Y-71060D01*
X93015Y-71124D01*
X93184Y-71125D01*
X93190Y-71122D01*
X93100Y-71340D01*
X93099Y-71757D01*
X93190Y-71976D01*
X89150Y-71990D01*
X89150Y-71112D01*
X89150Y-70750D01*
X89150Y-70650D01*
X89150Y-70287D01*
X89087Y-70225D01*
X89025Y-70224D01*
X88933Y-70262D01*
X88863Y-70333D01*
X88825Y-70425D01*
X88824Y-70524D01*
X88825Y-70587D01*
X88887Y-70650D01*
X89150Y-70650D01*
X89150Y-70750D01*
X88887Y-70750D01*
X88825Y-70812D01*
X88824Y-70875D01*
X88825Y-70974D01*
X88863Y-71066D01*
X88933Y-71137D01*
X89025Y-71175D01*
X89087Y-71175D01*
X89150Y-71112D01*
X89150Y-71990D01*
X88467Y-71992D01*
X88467Y-68449D01*
X88467Y-67350D01*
X88467Y-65749D01*
X88467Y-64650D01*
X88429Y-64558D01*
X88359Y-64488D01*
X88267Y-64450D01*
X88167Y-64449D01*
X87829Y-64450D01*
X87767Y-64512D01*
X87767Y-65150D01*
X88404Y-65150D01*
X88467Y-65087D01*
X88467Y-64650D01*
X88467Y-65749D01*
X88467Y-65312D01*
X88404Y-65250D01*
X87767Y-65250D01*
X87767Y-65887D01*
X87829Y-65950D01*
X88167Y-65950D01*
X88267Y-65949D01*
X88359Y-65911D01*
X88429Y-65841D01*
X88467Y-65749D01*
X88467Y-67350D01*
X88429Y-67258D01*
X88359Y-67188D01*
X88267Y-67150D01*
X88167Y-67149D01*
X87829Y-67150D01*
X87767Y-67212D01*
X87767Y-67850D01*
X88404Y-67850D01*
X88467Y-67787D01*
X88467Y-67350D01*
X88467Y-68449D01*
X88467Y-68012D01*
X88404Y-67950D01*
X87767Y-67950D01*
X87767Y-68587D01*
X87829Y-68650D01*
X88167Y-68650D01*
X88267Y-68649D01*
X88359Y-68611D01*
X88429Y-68541D01*
X88467Y-68449D01*
X88467Y-71992D01*
X87667Y-71995D01*
X87667Y-68587D01*
X87667Y-67950D01*
X87667Y-67850D01*
X87667Y-67212D01*
X87667Y-65887D01*
X87667Y-65250D01*
X87667Y-65150D01*
X87667Y-64512D01*
X87604Y-64450D01*
X87266Y-64449D01*
X87167Y-64450D01*
X87075Y-64488D01*
X87005Y-64558D01*
X86967Y-64650D01*
X86967Y-65087D01*
X87029Y-65150D01*
X87667Y-65150D01*
X87667Y-65250D01*
X87029Y-65250D01*
X86967Y-65312D01*
X86967Y-65749D01*
X87005Y-65841D01*
X87075Y-65911D01*
X87167Y-65949D01*
X87266Y-65950D01*
X87604Y-65950D01*
X87667Y-65887D01*
X87667Y-67212D01*
X87604Y-67150D01*
X87266Y-67149D01*
X87167Y-67150D01*
X87075Y-67188D01*
X87005Y-67258D01*
X86967Y-67350D01*
X86967Y-67787D01*
X87029Y-67850D01*
X87667Y-67850D01*
X87667Y-67950D01*
X87029Y-67950D01*
X86967Y-68012D01*
X86967Y-68449D01*
X87005Y-68541D01*
X87075Y-68611D01*
X87167Y-68649D01*
X87266Y-68650D01*
X87604Y-68650D01*
X87667Y-68587D01*
X87667Y-71995D01*
X86495Y-71999D01*
X86325Y-71829D01*
X86325Y-66424D01*
X86325Y-66362D01*
X86262Y-66300D01*
X85900Y-66300D01*
X85900Y-66562D01*
X85962Y-66625D01*
X86025Y-66625D01*
X86124Y-66624D01*
X86216Y-66586D01*
X86287Y-66516D01*
X86325Y-66424D01*
X86325Y-71829D01*
X85800Y-71304D01*
X85800Y-66562D01*
X85800Y-66300D01*
X85437Y-66300D01*
X85375Y-66362D01*
X85374Y-66424D01*
X85412Y-66516D01*
X85483Y-66586D01*
X85575Y-66624D01*
X85674Y-66625D01*
X85737Y-66625D01*
X85800Y-66562D01*
X85800Y-71304D01*
X85275Y-70779D01*
X85275Y-67704D01*
X85125Y-67554D01*
X85125Y-64824D01*
X85125Y-64762D01*
X85062Y-64700D01*
X84700Y-64700D01*
X84700Y-64962D01*
X84762Y-65025D01*
X84825Y-65025D01*
X84924Y-65024D01*
X85016Y-64986D01*
X85087Y-64916D01*
X85125Y-64824D01*
X85125Y-67554D01*
X84950Y-67379D01*
X84950Y-66574D01*
X84950Y-65925D01*
X84912Y-65833D01*
X84841Y-65763D01*
X84749Y-65725D01*
X84650Y-65724D01*
X84600Y-65724D01*
X84600Y-64962D01*
X84600Y-64700D01*
X84237Y-64700D01*
X84175Y-64762D01*
X84174Y-64824D01*
X84212Y-64916D01*
X84283Y-64986D01*
X84375Y-65024D01*
X84474Y-65025D01*
X84537Y-65025D01*
X84600Y-64962D01*
X84600Y-65724D01*
X84062Y-65725D01*
X84000Y-65787D01*
X84000Y-66200D01*
X84887Y-66200D01*
X84950Y-66137D01*
X84950Y-65925D01*
X84950Y-66574D01*
X84950Y-66362D01*
X84887Y-66300D01*
X84000Y-66300D01*
X84000Y-66712D01*
X84062Y-66775D01*
X84650Y-66775D01*
X84749Y-66774D01*
X84841Y-66736D01*
X84912Y-66666D01*
X84950Y-66574D01*
X84950Y-67379D01*
X84845Y-67275D01*
X83900Y-67275D01*
X83900Y-66712D01*
X83900Y-66300D01*
X83900Y-66200D01*
X83900Y-65787D01*
X83837Y-65725D01*
X83249Y-65724D01*
X83150Y-65725D01*
X83058Y-65763D01*
X82987Y-65833D01*
X82949Y-65925D01*
X82950Y-66137D01*
X83012Y-66200D01*
X83900Y-66200D01*
X83900Y-66300D01*
X83012Y-66300D01*
X82950Y-66362D01*
X82949Y-66574D01*
X82987Y-66666D01*
X83058Y-66736D01*
X83150Y-66774D01*
X83249Y-66775D01*
X83837Y-66775D01*
X83900Y-66712D01*
X83900Y-67275D01*
X82920Y-67275D01*
X82846Y-67200D01*
X82846Y-66371D01*
X82821Y-66247D01*
X82821Y-66247D01*
X82751Y-66141D01*
X82650Y-66040D01*
X82650Y-65770D01*
X84060Y-64360D01*
X84070Y-64350D01*
X84246Y-64350D01*
X84212Y-64383D01*
X84174Y-64475D01*
X84175Y-64537D01*
X84237Y-64600D01*
X84600Y-64600D01*
X84600Y-64592D01*
X84700Y-64592D01*
X84700Y-64600D01*
X85062Y-64600D01*
X85125Y-64537D01*
X85125Y-64475D01*
X85087Y-64383D01*
X85053Y-64350D01*
X85053Y-64350D01*
X85446Y-64350D01*
X85413Y-64383D01*
X85375Y-64475D01*
X85374Y-64574D01*
X85374Y-64824D01*
X85412Y-64916D01*
X85483Y-64986D01*
X85550Y-65014D01*
X85550Y-65285D01*
X85483Y-65312D01*
X85413Y-65383D01*
X85375Y-65475D01*
X85374Y-65574D01*
X85374Y-65824D01*
X85412Y-65916D01*
X85446Y-65950D01*
X85412Y-65983D01*
X85374Y-66075D01*
X85375Y-66137D01*
X85437Y-66200D01*
X85800Y-66200D01*
X85800Y-66192D01*
X85900Y-66192D01*
X85900Y-66200D01*
X86262Y-66200D01*
X86325Y-66137D01*
X86325Y-66075D01*
X86287Y-65983D01*
X86253Y-65950D01*
X86286Y-65916D01*
X86324Y-65824D01*
X86325Y-65725D01*
X86325Y-65475D01*
X86287Y-65383D01*
X86216Y-65313D01*
X86150Y-65285D01*
X86150Y-65014D01*
X86216Y-64987D01*
X86286Y-64916D01*
X86324Y-64824D01*
X86325Y-64725D01*
X86325Y-64475D01*
X86287Y-64383D01*
X86253Y-64350D01*
X86253Y-64350D01*
X88350Y-64350D01*
X88375Y-64350D01*
X93579Y-64350D01*
X94100Y-64870D01*
X94100Y-70245D01*
X94125Y-70270D01*
X94125Y-70499D01*
M02*
